<?xml version="1.0" encoding="UTF-8" standalone="no"?>
<svg
   xmlns:dc="http://purl.org/dc/elements/1.1/"
   xmlns:cc="http://creativecommons.org/ns#"
   xmlns:rdf="http://www.w3.org/1999/02/22-rdf-syntax-ns#"
   xmlns:svg="http://www.w3.org/2000/svg"
   xmlns="http://www.w3.org/2000/svg"
   xmlns:xlink="http://www.w3.org/1999/xlink"
   version="1.1"
   id="svg1008"
   x="0px"
   y="0px"
   viewBox="-174.331 -123.304 584.99999 584.99999"
   enable-background="new -174.331 -123.304 1190.551 841.89"
   xml:space="preserve"
   width="585"
   height="585"><metadata
   id="metadata163"><rdf:RDF><cc:Work
       rdf:about=""><dc:format>image/svg+xml</dc:format><dc:type
         rdf:resource="http://purl.org/dc/dcmitype/StillImage" /><dc:title></dc:title></cc:Work></rdf:RDF></metadata><defs
   id="defs161"><radialGradient
     xlink:href="#path994_1_"
     id="radialGradient179"
     gradientUnits="userSpaceOnUse"
     gradientTransform="matrix(0.3275,0,0,0.3275,2746.0427,3192.6265)"
     cx="-6667.3647"
     cy="-10020.901"
     r="2683.9873" /></defs>
<linearGradient
   id="path980_1_"
   gradientUnits="userSpaceOnUse"
   x1="1573.7843"
   y1="-944.17688"
   x2="111.3565"
   y2="466.7912"
   gradientTransform="matrix(0.3275,0,0,0.3275,134.5906,401.4009)">
	<stop
   offset="0.048"
   style="stop-color:#FFF44F"
   id="stop2" />
	<stop
   offset="0.111"
   style="stop-color:#FFE847"
   id="stop4" />
	<stop
   offset="0.225"
   style="stop-color:#FFC830"
   id="stop6" />
	<stop
   offset="0.368"
   style="stop-color:#FF980E"
   id="stop8" />
	<stop
   offset="0.401"
   style="stop-color:#FF8B16"
   id="stop10" />
	<stop
   offset="0.462"
   style="stop-color:#FF672A"
   id="stop12" />
	<stop
   offset="0.534"
   style="stop-color:#FF3647"
   id="stop14" />
	<stop
   offset="0.705"
   style="stop-color:#E31587"
   id="stop16" />
</linearGradient>

<radialGradient
   id="path982_1_"
   cx="-6467.5674"
   cy="-9546.7471"
   r="1836.5227"
   gradientTransform="matrix(0.3275,0,0,0.3275,2746.0427,3192.6265)"
   gradientUnits="userSpaceOnUse">
	<stop
   offset="0.129"
   style="stop-color:#FFBD4F"
   id="stop20" />
	<stop
   offset="0.186"
   style="stop-color:#FFAC31"
   id="stop22" />
	<stop
   offset="0.247"
   style="stop-color:#FF9D17"
   id="stop24" />
	<stop
   offset="0.283"
   style="stop-color:#FF980E"
   id="stop26" />
	<stop
   offset="0.403"
   style="stop-color:#FF563B"
   id="stop28" />
	<stop
   offset="0.467"
   style="stop-color:#FF3750"
   id="stop30" />
	<stop
   offset="0.71"
   style="stop-color:#F5156C"
   id="stop32" />
	<stop
   offset="0.782"
   style="stop-color:#EB0878"
   id="stop34" />
	<stop
   offset="0.86"
   style="stop-color:#E50080"
   id="stop36" />
</radialGradient>

<radialGradient
   id="path984_1_"
   cx="-7138.6494"
   cy="-8795.9219"
   r="1836.528"
   gradientTransform="matrix(0.3275,0,0,0.3275,2746.0427,3192.6265)"
   gradientUnits="userSpaceOnUse">
	<stop
   offset="0.3"
   style="stop-color:#960E18"
   id="stop40" />
	<stop
   offset="0.351"
   style="stop-color:#B11927;stop-opacity:0.74"
   id="stop42" />
	<stop
   offset="0.435"
   style="stop-color:#DB293D;stop-opacity:0.343"
   id="stop44" />
	<stop
   offset="0.497"
   style="stop-color:#F5334B;stop-opacity:0.094"
   id="stop46" />
	<stop
   offset="0.53"
   style="stop-color:#FF3750;stop-opacity:0"
   id="stop48" />
</radialGradient>

<radialGradient
   id="path986_1_"
   cx="-6917.2114"
   cy="-9963.5234"
   r="1330.4386"
   gradientTransform="matrix(0.3275,0,0,0.3275,2746.0427,3192.6265)"
   gradientUnits="userSpaceOnUse">
	<stop
   offset="0.132"
   style="stop-color:#FFF44F"
   id="stop52" />
	<stop
   offset="0.252"
   style="stop-color:#FFDC3E"
   id="stop54" />
	<stop
   offset="0.506"
   style="stop-color:#FF9D12"
   id="stop56" />
	<stop
   offset="0.526"
   style="stop-color:#FF980E"
   id="stop58" />
</radialGradient>

<radialGradient
   id="path988_1_"
   cx="-7341.7871"
   cy="-8316.2139"
   r="874.44928"
   gradientTransform="matrix(0.3275,0,0,0.3275,2746.0427,3192.6265)"
   gradientUnits="userSpaceOnUse">
	<stop
   offset="0.353"
   style="stop-color:#3A8EE6"
   id="stop62" />
	<stop
   offset="0.472"
   style="stop-color:#5C79F0"
   id="stop64" />
	<stop
   offset="0.669"
   style="stop-color:#9059FF"
   id="stop66" />
	<stop
   offset="1"
   style="stop-color:#C139E6"
   id="stop68" />
</radialGradient>

<radialGradient
   id="path990_1_"
   cx="-8236.1963"
   cy="-8000.2432"
   r="463.70401"
   gradientTransform="matrix(0.3183,-0.077,0.0901,0.3726,3783.3997,2609.3684)"
   gradientUnits="userSpaceOnUse">
	<stop
   offset="0.206"
   style="stop-color:#9059FF;stop-opacity:0"
   id="stop72" />
	<stop
   offset="0.278"
   style="stop-color:#8C4FF3;stop-opacity:0.064"
   id="stop74" />
	<stop
   offset="0.747"
   style="stop-color:#7716A8;stop-opacity:0.45"
   id="stop76" />
	<stop
   offset="0.975"
   style="stop-color:#6E008B;stop-opacity:0.6"
   id="stop78" />
</radialGradient>

<radialGradient
   id="path992_1_"
   cx="-7161.8359"
   cy="-9621.8896"
   r="629.0835"
   gradientTransform="matrix(0.3275,0,0,0.3275,2746.0427,3192.6265)"
   gradientUnits="userSpaceOnUse">
	<stop
   offset="0"
   style="stop-color:#FFE226"
   id="stop82" />
	<stop
   offset="0.121"
   style="stop-color:#FFDB27"
   id="stop84" />
	<stop
   offset="0.295"
   style="stop-color:#FFC82A"
   id="stop86" />
	<stop
   offset="0.502"
   style="stop-color:#FFA930"
   id="stop88" />
	<stop
   offset="0.732"
   style="stop-color:#FF7E37"
   id="stop90" />
	<stop
   offset="0.792"
   style="stop-color:#FF7139"
   id="stop92" />
</radialGradient>

<radialGradient
   id="path994_1_"
   cx="-6667.3647"
   cy="-10020.901"
   r="2683.9873"
   gradientTransform="matrix(0.3275,0,0,0.3275,2746.0427,3192.6265)"
   gradientUnits="userSpaceOnUse">
	<stop
   offset="0.113"
   style="stop-color:#FFF44F"
   id="stop96" />
	<stop
   offset="0.456"
   style="stop-color:#FF980E"
   id="stop98" />
	<stop
   offset="0.622"
   style="stop-color:#FF5634"
   id="stop100" />
	<stop
   offset="0.716"
   style="stop-color:#FF3647"
   id="stop102" />
	<stop
   offset="0.904"
   style="stop-color:#E31587"
   id="stop104" />
</radialGradient>

<radialGradient
   id="path996_1_"
   cx="-11156.244"
   cy="-25211.904"
   r="1966.4982"
   gradientTransform="matrix(0.0344,0.3258,-0.2138,0.0226,-4518.146,4164.1484)"
   gradientUnits="userSpaceOnUse">
	<stop
   offset="0"
   style="stop-color:#FFF44F"
   id="stop108" />
	<stop
   offset="0.06"
   style="stop-color:#FFE847"
   id="stop110" />
	<stop
   offset="0.168"
   style="stop-color:#FFC830"
   id="stop112" />
	<stop
   offset="0.304"
   style="stop-color:#FF980E"
   id="stop114" />
	<stop
   offset="0.356"
   style="stop-color:#FF8B16"
   id="stop116" />
	<stop
   offset="0.455"
   style="stop-color:#FF672A"
   id="stop118" />
	<stop
   offset="0.57"
   style="stop-color:#FF3647"
   id="stop120" />
	<stop
   offset="0.737"
   style="stop-color:#E31587"
   id="stop122" />
</radialGradient>

<radialGradient
   id="path998_1_"
   cx="-7176.6509"
   cy="-9388.8799"
   r="1675.6613"
   gradientTransform="matrix(0.3275,0,0,0.3275,2746.0427,3192.6265)"
   gradientUnits="userSpaceOnUse">
	<stop
   offset="0.137"
   style="stop-color:#FFF44F"
   id="stop126" />
	<stop
   offset="0.48"
   style="stop-color:#FF980E"
   id="stop128" />
	<stop
   offset="0.592"
   style="stop-color:#FF5634"
   id="stop130" />
	<stop
   offset="0.655"
   style="stop-color:#FF3647"
   id="stop132" />
	<stop
   offset="0.904"
   style="stop-color:#E31587"
   id="stop134" />
</radialGradient>

<radialGradient
   id="path1000_1_"
   cx="-6734.3213"
   cy="-9290.8115"
   r="1834.0046"
   gradientTransform="matrix(0.3275,0,0,0.3275,2746.0427,3192.6265)"
   gradientUnits="userSpaceOnUse">
	<stop
   offset="0.094"
   style="stop-color:#FFF44F"
   id="stop138" />
	<stop
   offset="0.231"
   style="stop-color:#FFE141"
   id="stop140" />
	<stop
   offset="0.509"
   style="stop-color:#FFAF1E"
   id="stop142" />
	<stop
   offset="0.626"
   style="stop-color:#FF980E"
   id="stop144" />
</radialGradient>

<linearGradient
   id="path1002_1_"
   gradientUnits="userSpaceOnUse"
   x1="1556.2566"
   y1="-951.67493"
   x2="311.8808"
   y2="292.67911"
   gradientTransform="matrix(0.3275,0,0,0.3275,134.5906,401.4009)">
	<stop
   offset="0.167"
   style="stop-color:#FFF44F;stop-opacity:0.8"
   id="stop148" />
	<stop
   offset="0.266"
   style="stop-color:#FFF44F;stop-opacity:0.634"
   id="stop150" />
	<stop
   offset="0.489"
   style="stop-color:#FFF44F;stop-opacity:0.217"
   id="stop152" />
	<stop
   offset="0.6"
   style="stop-color:#FFF44F;stop-opacity:0"
   id="stop154" />
</linearGradient>
<g
   id="g177"
   transform="matrix(1.0150661,0,0,0.98274211,-309.11351,-123.28041)"><path
     id="path980"
     fill="url(#path980_1_)"
     d="m 688.246,199.715 c -12.542,-30.158 -37.952,-62.74 -57.895,-73.022 14.212,27.507 24.068,57.043 29.209,87.561 l 0.065,0.491 c -32.614,-81.34 -87.922,-114.118 -133.11,-185.536 -2.292,-3.602 -4.584,-7.236 -6.811,-11.035 -1.277,-2.193 -2.293,-4.158 -3.177,-5.959 -1.866,-3.635 -3.308,-7.467 -4.29,-11.429 0,-0.393 -0.294,-0.688 -0.654,-0.753 -0.164,-0.033 -0.36,-0.033 -0.557,0 -0.033,0 -0.099,0.065 -0.131,0.098 -0.033,0 -0.131,0.099 -0.197,0.099 l 0.099,-0.196 c -72.466,42.437 -97.058,120.994 -99.316,160.289 -28.947,1.997 -56.617,12.64 -79.408,30.617 -2.391,-2.03 -4.847,-3.896 -7.434,-5.633 -6.581,-23.019 -6.844,-47.35 -0.818,-70.533 -26.622,12.901 -50.265,31.174 -69.453,53.67 h -0.131 c -11.428,-14.507 -10.643,-62.282 -9.987,-72.27 -3.373,1.375 -6.614,3.078 -9.627,5.108 -10.086,7.204 -19.517,15.292 -28.194,24.166 -9.889,10.02 -18.894,20.826 -26.982,32.353 v 0.033 -0.066 c -18.533,26.295 -31.697,55.995 -38.705,87.431 l -0.393,1.899 c -0.557,2.554 -2.489,15.26 -2.849,18.01 0,0.23 -0.033,0.426 -0.066,0.622 -2.489,13.131 -4.061,26.426 -4.65,39.786 v 1.474 c 0.131,159.34 129.443,288.423 288.782,288.259 140.348,-0.131 260.229,-101.184 284.067,-239.501 0.491,-3.732 0.884,-7.4 1.31,-11.166 5.961,-49.054 -0.491,-98.893 -18.697,-144.867 z m -332.53,225.813 c 1.342,0.654 2.619,1.343 3.995,1.965 l 0.196,0.131 c -1.408,-0.656 -2.816,-1.343 -4.191,-2.096 z M 659.659,214.81 v -0.262 l 0.065,0.295 z"
     style="fill:url(#path980_1_)" /><path
     id="path982"
     fill="url(#path982_1_)"
     d="m 688.246,199.715 c -12.542,-30.158 -37.952,-62.74 -57.895,-73.022 14.212,27.507 24.068,57.043 29.209,87.561 v 0.262 l 0.065,0.295 c 22.234,63.625 19.025,133.405 -8.972,194.738 C 617.58,480.508 537.549,553.236 412.265,549.699 276.896,545.868 157.669,445.404 135.369,313.833 c -4.061,-20.761 0,-31.272 2.03,-48.136 -2.751,13.098 -4.322,26.426 -4.617,39.818 v 1.474 c 0.131,159.34 129.443,288.423 288.782,288.259 140.348,-0.131 260.229,-101.184 284.067,-239.501 0.491,-3.732 0.884,-7.4 1.31,-11.166 5.963,-49.053 -0.489,-98.892 -18.695,-144.866 z"
     style="fill:url(#path982_1_)" /><path
     id="path984"
     fill="url(#path984_1_)"
     d="m 688.246,199.715 c -12.542,-30.158 -37.952,-62.74 -57.895,-73.022 14.212,27.507 24.068,57.043 29.209,87.561 v 0.262 l 0.065,0.295 c 22.234,63.625 19.025,133.405 -8.972,194.738 C 617.58,480.508 537.549,553.236 412.265,549.699 276.896,545.868 157.669,445.404 135.369,313.833 c -4.061,-20.761 0,-31.272 2.03,-48.136 -2.751,13.098 -4.322,26.426 -4.617,39.818 v 1.474 c 0.131,159.34 129.443,288.423 288.782,288.259 140.348,-0.131 260.229,-101.184 284.067,-239.501 0.491,-3.732 0.884,-7.4 1.31,-11.166 5.963,-49.053 -0.489,-98.892 -18.695,-144.866 z"
     style="fill:url(#path984_1_)" /><path
     id="path986"
     fill="url(#path986_1_)"
     d="m 548.03,233.606 c 0.622,0.426 1.212,0.885 1.801,1.31 C 542.595,222.08 533.557,210.292 523.046,199.977 433.356,110.288 499.534,5.535 510.7,0.197 l 0.099,-0.163 c -72.466,42.437 -97.058,120.994 -99.316,160.289 3.372,-0.229 6.713,-0.524 10.15,-0.524 52.326,0.097 100.594,28.292 126.397,73.807 z"
     style="fill:url(#path986_1_)" /><path
     id="path988"
     fill="url(#path988_1_)"
     d="m 421.796,251.518 c -0.491,7.171 -25.836,31.927 -34.71,31.927 -82.027,0 -95.355,49.643 -95.355,49.643 3.635,41.783 32.746,76.198 67.947,94.405 1.604,0.818 3.242,1.571 4.879,2.324 2.816,1.245 5.633,2.424 8.482,3.472 12.083,4.289 24.723,6.713 37.526,7.236 143.785,6.746 171.651,-171.946 67.881,-223.815 24.494,-3.177 49.282,2.849 69.552,16.896 -25.771,-45.516 -74.038,-73.71 -126.397,-73.809 -3.438,0 -6.778,0.295 -10.151,0.524 -28.947,1.997 -56.617,12.64 -79.407,30.617 4.388,3.732 9.364,8.71 19.811,18.992 19.612,19.288 69.843,39.263 69.942,41.588 z"
     style="fill:url(#path988_1_)" /><path
     id="path990"
     fill="url(#path990_1_)"
     d="m 421.796,251.518 c -0.491,7.171 -25.836,31.927 -34.71,31.927 -82.027,0 -95.355,49.643 -95.355,49.643 3.635,41.783 32.746,76.198 67.947,94.405 1.604,0.818 3.242,1.571 4.879,2.324 2.816,1.245 5.633,2.424 8.482,3.472 12.083,4.289 24.723,6.713 37.526,7.236 143.785,6.746 171.651,-171.946 67.881,-223.815 24.494,-3.177 49.282,2.849 69.552,16.896 -25.771,-45.516 -74.038,-73.71 -126.397,-73.809 -3.438,0 -6.778,0.295 -10.151,0.524 -28.947,1.997 -56.617,12.64 -79.407,30.617 4.388,3.732 9.364,8.71 19.811,18.992 19.612,19.288 69.843,39.263 69.942,41.588 z"
     style="fill:url(#path990_1_)" /><path
     id="path992"
     fill="url(#path992_1_)"
     d="m 318.615,181.312 c 2.324,1.473 4.257,2.783 5.959,3.962 -6.581,-23.021 -6.844,-47.351 -0.818,-70.534 -26.622,12.902 -50.265,31.174 -69.453,53.67 1.44,-0.032 43.29,-0.786 64.312,12.902 z"
     style="fill:url(#path992_1_)" /><path
     id="path994"
     fill="url(#path994_1_)"
     d="m 135.405,313.833 c 22.267,131.571 141.493,232.002 276.862,235.866 125.284,3.536 205.314,-69.191 238.388,-140.151 27.997,-61.332 31.206,-131.08 8.972,-194.737 v -0.262 c 0,-0.23 -0.032,-0.327 0,-0.262 l 0.065,0.491 c 10.25,66.833 -23.74,131.571 -76.886,175.352 l -0.164,0.36 c -103.541,84.32 -202.629,50.887 -222.669,37.232 -1.408,-0.654 -2.783,-1.375 -4.191,-2.096 -60.351,-28.849 -85.302,-83.861 -79.965,-131.015 -29.274,0.426 -56.061,-16.405 -68.34,-42.995 32.222,-19.745 72.367,-21.35 106.063,-4.257 34.154,15.521 73.056,17.028 108.322,4.257 -0.099,-2.357 -50.33,-22.332 -69.911,-41.619 -10.446,-10.314 -15.424,-15.26 -19.812,-18.992 -2.391,-2.03 -4.847,-3.896 -7.434,-5.633 -1.702,-1.179 -3.635,-2.423 -5.959,-3.962 -21.056,-13.688 -62.904,-12.935 -64.279,-12.901 h -0.131 c -11.429,-14.507 -10.643,-62.282 -9.988,-72.27 -3.372,1.375 -6.614,3.078 -9.627,5.108 -10.085,7.204 -19.516,15.292 -28.193,24.166 -9.922,9.987 -18.96,20.793 -27.081,32.287 v 0.032 -0.065 c -18.533,26.295 -31.697,55.995 -38.705,87.431 -0.131,0.59 -10.38,45.386 -5.337,68.635 z"
     style="fill:url(#radialGradient179)" /><path
     id="path996"
     fill="url(#path996_1_)"
     d="m 523.045,199.976 c 10.544,10.348 19.549,22.137 26.786,34.973 1.571,1.212 3.077,2.391 4.322,3.536 65.425,60.285 31.141,145.521 28.587,151.612 53.146,-43.781 87.102,-108.518 76.886,-175.352 -32.647,-81.372 -87.954,-114.15 -133.143,-185.568 -2.292,-3.602 -4.585,-7.237 -6.812,-11.035 -1.277,-2.194 -2.292,-4.159 -3.176,-5.96 -1.867,-3.635 -3.308,-7.466 -4.29,-11.428 0,-0.394 -0.295,-0.688 -0.655,-0.754 -0.163,-0.032 -0.359,-0.032 -0.557,0 -0.032,0 -0.098,0.065 -0.131,0.099 -0.032,0 -0.131,0.098 -0.196,0.098 -11.133,5.337 -77.311,110.09 12.379,199.779 z"
     style="fill:url(#path996_1_)" /><path
     id="path998"
     fill="url(#path998_1_)"
     d="m 554.12,238.485 c -1.244,-1.145 -2.751,-2.357 -4.322,-3.536 -0.59,-0.426 -1.179,-0.884 -1.801,-1.31 -20.303,-14.048 -45.091,-20.073 -69.552,-16.897 103.77,51.902 75.936,230.562 -67.881,223.816 -12.804,-0.524 -25.443,-2.98 -37.526,-7.237 -2.816,-1.048 -5.633,-2.227 -8.482,-3.471 -1.637,-0.753 -3.274,-1.474 -4.879,-2.325 l 0.196,0.131 c 20.04,13.688 119.096,47.121 222.669,-37.231 l 0.164,-0.36 c 2.588,-6.058 36.84,-91.328 -28.586,-151.58 z"
     style="fill:url(#path998_1_)" /><path
     id="path1000"
     fill="url(#path1000_1_)"
     d="m 291.731,333.088 c 0,0 13.328,-49.643 95.355,-49.643 8.874,0 34.251,-24.756 34.71,-31.927 -35.267,12.77 -74.169,11.265 -108.322,-4.257 -33.695,-17.094 -73.841,-15.489 -106.063,4.257 12.279,26.589 39.065,43.42 68.34,42.994 -5.338,47.187 19.582,102.167 79.965,131.016 1.342,0.654 2.619,1.343 3.995,1.965 -35.234,-18.207 -64.346,-52.622 -67.98,-94.405 z"
     style="fill:url(#path1000_1_)" /><path
     id="path1002"
     fill="url(#path1002_1_)"
     d="m 688.246,199.715 c -12.542,-30.158 -37.952,-62.74 -57.895,-73.022 14.212,27.507 24.068,57.043 29.209,87.561 l 0.065,0.491 c -32.614,-81.34 -87.922,-114.118 -133.11,-185.536 -2.292,-3.602 -4.584,-7.236 -6.811,-11.035 -1.277,-2.193 -2.293,-4.158 -3.177,-5.959 -1.866,-3.635 -3.308,-7.467 -4.29,-11.429 0,-0.393 -0.294,-0.688 -0.654,-0.753 -0.164,-0.033 -0.36,-0.033 -0.557,0 -0.033,0 -0.099,0.065 -0.131,0.098 -0.033,0 -0.131,0.099 -0.197,0.099 l 0.099,-0.196 c -72.466,42.437 -97.058,120.994 -99.316,160.289 3.372,-0.229 6.713,-0.524 10.15,-0.524 52.36,0.099 100.595,28.293 126.431,73.809 -20.303,-14.048 -45.091,-20.073 -69.552,-16.896 103.77,51.901 75.936,230.562 -67.881,223.815 -12.804,-0.523 -25.443,-2.979 -37.526,-7.236 -2.816,-1.048 -5.633,-2.227 -8.482,-3.472 -1.637,-0.753 -3.274,-1.473 -4.879,-2.324 l 0.196,0.131 c -1.408,-0.655 -2.783,-1.375 -4.191,-2.096 1.343,0.654 2.62,1.343 3.995,1.965 -35.234,-18.207 -64.313,-52.622 -67.947,-94.405 0,0 13.328,-49.643 95.355,-49.643 8.874,0 34.251,-24.756 34.71,-31.927 -0.099,-2.357 -50.33,-22.333 -69.911,-41.62 -10.446,-10.314 -15.424,-15.259 -19.812,-18.992 -2.391,-2.03 -4.847,-3.896 -7.434,-5.632 -6.581,-23.021 -6.844,-47.351 -0.818,-70.534 -26.622,12.902 -50.264,31.174 -69.453,53.67 h -0.131 c -11.428,-14.506 -10.643,-62.281 -9.987,-72.27 -3.373,1.376 -6.614,3.078 -9.627,5.108 -10.086,7.204 -19.517,15.292 -28.194,24.167 -9.889,10.02 -18.893,20.825 -26.982,32.353 v 0.032 -0.066 c -18.533,26.295 -31.697,55.995 -38.705,87.431 l -0.393,1.899 c -0.557,2.554 -2.98,15.423 -3.34,18.206 0,0.196 0,-0.23 0,0 -2.26,13.327 -3.668,26.753 -4.29,40.244 v 1.474 c 0.131,159.34 129.443,288.423 288.782,288.259 140.348,-0.131 260.229,-101.184 284.067,-239.501 0.491,-3.732 0.884,-7.4 1.31,-11.166 5.962,-49.054 -0.49,-98.893 -18.696,-144.867 z m -28.62,14.8 0.065,0.295 z"
     style="fill:url(#path1002_1_)" /></g>
</svg>
