<svg width="512" height="512" xmlns="http://www.w3.org/2000/svg">

 <g>
  <title>background</title>
  <rect fill="none" id="canvas_background" height="402" width="582" y="-1" x="-1"/>
 </g>
 <g>
  <title>Layer 1</title>
  <ellipse transform="rotate(-89, 261.759, 257.449)" ry="233.435824" rx="230.600567" id="svg_5" cy="257.449136" cx="261.758628" stroke-opacity="null" stroke-width="0" stroke="null" fill="#000000"/>
  <path d="m261.757721,42.554916c-117.360001,0 -212.499985,95.139999 -212.499985,212.5s95.139984,212.499985 212.499985,212.499985s212.500061,-95.140015 212.500061,-212.499985s-95.140076,-212.5 -212.500061,-212.5zm68.140015,314.699997c6.26001,6.23999 6.27002,16.369995 0.030029,22.630005c-3.130005,3.130005 -7.230042,4.699951 -11.330017,4.699951c-4.090027,0 -8.169983,-1.559998 -11.299988,-4.669983l-113.680008,-113.359985c-3.01001,-3 -4.700012,-7.070007 -4.700012,-11.319992s1.679993,-8.320007 4.690002,-11.329987l113.690018,-113.690002c6.25,-6.25 16.380005,-6.25 22.630005,0c6.25,6.25 6.25,16.37999 0,22.62999l-102.37001,102.360001l102.339981,102.050003z"/>
  <path transform="rotate(-180, 261.758, 255.055)" stroke-width="0" fill="#ffffff" id="svg_2" d="m261.757721,42.554916c-117.360001,0 -212.499985,95.139999 -212.499985,212.5s95.139984,212.499985 212.499985,212.499985s212.500061,-95.140015 212.500061,-212.499985s-95.140076,-212.5 -212.500061,-212.5zm68.140015,314.699997c6.26001,6.23999 6.27002,16.369995 0.030029,22.630005c-3.130005,3.130005 -7.230042,4.699951 -11.330017,4.699951c-4.090027,0 -8.169983,-1.559998 -11.299988,-4.669983l-113.680008,-113.359985c-3.01001,-3 -4.700012,-7.070007 -4.700012,-11.319992s1.679993,-8.320007 4.690002,-11.329987l113.690018,-113.690002c6.25,-6.25 16.380005,-6.25 22.630005,0c6.25,6.25 6.25,16.37999 0,22.62999l-102.37001,102.360001l102.339981,102.050003z" class="st0"/>
  <path d="m158.183777,181.842392c0.945084,0 2.113815,-0.891891 3.780334,0c3.004349,1.60788 3.960175,6.503632 5.670517,9.450851c3.182129,5.483368 5.536148,11.409683 9.450836,18.901688c5.484039,10.495483 9.024261,16.794083 10.395935,20.791855c1.563934,4.558167 2.757309,8.559296 4.725418,11.341003c2.729279,3.857544 3.990829,6.354752 7.560669,9.450851c2.019409,1.751419 3.490616,4.213943 4.725433,4.725418c0.873138,0.361664 1.890167,0 2.835251,0c0.945084,0 1.890167,0 3.780334,0c0.945084,0 1.890167,0 2.835251,0c0.945084,0 0.945084,0 1.890167,-0.945084l0.945084,0l0.945084,-0.945084" id="svg_3" stroke-opacity="null" stroke-width="0" stroke="null" fill="none"/>
 </g>
</svg>