<?xml version="1.0" encoding="UTF-8" standalone="no"?>
<svg
   xmlns:dc="http://purl.org/dc/elements/1.1/"
   xmlns:cc="http://creativecommons.org/ns#"
   xmlns:rdf="http://www.w3.org/1999/02/22-rdf-syntax-ns#"
   xmlns:svg="http://www.w3.org/2000/svg"
   xmlns="http://www.w3.org/2000/svg"
   xmlns:sodipodi="http://sodipodi.sourceforge.net/DTD/sodipodi-0.dtd"
   xmlns:inkscape="http://www.inkscape.org/namespaces/inkscape"
   width="513.68683"
   height="491.95261"
   version="1.1"
   id="svg75"
   sodipodi:docname="rocket-312767.svg"
   viewBox="0 0 513.68683 491.95261"
   inkscape:version="1.0.2 (e86c870879, 2021-01-15, custom)">
  <defs
     id="defs79" />
  <sodipodi:namedview
     pagecolor="#ffffff"
     bordercolor="#666666"
     borderopacity="1"
     objecttolerance="10"
     gridtolerance="10"
     guidetolerance="10"
     inkscape:pageopacity="0"
     inkscape:pageshadow="2"
     inkscape:window-width="1920"
     inkscape:window-height="1001"
     id="namedview77"
     showgrid="false"
     fit-margin-top="10"
     fit-margin-left="10"
     fit-margin-right="10"
     fit-margin-bottom="10"
     inkscape:zoom="0.959375"
     inkscape:cx="322.12708"
     inkscape:cy="216.95989"
     inkscape:window-x="-9"
     inkscape:window-y="-9"
     inkscape:window-maximized="1"
     inkscape:current-layer="svg75"
     inkscape:document-rotation="0"
     showborder="false"
     inkscape:pagecheckerboard="true" />
  <metadata
     id="metadata1906">image/svg+xml<rdf:RDF>
  <cc:Work
     rdf:about="">
    <dc:format>image/svg+xml</dc:format>
    <dc:type
       rdf:resource="http://purl.org/dc/dcmitype/StillImage" />
    <dc:title></dc:title>
    <cc:license
       rdf:resource="http://creativecommons.org/publicdomain/zero/1.0/" />
  </cc:Work>
  <cc:License
     rdf:about="http://creativecommons.org/publicdomain/zero/1.0/">
    <cc:permits
       rdf:resource="http://creativecommons.org/ns#Reproduction" />
    <cc:permits
       rdf:resource="http://creativecommons.org/ns#Distribution" />
    <cc:permits
       rdf:resource="http://creativecommons.org/ns#DerivativeWorks" />
  </cc:License>
</rdf:RDF>
</metadata>
  <g
     transform="matrix(-2.2697383,0.04198386,-0.03896733,-2.2698467,1423.6889,685.17662)"
     id="svg_1">
    <path
       style="fill:#ececec;fill-rule:evenodd;stroke:#000000;stroke-width:3"
       inkscape:connector-curvature="0"
       id="path3217"
       d="m 481.66812,67.248428 c -8.02402,6.942398 -69.69934,65.128842 -22.98169,176.556102 h 46.54151 0.17102 C 552.11639,132.37779 490.4415,74.199982 482.4173,67.257279 l -0.74918,-0.0088 z" />
    <path
       style="fill:#cccccc;fill-rule:nonzero;stroke-width:3;stroke-linecap:round;stroke-miterlimit:4"
       inkscape:connector-curvature="0"
       stroke-miterlimit="4"
       d="m 483.60232,139.38954 c -9.71862,0 -17.62307,8.60173 -17.62307,19.1668 0,10.56509 7.90445,19.15799 17.62307,19.15799 9.71866,0 17.6312,-8.5929 17.6312,-19.15799 0,-10.56507 -7.91254,-19.1668 -17.6312,-19.1668 z m 0,2.26637 c 8.59061,0 15.54639,7.5616 15.54639,16.90043 0,9.33883 -6.95578,16.8916 -15.54639,16.8916 -8.59063,0 -15.53829,-7.55277 -15.53829,-16.8916 3e-5,-9.33883 6.94766,-16.90043 15.53829,-16.90043 z"
       id="path3219" />
    <path
       style="fill:#ff0000;fill-rule:evenodd;stroke:#000000;stroke-width:3"
       inkscape:connector-curvature="0"
       d="m 450.56461,112.99554 11.31958,-22.607677 15.79473,-19.459793 4.47516,-3.720245 16.84775,19.173599 13.16223,23.180036 1.05304,4.86496 -62.91574,-0.28618"
       id="path2419" />
    <path
       style="fill:#ff0000;fill-rule:evenodd;stroke:#000000;stroke-width:3"
       inkscape:connector-curvature="0"
       d="m 444.24673,199.1337 c 0,0 -27.90408,-0.37778 -11.05633,76.69446 0,0 1.57947,-64.35379 16.32123,-56.41986"
       id="path2408" />
    <path
       style="fill:#ff0000;fill-rule:evenodd;stroke:#000000;stroke-width:3"
       inkscape:connector-curvature="0"
       id="path2410"
       d="m 519.91931,199.1337 c 0,0 27.90393,-0.37778 11.05628,76.69446 0,0 -1.57947,-64.35379 -16.32123,-56.41986" />
    <path
       style="fill:#b3b3b3;fill-rule:evenodd;stroke:#000000;stroke-width:3"
       inkscape:connector-curvature="0"
       d="m 451.88086,228.03723 6.84439,15.73953 46.85773,-0.28619 5.5281,-15.45334 z"
       id="path2423" />
    <path
       style="fill:#d20000;fill-rule:evenodd;stroke-width:3"
       inkscape:connector-curvature="0"
       d="m 526.37933,206.86041 -5.26489,14.30869 -3.15894,-2.86179 -3.68548,1.71704 5.00171,-21.46298 8.95037,4.86496 c 0,0 15.53144,11.73312 3.42218,70.11252 7.10761,-60.3826 -5.52819,-66.67844 -5.26495,-66.67844 z"
       id="path3209" />
    <path
       style="fill:#d20000;fill-rule:evenodd;stroke-width:3"
       inkscape:connector-curvature="0"
       d="m 432.40066,274.96967 c 0,0 -2.62188,-62.42981 15.26826,-62.67194 1.97418,-0.0267 1.84271,6.86813 1.84271,6.86813 l -7.10764,1.71704 -5.52814,18.88746 z"
       id="path3213" />
    <path
       style="fill:#999999;fill-rule:evenodd;stroke-width:3"
       inkscape:connector-curvature="0"
       d="m 493.94302,228.03854 c 1.05622,3.45911 1.68036,8.2858 1.37632,15.16526 0.2247,0.0861 0.4627,0.20685 0.70849,0.34527 l 9.55264,-0.062 4.45456,-12.44739 c -0.17968,-1.0635 -0.38726,-2.01275 -0.5863,-3.00116 z"
       id="path3232" />
    <path
       style="fill:#cccccc;fill-rule:evenodd;stroke-width:3"
       inkscape:connector-curvature="0"
       d="m 488.18735,196.77953 c -1.77692,-0.1431 -2.89917,0.15936 -2.89917,0.15936 l -1.31931,22.03522 c 0,0 6.3418,-1.36139 9.33274,8.02081 h 15.53827 c -5.04676,-25.58417 -15.54917,-29.80447 -20.65253,-30.21539 z"
       id="path3227" />
    <path
       style="fill:#cccccc;fill-rule:evenodd;stroke-width:3"
       inkscape:connector-curvature="0"
       d="m 452.62167,229.3186 5.21198,14.16486 7.29681,0.56662 -2.08478,-16.14798 z"
       id="path3241" />
    <path
       style="fill:none;fill-rule:evenodd;stroke:#000000;stroke-width:3"
       inkscape:connector-curvature="0"
       d="m 450.56461,113.5679 h 61.8627"
       id="path2394" />
    <path
       style="fill:#b3b3b3;fill-rule:nonzero;stroke:#000000;stroke-width:3;stroke-linecap:round;stroke-miterlimit:4"
       inkscape:connector-curvature="0"
       stroke-miterlimit="4"
       id="path2400"
       d="m 498.62714,156.85487 a 16.584475,18.028923 0 1 1 -33.16895,0 16.584475,18.028923 0 1 1 33.16895,0 z" />
    <path
       style="fill:#80e5ff;fill-rule:nonzero;stroke:#000000;stroke-width:3;stroke-linecap:round;stroke-miterlimit:4"
       inkscape:connector-curvature="0"
       stroke-miterlimit="4"
       d="m 492.83575,156.85487 a 10.793091,11.733133 0 1 1 -21.58618,0 10.793091,11.733133 0 1 1 21.58618,0 z"
       id="path2402" />
    <path
       style="fill:none;fill-rule:evenodd;stroke:#000000;stroke-width:3"
       inkscape:connector-curvature="0"
       d="m 453.67666,227.99668 h 58.44049"
       id="path2417" />
    <path
       style="fill:#ff0000;fill-rule:nonzero;stroke:#000000;stroke-width:3;stroke-linecap:round;stroke-miterlimit:4"
       inkscape:connector-curvature="0"
       stroke-miterlimit="4"
       d="m 479.67346,198.56137 h 4.73844 v 77.26679 h -4.73844 z"
       id="rect2414" />
    <path
       style="fill:#cccccc;fill-rule:evenodd;stroke-width:3"
       inkscape:connector-curvature="0"
       d="m 509.35697,226.15086 c 0,0 21.05969,-52.65588 4.21197,-103.30856 0.78974,89.85842 -21.84942,103.30856 -21.84942,103.30856 z"
       id="path2425" />
    <rect
       style="fill:#ffffff;fill-rule:nonzero;stroke-width:3;stroke-linecap:round;stroke-miterlimit:4"
       stroke-miterlimit="4"
       id="rect2429"
       width="34.470276"
       height="83.713531"
       x="672.60468"
       y="-389.67041"
       transform="matrix(0.18343478,0.20122734,-0.18343478,0.20122734,291.74655,87.84773)" />
    <path
       style="fill:none;fill-rule:nonzero;stroke:#000000;stroke-width:3;stroke-linecap:round;stroke-miterlimit:4"
       inkscape:connector-curvature="0"
       stroke-miterlimit="4"
       id="path2431"
       d="m 492.83575,156.85487 a 10.793091,11.733133 0 1 1 -21.58618,0 10.793091,11.733133 0 1 1 21.58618,0 z" />
    <path
       style="fill:#d20000;fill-rule:evenodd;stroke-width:3"
       inkscape:connector-curvature="0"
       d="m 506.1095,109.2753 c 0,0 -8.16068,-23.180055 -23.69214,-35.485505 14.21524,29.762035 6.84436,35.485505 6.84436,35.485505 z"
       id="path2437" />
    <path
       style="fill:none;fill-rule:evenodd;stroke:#000000;stroke-width:3"
       inkscape:connector-curvature="0"
       d="m 519.91931,199.1337 c 0,0 27.90393,-0.37778 11.05628,76.69446 0,0 -1.57947,-64.35379 -16.32123,-56.41986"
       id="path3211" />
    <path
       style="fill:none;fill-rule:evenodd;stroke:#000000;stroke-width:3"
       inkscape:connector-curvature="0"
       id="path3215"
       d="m 444.24673,199.1337 c 0,0 -27.90408,-0.37778 -11.05633,76.69446 0,0 1.57947,-64.35379 16.32123,-56.41986" />
    <path
       style="fill:#ffffff;fill-rule:evenodd;stroke-width:3"
       inkscape:connector-curvature="0"
       d="m 454.25006,108.41678 c 0,0 13.95203,-29.475862 25.53479,-37.202531 11.58286,-7.7267 -25.27154,37.774871 -25.53479,37.202531 z"
       id="path3237" />
    <path
       style="fill:#ffffff;fill-rule:evenodd;stroke-width:3"
       inkscape:connector-curvature="0"
       d="m 446.03223,186.74307 c -0.8245,-0.49765 -5.92191,-41.35026 6.70114,-66.77717 7.78332,-6.81024 18.37289,-3.22869 17.86972,-0.40473 -4.35901,24.46296 -19.66736,70.14168 -24.57086,67.1819 z"
       id="path3239" />
    <path
       style="fill:none;fill-rule:evenodd;stroke:#000000;stroke-width:3"
       inkscape:connector-curvature="0"
       d="m 481.66812,67.248428 c -8.02402,6.942398 -69.69934,65.128842 -22.98169,176.556102 h 46.54151 0.17102 C 552.11639,132.37779 490.4415,74.199982 482.4173,67.257279 l -0.74918,-0.0088 z"
       id="path2382" />
  </g>
  <path
     style="fill:#e73900;fill-rule:evenodd;stroke-width:2.13210028pt"
     inkscape:connector-curvature="0"
     d=""
     id="svg_1756" />
  <path
     style="fill:#e73900;fill-rule:evenodd;stroke-width:2.13209993pt"
     inkscape:connector-curvature="0"
     d=""
     id="svg_1755" />
  <path
     style="fill:#e73900;fill-rule:evenodd;stroke-width:2.13209993pt"
     inkscape:connector-curvature="0"
     d=""
     id="svg_1754" />
  <path
     style="fill:#e78c00;fill-rule:evenodd;stroke-width:2.13209957pt"
     inkscape:connector-curvature="0"
     d=""
     id="svg_1753" />
  <path
     style="fill:#e78c00;fill-rule:evenodd;stroke-width:2.13210028pt"
     inkscape:connector-curvature="0"
     d=""
     id="svg_1752" />
  <path
     style="fill:#e7e100;fill-rule:evenodd;stroke-width:2.13210028pt"
     inkscape:connector-curvature="0"
     d=""
     id="svg_1751" />
  <path
     style="fill:#e78c00;fill-rule:evenodd;stroke-width:2.13209993pt"
     inkscape:connector-curvature="0"
     d=""
     id="svg_1750" />
  <path
     style="fill:#e7e100;fill-rule:evenodd;stroke-width:2.13209921pt"
     inkscape:connector-curvature="0"
     d=""
     id="svg_1749" />
  <path
     style="fill:#e7e100;fill-rule:evenodd;stroke-width:2.13209921pt"
     inkscape:connector-curvature="0"
     d=""
     id="svg_1748" />
  <path
     style="fill:#ffff9e;fill-rule:evenodd;stroke-width:2.13210171pt"
     inkscape:connector-curvature="0"
     d=""
     id="svg_1747" />
  <path
     style="fill:#ffff9e;fill-rule:evenodd;stroke-width:2.13210171pt"
     inkscape:connector-curvature="0"
     d=""
     id="svg_1746" />
  <path
     style="fill:#ffff9e;fill-rule:evenodd;stroke-width:2.13210171pt"
     inkscape:connector-curvature="0"
     d=""
     id="svg_1745" />
  <path
     style="fill:#e73900;fill-rule:evenodd;stroke-width:2.13210028pt"
     inkscape:connector-curvature="0"
     d=""
     id="svg_13" />
  <path
     style="fill:#e73900;fill-rule:evenodd;stroke-width:2.13209993pt"
     inkscape:connector-curvature="0"
     d=""
     id="svg_12" />
  <path
     style="fill:#e73900;fill-rule:evenodd;stroke-width:2.13209993pt"
     inkscape:connector-curvature="0"
     d=""
     id="svg_11" />
  <path
     style="fill:#e78c00;fill-rule:evenodd;stroke-width:2.13209957pt"
     inkscape:connector-curvature="0"
     d=""
     id="svg_10" />
  <path
     style="fill:#e78c00;fill-rule:evenodd;stroke-width:2.13210028pt"
     inkscape:connector-curvature="0"
     d=""
     id="svg_9" />
  <path
     style="fill:#e7e100;fill-rule:evenodd;stroke-width:2.13210028pt"
     inkscape:connector-curvature="0"
     d=""
     id="svg_8" />
  <path
     style="fill:#e78c00;fill-rule:evenodd;stroke-width:2.13209993pt"
     inkscape:connector-curvature="0"
     d=""
     id="svg_7" />
  <path
     style="fill:#e7e100;fill-rule:evenodd;stroke-width:2.13209921pt"
     inkscape:connector-curvature="0"
     d=""
     id="svg_6" />
  <path
     style="fill:#e7e100;fill-rule:evenodd;stroke-width:2.13209921pt"
     inkscape:connector-curvature="0"
     d=""
     id="svg_5" />
  <path
     style="fill:#ffff9e;fill-rule:evenodd;stroke-width:2.13210171pt"
     inkscape:connector-curvature="0"
     d=""
     id="svg_4" />
  <g
     id="svg_1758"
     transform="matrix(2.1320995,0,0,2.1320995,-686.53718,-194.38429)" />
  <g
     id="svg_15"
     transform="matrix(2.1320995,0,0,2.1320995,-686.53718,-194.38429)">
    <path
       style="fill:#ffff9e;fill-rule:evenodd;stroke-width:1.0000011pt"
       inkscape:connector-curvature="0"
       d=""
       id="svg_3" />
    <path
       style="fill:#ffff9e;fill-rule:evenodd;stroke-width:1.0000011pt"
       inkscape:connector-curvature="0"
       d=""
       id="svg_2" />
  </g>
</svg>
