<?xml version="1.0" encoding="UTF-8" standalone="no"?>
<svg
   xmlns:dc="http://purl.org/dc/elements/1.1/"
   xmlns:cc="http://creativecommons.org/ns#"
   xmlns:rdf="http://www.w3.org/1999/02/22-rdf-syntax-ns#"
   xmlns:svg="http://www.w3.org/2000/svg"
   xmlns="http://www.w3.org/2000/svg"
   xmlns:sodipodi="http://sodipodi.sourceforge.net/DTD/sodipodi-0.dtd"
   xmlns:inkscape="http://www.inkscape.org/namespaces/inkscape"
   height="512"
   width="600.00403"
   version="1.1"
   id="svg4"
   sodipodi:docname="delivery_truck.svg"
   inkscape:version="1.0.2 (e86c870879, 2021-01-15, custom)">
  <metadata
     id="metadata10">
    <rdf:RDF>
      <cc:Work
         rdf:about="">
        <dc:format>image/svg+xml</dc:format>
        <dc:type
           rdf:resource="http://purl.org/dc/dcmitype/StillImage" />
      </cc:Work>
    </rdf:RDF>
  </metadata>
  <defs
     id="defs8" />
  <sodipodi:namedview
     pagecolor="#ffffff"
     bordercolor="#666666"
     borderopacity="1"
     objecttolerance="10"
     gridtolerance="10"
     guidetolerance="10"
     inkscape:pageopacity="0"
     inkscape:pageshadow="2"
     inkscape:window-width="1920"
     inkscape:window-height="1001"
     id="namedview6"
     showgrid="false"
     inkscape:zoom="0.49879808"
     inkscape:cx="548.42464"
     inkscape:cy="217.21501"
     inkscape:window-x="-9"
     inkscape:window-y="-9"
     inkscape:window-maximized="1"
     inkscape:current-layer="svg4" />
  <path
     d="M 400.00565,502.15385 A 9.9999187,9.8461539 0 0 1 390.00574,512 h -19.99985 a 9.9999187,9.8461539 0 1 1 0,-19.6923 h 19.99985 a 9.9999187,9.8461539 0 0 1 9.99991,9.84615 m 199.99835,0 A 9.9999187,9.8461539 0 0 1 590.00408,512 H 430.0054 a 9.9999187,9.8461539 0 1 1 0,-19.6923 h 159.99868 a 9.9999187,9.8461539 0 0 1 9.99992,9.84615 m -279.9977,0 A 9.9999187,9.8461539 0 0 1 310.00638,512 H 210.0072 a 9.9999187,9.8461539 0 1 1 0,-19.6923 h 99.99918 a 9.9999187,9.8461539 0 0 1 9.99992,9.84615 m -159.9987,0 A 9.9999187,9.8461539 0 0 1 150.00768,512 H 10.008819 a 9.9999187,9.8461539 0 1 1 0,-19.6923 H 150.00768 a 9.9999187,9.8461539 0 0 1 9.99992,9.84615 M 20.008738,305.23077 a 9.9999187,9.8461539 0 0 1 9.999919,-9.84615 h 28.399767 l -4.229966,-28.09108 a 9.9999187,9.8461539 0 0 1 8.419934,-11.18523 c 5.499957,-0.75815 10.559914,2.91446 11.369906,8.29046 l 4.669961,30.98585 h 71.369421 a 9.9999199,9.846155 0 1 1 0,19.69231 H 30.008657 a 9.9999187,9.8461539 0 0 1 -9.999919,-9.84616 m 9.999919,-88.61538 H 45.59853 l -4.229966,-28.09108 a 9.9999187,9.8461539 0 0 1 8.419932,-11.18523 9.9999187,9.8461539 0 0 1 11.359908,8.29046 l 4.679962,30.98585 h 84.179314 a 9.9999187,9.8461539 0 1 1 0,19.6923 H 30.008657 a 9.9999187,9.8461539 0 1 1 0,-19.6923 M 150.00768,413.53846 a 9.9999187,9.8461539 0 1 1 0,-19.6923 9.9999187,9.8461539 0 1 1 0,19.6923 m 0,-39.38461 c -16.53986,0 -29.99975,13.25292 -29.99975,29.53846 0,16.28554 13.45989,29.53846 29.99975,29.53846 16.53988,0 29.99976,-13.25292 29.99976,-29.53846 0,-16.28554 -13.45988,-29.53846 -29.99976,-29.53846 m 339.99724,39.38461 a 9.9999187,9.8461539 0 1 1 0,-19.6923 9.9999187,9.8461539 0 1 1 0,19.6923 m 0,-39.38461 c -16.53987,0 -29.99975,13.25292 -29.99975,29.53846 0,16.28554 13.45988,29.53846 29.99975,29.53846 16.53987,0 29.99976,-13.25292 29.99976,-29.53846 0,-16.28554 -13.45989,-29.53846 -29.99976,-29.53846 m 0,78.76923 c -27.56977,0 -49.9996,-22.08492 -49.9996,-49.23077 0,-27.14584 22.42983,-49.23077 49.9996,-49.23077 27.56978,0 49.99959,22.08493 49.99959,49.23077 0,27.14585 -22.42981,49.23077 -49.99959,49.23077 m 97.0692,-203.88431 -27.40976,-26.98831 -9.65991,-113.74277 c 0,-27.145844 -22.42984,-49.230768 -49.99961,-49.230768 H 430.0054 a 9.9999187,9.8461539 0 1 0 0,19.692306 h 69.99944 c 16.25986,0 29.99975,13.528614 30.02975,30.355692 l 9.09993,107.49047 h -32.94973 l 12.76989,-25.13723 a 10.004088,9.8502596 0 1 0 -17.89985,-8.80247 l -17.22986,33.9397 H 430.0054 a 9.9999187,9.8461539 0 1 0 0,19.6923 h 115.85905 l 27.06981,26.65354 c 5.69993,5.61231 7.04993,18.52062 7.06995,22.57723 v 108.3077 h -20.79983 c -4.86996,-33.34893 -33.99974,-59.07693 -69.19946,-59.07693 a 70.09943,69.021536 0 0 0 -69.99943,68.92308 70.09943,69.021536 0 0 0 69.99943,68.92308 c 35.19972,0 64.3295,-25.728 69.19946,-59.07693 h 30.7997 a 9.9999187,9.8461539 0 0 0 9.99992,-9.84615 V 285.53846 c 0,-2.432 -0.35992,-24.13292 -12.92988,-36.49969 M 150.00768,452.92308 c -27.56978,0 -49.99959,-22.08492 -49.99959,-49.23077 0,-27.14584 22.42981,-49.23077 49.99959,-49.23077 27.56978,0 49.9996,22.08493 49.9996,49.23077 0,27.14585 -22.42982,49.23077 -49.9996,49.23077 M 390.00574,0 H 70.008332 C 42.438555,0 20.008738,22.084918 20.008738,49.230767 a 10.399916,10.24 0 0 0 0.110004,1.457232 L 33.398633,137.84615 H 10.008819 a 9.9999203,9.8461555 0 1 0 0,19.69231 H 150.00768 a 9.9999203,9.8461555 0 1 0 0,-19.69231 H 53.618465 L 40.018575,48.551383 C 40.388572,32.580921 53.698464,19.692306 70.008332,19.692306 H 380.00581 V 393.84616 H 219.20712 c -4.86996,-33.34893 -33.99972,-59.07693 -69.19944,-59.07693 a 70.09943,69.021536 0 0 0 -69.999431,68.92308 70.09943,69.021536 0 0 0 69.999431,68.92308 c 35.19972,0 64.32948,-25.728 69.19944,-59.07693 h 170.79862 a 9.9999187,9.8461539 0 0 0 9.99991,-9.84615 V 9.84615 A 9.9999187,9.8461539 0 0 0 390.00574,0"
     fill-rule="evenodd"
     id="path2"
     style="stroke-width:9.92274" />
</svg>
