<svg height="512" viewBox="0 0 512.254 512.254" width="512" xmlns="http://www.w3.org/2000/svg"><path d="m512.127 256.127a10 10 0 0 0 -5.384-8.871l-96.463-50.192 96.463-50.192a10 10 0 0 0 0-17.742l-83.086-43.232a10 10 0 0 0 -13.487 4.255c-2.549 4.899-.645 10.938 4.255 13.487l66.037 34.36-224.335 116.727-224.335-116.727 224.335-116.727 78.467 40.828c4.903 2.549 10.938.643 13.487-4.255s.644-10.938-4.255-13.487l-83.083-43.23c-2.895-1.505-6.338-1.505-9.232 0l-246 128a10 10 0 0 0 0 17.742l96.463 50.192-96.463 50.193a10 10 0 0 0 0 17.742l96.463 50.192-96.463 50.193a10 10 0 0 0 0 17.742l246 128c1.447.752 3.031 1.129 4.616 1.129a9.99 9.99 0 0 0 4.616-1.129l246-128a10 10 0 0 0 0-17.742l-96.463-50.193 96.463-50.192a10 10 0 0 0 5.384-8.871zm-251.384 18.744 127.871-66.535 29.814 15.513-223.978 116.913-39.902-20.762 91.847-47.79 5.115 2.661c1.447.752 3.031 1.129 4.616 1.129a10.01 10.01 0 0 0 4.617-1.129zm-36.013-13.935-91.848 47.79-39.712-20.663 91.848-47.79zm-101.09-52.6 39.712 20.664-91.848 47.79-39.713-20.664zm356.822 165.918-224.335 116.727-224.335-116.727 91.848-47.79 127.871 66.535c1.447.752 3.031 1.129 4.616 1.129a9.99 9.99 0 0 0 4.616-1.129l127.871-66.535zm-224.335-1.4-40.033-20.83 223.979-116.912 40.389 21.015zm123-288.854c2.63 0 5.21-1.07 7.069-2.93a10.08 10.08 0 0 0 2.931-7.07c0-2.63-1.07-5.21-2.931-7.07s-4.439-2.93-7.069-2.93-5.21 1.07-7.07 2.93-2.93 4.44-2.93 7.07 1.069 5.21 2.93 7.07a10.08 10.08 0 0 0 7.07 2.93z"/></svg>