<svg height="682.667" viewBox="-69 0 512 512.002" width="682.667" xmlns="http://www.w3.org/2000/svg"><path d="m364.152 160.609-24.039-29.164c-3.301-4.004-5.309-8.848-5.801-14.008l-3.625-37.621c-1.883-19.547-17.437-35.102-36.984-36.984l-37.621-3.621c-5.16-.496-10.004-2.504-14.008-5.801l-29.164-24.043c-15.152-12.488-37.148-12.488-52.301 0l-29.164 24.043a25.83 25.83 0 0 1 -14.008 5.801l-37.621 3.621c-19.546 1.883-35.097 17.438-36.984 36.984l-3.621 37.621c-.496 5.16-2.504 10.004-5.801 14.008l-24.043 29.164c-12.488 15.152-12.488 37.148 0 52.301l24.043 29.164c3.297 4.004 5.305 8.848 5.801 14.008l3.621 37.621c1.883 19.547 17.438 35.098 36.984 36.984l22.996 2.215-54.637 130.559c-1.48 3.555-.812 7.555 1.746 10.438s6.445 4.02 10.141 2.969l47.402-13.383a.43.43 0 0 1 .5.199l23.738 43.164a9.86 9.86 0 0 0 8.699 5.152 11.41 11.41 0 0 0 .52-.012c3.84-.195 7.16-2.516 8.68-6.094l57.684-137.852a40.98 40.98 0 0 0 5.629-3.891l29.164-24.039a25.79 25.79 0 0 1 12.824-5.645l52.246 124.84-36.973-10.437a15.56 15.56 0 0 0 -17.922 7.496l-18.512 33.66-24.527-58.613c-1.621-3.871-6.066-5.691-9.937-4.074a7.59 7.59 0 0 0 -4.07 9.934l28.73 68.66a9.89 9.89 0 0 0 8.664 6.055c.176.008.348.016.52.016 3.633 0 6.934-1.941 8.699-5.156l23.734-43.156a.44.44 0 0 1 .5-.207l47.395 13.383c3.703 1.047 7.594-.09 10.148-2.969a9.89 9.89 0 0 0 1.742-10.445l-54.633-130.555 22.996-2.215c19.547-1.883 35.102-17.434 36.984-36.98l3.625-37.625c.492-5.16 2.5-10 5.801-14.004l24.039-29.164c12.492-15.152 12.492-37.148 0-52.301zm-224.371 329.418-18.516-33.668a15.55 15.55 0 0 0 -17.922-7.488l-36.969 10.434 52.242-124.836c4.719.672 9.137 2.598 12.828 5.641l29.164 24.043c7.578 6.246 16.863 9.367 26.152 9.367a39.55 39.55 0 0 0 1.789-.043zm212.656-286.773-24.039 29.164a40.94 40.94 0 0 0 -9.203 22.207l-3.621 37.621c-1.187 12.328-10.996 22.137-23.324 23.324l-33.047 3.184a4.41 4.41 0 0 0 -.391.039l-4.184.402a40.96 40.96 0 0 0 -22.211 9.199l-29.164 24.039c-9.555 7.879-23.43 7.879-32.984 0l-29.164-24.039c-6.344-5.23-14.023-8.414-22.211-9.199l-4.203-.406a5.22 5.22 0 0 0 -.348-.031l-33.07-3.187c-12.328-1.187-22.137-10.996-23.324-23.324l-3.621-37.617a40.94 40.94 0 0 0 -9.203-22.211l-24.039-29.164c-7.879-9.559-7.879-23.434 0-32.988l24.039-29.164a40.94 40.94 0 0 0 9.203-22.211l3.621-37.621c1.188-12.328 10.996-22.137 23.324-23.324l37.621-3.621a40.96 40.96 0 0 0 22.211-9.199l29.164-24.039c4.777-3.937 10.637-5.91 16.492-5.91s11.715 1.969 16.492 5.91l29.164 24.039c6.344 5.23 14.023 8.414 22.211 9.199l37.621 3.621c12.328 1.188 22.137 10.996 23.324 23.324l3.621 37.621a40.94 40.94 0 0 0 9.203 22.211l24.039 29.164c7.875 9.559 7.875 23.43 0 32.988zm-165.675-135.098a119.78 119.78 0 0 0 -15.172.961c-4.156.531-7.098 4.336-6.566 8.492a7.6 7.6 0 0 0 8.492 6.57 104.52 104.52 0 0 1 13.246-.84c57.027 0 103.422 46.395 103.422 103.422s-46.399 103.419-103.422 103.419-103.422-46.395-103.422-103.422c0-40.676 23.984-77.727 61.102-94.395 3.824-1.715 5.535-6.211 3.816-10.035a7.59 7.59 0 0 0 -10.035-3.816c-42.566 19.113-70.066 61.602-70.066 108.246 0 65.402 53.207 118.605 118.605 118.605s118.605-53.203 118.605-118.605-53.207-118.602-118.605-118.602zm-75.403 109.809c-9.051 9.051-9.051 23.781 0 32.832l33.16 33.164a23.07 23.07 0 0 0 16.418 6.797 23.08 23.08 0 0 0 16.418-6.797l72.387-72.391c9.051-9.055 9.051-23.781 0-32.836s-23.781-9.051-32.836 0l-55.969 55.973-16.746-16.742c-9.051-9.051-23.781-9.051-32.832 0zm49.578 35.074a7.59 7.59 0 0 0 5.367-2.227l61.34-61.34c3.133-3.133 8.227-3.129 11.359 0s3.133 8.23 0 11.359l-72.387 72.391c-1.516 1.516-3.535 2.352-5.68 2.352s-4.164-.836-5.68-2.352l-33.164-33.16a8.05 8.05 0 0 1 0-11.359c1.566-1.566 3.625-2.352 5.684-2.352a8.01 8.01 0 0 1 5.676 2.348l22.113 22.113a7.59 7.59 0 0 0 5.371 2.227zm0 0"/></svg>