<?xml version="1.0" standalone="no"?>
<!DOCTYPE svg PUBLIC "-//W3C//DTD SVG 1.1//EN" "http://www.w3.org/Graphics/SVG/1.1/DTD/svg11.dtd" >
<svg xmlns="http://www.w3.org/2000/svg" xmlns:xlink="http://www.w3.org/1999/xlink" version="1.1">
<metadata></metadata>
<defs>
<font id="chonburiregular" horiz-adv-x="1527" >
<font-face units-per-em="2048" ascent="1536" descent="-512" />
<missing-glyph horiz-adv-x="593" />
<glyph unicode="&#xfb01;" horiz-adv-x="1585" d="M41 942v53h133v47q0 229 170 341t485 112q133 0 265.5 -20.5t224.5 -53.5l-82 -303h-63q-55 158 -135.5 243t-217.5 85q-104 0 -156.5 -49t-68.5 -139.5t-16 -245.5v-17h831v-897q0 -23 9.5 -31t39.5 -14l72 -16v-37h-651v37l71 16q31 6 40 14.5t9 30.5v844h-421v-842 q0 -23 9 -31t40 -14l76 -18v-37h-652v37l72 16q31 6 40 14.5t9 30.5v844h-133z" />
<glyph unicode="&#xfb02;" horiz-adv-x="1601" d="M41 942v53h133v47q0 227 166 340t463 113q158 0 336 -41l254 41h39v-1397q0 -23 9 -31t40 -14l71 -16v-37h-651v37l72 16q31 6 40 14.5t9 30.5v1295q-82 53 -201 53q-104 0 -156.5 -49t-68.5 -139.5t-16 -245.5v-17h237v-53h-237v-842q0 -23 9 -31t40 -14l76 -18v-37 h-652v37l72 16q31 6 40 14.5t9 30.5v844h-133z" />
<glyph horiz-adv-x="1024" />
<glyph horiz-adv-x="1024" />
<glyph unicode="&#xd;" horiz-adv-x="532" />
<glyph unicode=" "  horiz-adv-x="593" />
<glyph unicode="&#x09;" horiz-adv-x="593" />
<glyph unicode="&#xa0;" horiz-adv-x="593" />
<glyph unicode="!" horiz-adv-x="581" d="M98 1382q23 35 73 53.5t120 18.5t120 -18.5t72 -53.5l-159 -929h-66zM119 152q0 70 50 118.5t122 48.5t122 -49t50 -118q0 -70 -50.5 -119t-121.5 -49q-72 0 -122 49t-50 119z" />
<glyph unicode="&#x22;" horiz-adv-x="942" d="M106 1432q61 23 150 22q88 0 150 -22l-125 -549h-50zM537 1432q61 23 149 22q88 0 150 -22l-125 -549h-49z" />
<glyph unicode="#" horiz-adv-x="1327" d="M57 451v49l320 4l61 426l-311 4v49l319 4l64 447h65l-65 -447l420 6l63 441h66l-64 -441l275 4v-77l-285 2l-59 -412l274 4v-78l-285 2l-61 -438h-66l62 440l-416 4l-63 -444h-66l64 446zM442 504l418 6l60 414l-418 4z" />
<glyph unicode="$" horiz-adv-x="1392" d="M115 1063q0 188 127 286.5t403 106.5v182h62v-180q131 -2 254.5 -28.5t207.5 -65.5l-28 -313h-60q-43 121 -86 192.5t-111.5 113.5t-176.5 46v-475l92 -43q199 -96 287 -150.5t140 -137.5t52 -216q0 -193 -138.5 -294t-432.5 -110v-182h-62v180q-131 2 -282.5 30 t-235.5 69l35 360h57q31 -160 88.5 -248t139 -121.5t198.5 -33.5v504l-61 28q-178 78 -269.5 133.5t-145.5 142.5t-54 224zM406 1227q0 -90 51 -144.5t188 -124.5v443q-240 -10 -239 -174zM707 33q104 10 163.5 61t59.5 135q0 93 -51.5 154t-171.5 123v-473z" />
<glyph unicode="%" horiz-adv-x="1675" d="M82 1110q0 156 91 248t253 92t253 -92t91 -248t-91 -248t-253 -92t-253 92t-91 248zM313 1110q0 -158 23.5 -230.5t89.5 -72.5t89.5 72.5t23.5 230.5t-23.5 230.5t-89.5 72.5t-89.5 -72.5t-23.5 -230.5zM397 0l820 1434h61l-819 -1434h-62zM905 324q0 156 91 248t253 92 t253 -92.5t91 -247.5q0 -156 -91 -248t-253 -92t-253 92t-91 248zM1137 324q0 -158 23.5 -231t88.5 -73q66 0 89.5 73t23.5 231t-23.5 230.5t-89.5 72.5t-89 -73t-23 -230z" />
<glyph unicode="&#x26;" horiz-adv-x="1708" d="M102 367q0 299 340 426q-92 133 -92 256q0 178 125 293.5t367 115.5q236 0 383 -82l-51 -280h-60q-45 145 -67.5 197.5t-66.5 81t-134 28.5q-180 0 -180 -150q0 -70 45 -156.5t112 -166.5l396 -471l223 311h-101v45h301v-41l-79 -6q-31 -2 -47.5 -11t-34.5 -34l-228 -305 l269 -320q20 -23 37.5 -35t39.5 -14l76 -8v-41h-573l-101 119q-94 -84 -185 -114t-218 -30q-240 0 -368 96.5t-128 295.5zM416 477q0 -201 81 -303t210 -102q81 0 144.5 21.5t117.5 64.5l-480 573l-14 17q-31 -43 -45 -108t-14 -163z" />
<glyph unicode="'" horiz-adv-x="512" d="M106 1432q61 23 150 22q88 0 150 -22l-125 -549h-50z" />
<glyph unicode="(" horiz-adv-x="798" d="M135 696q0 324 140.5 542t426.5 388l31 -31q-129 -86 -197.5 -201.5t-94 -278.5t-25.5 -419t25.5 -418.5t94 -278.5t197.5 -202l-31 -30q-287 170 -427 388t-140 541z" />
<glyph unicode=")" horiz-adv-x="798" d="M66 -203q129 86 197.5 202t94 278.5t25.5 418.5t-25.5 419t-94 278.5t-197.5 201.5l30 31q287 -170 427.5 -388t140.5 -542q0 -323 -140.5 -541t-427.5 -388z" />
<glyph unicode="*" horiz-adv-x="1130" d="M115 1114q0 76 32 131l400 -139l-70 416q35 14 88 14t88 -14l-71 -416l401 139q33 -55 33 -131q0 -14 -4 -43h-420l313 -278q-16 -35 -55 -67t-78 -44l-207 362l-207 -362q-39 12 -77.5 44t-55.5 67l312 278h-418q-4 29 -4 43z" />
<glyph unicode="+" horiz-adv-x="1167" d="M152 643v57h401v404h61v-404h402v-57h-402v-403h-61v403h-401z" />
<glyph unicode="," horiz-adv-x="548" d="M98 156q0 70 46 116.5t126 46.5q82 0 131.5 -46t49.5 -134q0 -119 -72 -240.5t-176 -203.5l-41 43q133 141 133 266q-14 -2 -39 -2q-78 0 -118 44t-40 110z" />
<glyph unicode="-" horiz-adv-x="638" d="M82 541v57h475v-57h-475z" />
<glyph unicode="." horiz-adv-x="548" d="M102 152q0 70 50.5 118.5t121.5 48.5q72 0 122 -49t50 -118q0 -70 -50 -119t-122 -49q-71 0 -121.5 49t-50.5 119z" />
<glyph unicode="/" horiz-adv-x="614" d="M61 -25l431 1483h61l-430 -1483h-62z" />
<glyph unicode="0" horiz-adv-x="1593" d="M106 717q0 240 90.5 406.5t247 250.5t353.5 84q196 0 353 -84t247 -251t90 -406q0 -240 -90 -407t-247 -251t-353 -84q-197 0 -353.5 84t-247 251t-90.5 407zM559 717q0 -344 51.5 -513t186.5 -169t186 169t51 513t-51 513t-186 169t-186.5 -169t-51.5 -513z" />
<glyph unicode="1" horiz-adv-x="1052" d="M123 0v41l162 20q31 6 40 14.5t9 33.5v1155h-205v45q311 37 582 149l41 -20v-1332q0 -23 9 -31.5t38 -13.5l143 -20v-41h-819z" />
<glyph unicode="2" horiz-adv-x="1351" d="M66 41q373 254 534.5 520t161.5 506q0 137 -58.5 213t-175.5 76q-111 0 -205 -35t-200 -104l-25 38q281 203 619 203q252 0 363.5 -106.5t111.5 -298.5q0 -242 -197.5 -424.5t-480.5 -329.5h616q23 0 31 9t15 40l16 76h41v-424h-1149z" />
<glyph unicode="3" horiz-adv-x="1290" d="M66 63l28 340h47q35 -117 74 -192.5t107.5 -124.5t179.5 -49q137 0 202.5 82t65.5 264q0 160 -73.5 253t-221.5 93h-84v62h86q129 0 188.5 71.5t59.5 218.5q0 143 -67.5 211t-204.5 68q-180 0 -361 -107l-24 39q121 80 260 123t321 43q223 0 358.5 -91t135.5 -259 q0 -121 -91 -213t-251 -133q186 -27 290.5 -123t104.5 -248q0 -225 -164 -318t-493 -93q-143 0 -271.5 22.5t-201.5 60.5z" />
<glyph unicode="4" horiz-adv-x="1388" d="M41 373l950 1061h150v-1051h190v-57h-190v-220q0 -23 9 -31.5t38 -13.5l143 -20v-41h-819v41l162 20q31 6 40 14.5t9 33.5v217h-670zM131 383h592v659z" />
<glyph unicode="5" horiz-adv-x="1298" d="M66 63l28 340h47q35 -117 73 -192.5t105.5 -124.5t174.5 -49q141 0 210.5 101.5t69.5 279.5q0 186 -72.5 289.5t-259.5 103.5q-121 0 -239 -33h-58l50 656h886v-299h-843l-23 -299q86 23 155.5 30.5t166.5 7.5q362 0 512.5 -115.5t150.5 -322.5q0 -242 -170 -349 t-495 -107q-144 0 -270 22.5t-199 60.5z" />
<glyph unicode="6" horiz-adv-x="1437" d="M115 578q0 223 102 409.5t320.5 312t549.5 160.5l17 -47q-238 -53 -356.5 -186t-157.5 -369q119 49 258 49q162 0 277.5 -55t175 -154.5t59.5 -226.5q0 -154 -74 -265.5t-209 -171t-317 -59.5q-199 0 -344.5 77t-223 213t-77.5 313zM565 494q0 -213 40 -339t161 -126 q109 0 162 103.5t53 295.5q0 193 -51 296t-187 103q-85 1 -163 -36q-14 -123 -15 -297z" />
<glyph unicode="7" horiz-adv-x="1228" d="M74 1010v424h1071l22 -31q-206 -320 -321 -665t-174 -738h-418q47 270 243.5 572t436.5 563h-758q-23 0 -31 -9.5t-14 -40.5l-16 -75h-41z" />
<glyph unicode="8" horiz-adv-x="1396" d="M98 311q0 123 88 216.5t246 131.5q-150 78 -214 178.5t-64 221.5q0 193 144 296t388 103q229 0 377.5 -84t148.5 -241q0 -119 -96 -191t-252 -106l84 -39q188 -88 269 -184.5t81 -231.5q0 -203 -179 -304.5t-447 -101.5q-264 0 -419 84t-155 252zM410 342 q0 -147 73.5 -230t216.5 -83q127 0 197 56t70 165q0 90 -60.5 147.5t-206.5 128.5l-192 95q-98 -86 -98 -279zM453 1214q0 -84 30.5 -138t81.5 -88t146 -79l104 -51q131 111 131 301q0 123 -67.5 184.5t-184.5 61.5q-242 0 -241 -191z" />
<glyph unicode="9" horiz-adv-x="1437" d="M86 963q0 154 73.5 265t209 170.5t317.5 59.5q199 0 344.5 -76.5t223 -213t77.5 -312.5q0 -223 -102.5 -409.5t-320.5 -312.5t-550 -161l-16 47q238 54 356.5 187t157.5 368q-119 -49 -258 -49q-162 0 -277.5 55.5t-175 155t-59.5 226.5zM465 1006q0 -193 51 -296.5 t186 -103.5q86 0 164 37q14 123 15 297q0 213 -40 339t-161 126q-109 0 -162 -103.5t-53 -295.5z" />
<glyph unicode=":" horiz-adv-x="598" d="M127 152q0 70 50 118.5t122 48.5t122 -49t50 -118q0 -70 -50 -119t-122 -49t-122 49t-50 119zM127 852q0 70 50 119t122 49t122 -49t50 -119t-50 -119t-122 -49t-122 49t-50 119z" />
<glyph unicode=";" horiz-adv-x="598" d="M123 156q0 70 46 116.5t126 46.5q82 0 131 -46t49 -134q0 -119 -71.5 -240.5t-176.5 -203.5l-41 43q133 141 133 266q-13 -2 -38 -2q-78 0 -118 44t-40 110zM127 852q0 70 50 119t122 49t122 -49t50 -119t-50 -119t-122 -49t-122 49t-50 119z" />
<glyph unicode="&#x3c;" horiz-adv-x="1167" d="M176 549v41l754 454l33 -55l-711 -420l711 -419l-33 -56z" />
<glyph unicode="=" horiz-adv-x="1171" d="M152 459v57h864v-57h-864zM152 827v58h864v-58h-864z" />
<glyph unicode="&#x3e;" horiz-adv-x="1167" d="M205 150l710 419l-710 420l33 55l753 -454v-41l-753 -455z" />
<glyph unicode="?" horiz-adv-x="1159" d="M61 1272q125 90 254 138t324 48q211 0 322.5 -81t111.5 -240q0 -190 -132 -285.5t-339 -130.5l-27 -268h-57l-22 268q188 149 188 397q0 238 -233 238q-113 0 -192 -29t-173 -94zM375 152q0 70 50 118.5t122 48.5t122 -49t50 -118q0 -70 -50.5 -119t-121.5 -49 q-72 0 -122 49t-50 119z" />
<glyph unicode="@" horiz-adv-x="2148" d="M119 467q0 272 138 478t380 318.5t545 112.5q395 0 621.5 -186t226.5 -551q0 -180 -56.5 -316.5t-161 -211t-247.5 -74.5t-207 32.5t-84 100.5q-137 -133 -342 -133q-119 0 -185.5 54t-66.5 165q0 113 65.5 177.5t192.5 91t336 32.5v133q0 102 -38 144.5t-138 42.5 q-82 0 -151.5 -23t-145.5 -68l-25 37q86 61 207 98t274 37q205 0 293 -80.5t88 -232.5v-369q0 -79 15.5 -100.5t56.5 -21.5q57 0 116.5 56t98.5 162.5t39 250.5q0 219 -92 359t-243.5 203.5t-334.5 63.5q-256 0 -449.5 -101t-300 -284.5t-106.5 -421.5q0 -354 202 -521 t564 -167q145 0 288.5 48t252.5 135l33 -52q-125 -100 -292 -154.5t-366 -54.5q-264 0 -491.5 82t-368.5 259.5t-141 449.5zM1038 281q0 -70 21.5 -98.5t75.5 -28.5q39 0 69.5 18t69.5 57v279q-102 -8 -152.5 -33.5t-67 -70t-16.5 -123.5z" />
<glyph unicode="A" horiz-adv-x="1572" d="M37 0v41l76 8q25 2 35 12.5t22 36.5l567 1358h66l600 -1358q12 -27 22.5 -37t34.5 -12l76 -8v-41h-676v41l88 8q29 4 29 23q0 10 -6 24l-135 299h-476l-122 -299q-6 -14 -7 -24q0 -18 29 -23l88 -8v-41h-311zM385 457h424l-221 489z" />
<glyph unicode="B" horiz-adv-x="1515" d="M53 0v41l76 16q31 6 40 14.5t9 30.5v1229q0 23 -9 31t-40 14l-76 17v41h629q248 0 392.5 -33t209 -104.5t64.5 -194.5q0 -164 -98.5 -242t-313.5 -100q176 -14 282.5 -55t156.5 -120t50 -208q0 -143 -77.5 -225t-240.5 -117t-437 -35h-617zM596 61h92q315 0 316 316 q0 184 -66 266t-233 82h-109v-664zM596 786h100q127 0 188.5 78t61.5 238q0 137 -60.5 203.5t-189.5 66.5h-100v-586z" />
<glyph unicode="C" horiz-adv-x="1544" d="M115 737q0 371 220 546t576 175q143 0 282.5 -26.5t219.5 -65.5l-29 -352h-57q-57 174 -154.5 279.5t-259.5 105.5q-186 0 -267 -152.5t-81 -455.5q0 -358 104.5 -535.5t366.5 -177.5q113 0 204 37t173 102l41 -45q-90 -84 -234.5 -140.5t-318.5 -56.5q-344 0 -565 181.5 t-221 580.5z" />
<glyph unicode="D" horiz-adv-x="1675" d="M53 0v41l76 16q31 6 40 14.5t9 30.5v1229q0 23 -9 31t-40 14l-76 17v41h627q430 0 655.5 -162t225.5 -555t-225.5 -555t-655.5 -162h-627zM596 61h84q170 0 262 60.5t129 200t37 395.5t-37 395t-129 199.5t-262 60.5h-84v-1311z" />
<glyph unicode="E" horiz-adv-x="1474" d="M53 0v41l76 16q31 6 40 14.5t9 30.5v1229q0 23 -9 31t-40 14l-76 17v41h1262v-400h-51q-43 133 -81 201t-105.5 102.5t-190.5 34.5h-291v-608h528v-62h-528v-641h311q121 0 190.5 37t109.5 106.5t83 203.5h53v-408h-1290z" />
<glyph unicode="F" horiz-adv-x="1380" d="M53 0v41l76 16q31 6 40 14.5t9 30.5v1229q0 23 -9 31t-40 14l-76 17v41h1237v-400h-51q-43 133 -81 201t-105.5 102.5t-190.5 34.5h-266v-608h512v-62h-512v-598q0 -23 9 -30.5t40 -14.5l88 -18v-41h-680z" />
<glyph unicode="G" horiz-adv-x="1617" d="M115 737q0 371 223 546t588 175q152 0 294 -26.5t222 -65.5l-29 -352h-57q-57 174 -156.5 279.5t-271.5 105.5q-195 0 -279 -152.5t-84 -455.5q0 -263 47 -421.5t154.5 -232.5t290.5 -74h65v504h-202v62h559v-539q-45 -8 -107.5 -23.5t-95.5 -23.5q-135 -35 -216 -51.5 t-151 -16.5q-219 0 -397 75t-287.5 245t-109.5 442z" />
<glyph unicode="H" horiz-adv-x="1728" d="M53 0v41l76 16q31 6 40 14.5t9 30.5v1229q0 23 -9 31t-40 14l-76 17v41h664v-41l-74 -17q-29 -4 -38 -12t-9 -31v-569h537v569q0 23 -9.5 31t-38.5 12l-73 17v41h663v-41l-76 -17q-31 -6 -40 -14t-9 -31v-1229q0 -23 9.5 -31t39.5 -14l76 -16v-41h-663v41l73 16 q29 6 38.5 13.5t9.5 29.5v602h-537v-602q0 -23 9 -30t38 -13l74 -16v-41h-664z" />
<glyph unicode="I" horiz-adv-x="790" d="M61 0v41l76 16q31 6 40 14.5t9 30.5v1229q0 23 -9 31t-40 14l-76 17v41h668v-41l-76 -17q-31 -6 -40 -14t-9 -31v-1229q0 -23 9.5 -31t39.5 -14l76 -16v-41h-668z" />
<glyph unicode="J" horiz-adv-x="1273" d="M106 61l48 361h53q27 -160 64.5 -245t88 -115.5t125.5 -30.5q74 0 117 32.5t63.5 117.5t20.5 241v907q0 23 -9 31t-40 14l-88 19v41h680v-41l-76 -17q-31 -6 -40 -14t-9 -31v-868q0 -258 -165 -373t-437 -115q-86 0 -197.5 24t-198.5 62z" />
<glyph unicode="K" horiz-adv-x="1613" d="M53 0v41l76 16q31 6 40 14.5t9 30.5v1229q0 23 -9 31t-40 14l-76 17v41h664v-41l-74 -17q-29 -4 -38 -12t-9 -31v-581l676 585q16 14 16 31q0 14 -22 18l-88 9v39h366v-41l-86 -7q-35 -2 -54.5 -13t-49.5 -38l-480 -415q35 -15 61 -39.5t54 -65.5l449 -715 q16 -25 28.5 -34t34.5 -11l88 -14v-41h-432q-55 0 -86 17.5t-53 52.5l-383 643l-39 -35v-578q0 -23 9 -30t38 -13l74 -16v-41h-664z" />
<glyph unicode="L" horiz-adv-x="1368" d="M53 0v41l76 16q31 6 40 14.5t9 30.5v1229q0 23 -9 31t-40 14l-76 17v41h680v-41l-88 -19q-31 -6 -40 -14t-9 -31v-1268h258q121 0 188.5 37t105.5 104.5t85 205.5h57v-408h-1237z" />
<glyph unicode="M" horiz-adv-x="1970" d="M53 0v41l76 16q31 6 40 14.5t9 30.5v1229q0 23 -9 31t-40 14l-76 17v41h525l421 -912l377 912h541v-41l-76 -17q-31 -6 -40 -14t-9 -31v-1229q0 -23 9 -31t40 -14l76 -16v-41h-664v41l74 16q29 6 38 13.5t9 29.5v1160l-520 -1260h-61l-549 1206v-1106q0 -23 9 -30t38 -13 l74 -16v-41h-312z" />
<glyph unicode="N" horiz-adv-x="1523" d="M53 0v41l76 16q31 6 40 14.5t9 30.5v1229q0 23 -9 31t-40 14l-76 17v41h568l659 -832v731q0 23 -9 30t-38 13l-74 17v41h311v-41l-75 -17q-31 -6 -40 -14t-9 -31v-1331h-74l-1028 1300v-1200q0 -23 9 -30t38 -13l74 -16v-41h-312z" />
<glyph unicode="O" horiz-adv-x="1748" d="M115 717q0 389 207.5 565t551.5 176q347 0 553.5 -175t206.5 -566t-206.5 -566.5t-553.5 -175.5q-346 0 -552.5 175.5t-206.5 566.5zM567 717q0 -256 24.5 -401.5t91.5 -213t191 -67.5q125 0 192 67.5t91.5 213t24.5 401.5t-24.5 401.5t-91.5 213t-192 67.5t-191.5 -67.5 t-91 -213t-24.5 -401.5z" />
<glyph unicode="P" horiz-adv-x="1515" d="M53 0v41l76 16q31 6 40 14.5t9 30.5v1229q0 23 -9 31t-40 14l-76 17v41h596q279 0 445 -40t244.5 -133.5t78.5 -259.5q0 -165 -78.5 -258.5t-244.5 -133.5t-445 -40h-53v-465q0 -23 9 -30.5t40 -14.5l88 -18v-41h-680zM596 631h72q121 0 189.5 37t99 116.5t30.5 216.5 t-30.5 217t-99.5 117t-189 37h-72v-741z" />
<glyph unicode="Q" horiz-adv-x="1753" d="M115 725q0 389 206.5 561t552.5 172q347 0 553.5 -172t206.5 -561t-206.5 -561t-553.5 -172q-346 0 -552.5 172t-206.5 561zM455 -184q76 102 198 102q55 0 118 -13.5t171 -43.5q109 -31 187.5 -48.5t152.5 -17.5q35 0 56.5 15.5t45.5 48.5l17 22l45 -10 q-43 -168 -101.5 -250t-154.5 -82q-78 0 -142.5 26.5t-162.5 82.5q-117 68 -211 103.5t-219 39.5v25zM567 725q0 -256 24.5 -398.5t91.5 -209t191 -66.5q125 0 192 66.5t91.5 209t24.5 398.5t-24.5 398.5t-91.5 209t-192 66.5t-191.5 -66.5t-91 -209t-24.5 -398.5z" />
<glyph unicode="R" horiz-adv-x="1630" d="M53 0v41l76 16q31 6 40 14.5t9 30.5v1229q0 23 -9 31t-40 14l-76 17v41h602q274 0 436 -36t236 -118t74 -223q0 -158 -94.5 -243t-305.5 -116q121 -8 194 -38.5t114 -97t63 -183.5l23 -123q16 -88 23 -119t20.5 -47t42.5 -16q51 0 86 76l43 -37q-29 -59 -87.5 -96 t-189.5 -37t-206.5 28.5t-118.5 101t-66 209.5l-24 154q-17 100 -38.5 140t-68.5 53.5t-156 13.5h-59v-576q0 -23 9 -30.5t40 -14.5l88 -18v-41h-680zM596 741h78q119 0 183.5 33t89 100.5t24.5 182.5t-24.5 182.5t-89 100t-183.5 32.5h-78v-631z" />
<glyph unicode="S" horiz-adv-x="1388" d="M115 1063q0 197 139 296t442 99q135 0 261 -26.5t212 -67.5l-49 -313h-55q-39 125 -81 198.5t-113.5 113.5t-190.5 40q-270 0 -270 -176q0 -72 32.5 -119t98 -85t217.5 -112l41 -18q190 -92 281 -149.5t144.5 -142.5t53.5 -220q0 -201 -150.5 -303.5t-472.5 -102.5 q-129 0 -285.5 29t-242.5 70l55 360h54q27 -160 80 -248t132.5 -121.5t196.5 -33.5q133 0 207 51t74 147q0 78 -34 129.5t-103.5 94.5t-204.5 102q-172 76 -266.5 134.5t-148.5 147.5t-54 226z" />
<glyph unicode="T" horiz-adv-x="1482" d="M53 1020v414h1377v-414h-46q-53 143 -88.5 208.5t-104.5 106.5t-194 41h-47v-1274q0 -22 9.5 -30.5t39.5 -14.5l76 -16v-41h-667v41l75 16q31 6 40 14.5t9 30.5v1274h-47q-125 0 -193.5 -41t-104 -106.5t-89.5 -208.5h-45z" />
<glyph unicode="U" horiz-adv-x="1544" d="M41 1393v41h664v-41l-74 -17q-29 -6 -38 -13t-9 -30v-829q0 -174 24.5 -270.5t95 -142.5t207.5 -46q197 0 301.5 129t104.5 342v815q0 23 -9.5 31t-39.5 14l-76 17v41h311v-41l-73 -17q-29 -6 -38.5 -13t-9.5 -30v-801q-4 -258 -139 -407.5t-436 -149.5 q-328 0 -484.5 133.5t-156.5 432.5v790q0 23 -9.5 31t-39.5 14z" />
<glyph unicode="V" horiz-adv-x="1560" d="M37 1393v41h676v-41l-84 -9q-31 -4 -31 -30q0 -12 6 -25l373 -840l346 848q6 16 6 25q0 18 -29 22l-88 9v41h312v-41l-76 -9q-25 -2 -35 -12t-22 -37l-562 -1358h-65l-594 1358q-12 27 -22.5 37t-34.5 12z" />
<glyph unicode="W" horiz-adv-x="2347" d="M45 1393v41h672v-41l-80 -9q-29 -4 -29 -32q0 -6 4 -23l312 -811l219 606l-84 211q-10 27 -21.5 36t-36.5 13l-71 9v41h672v-41l-84 -9q-29 -4 -29 -32q0 -6 4 -23l311 -811l297 819q6 16 6 23q0 23 -30 24l-86 9v41h311v-41l-76 -9q-25 -2 -35 -12t-22 -37l-500 -1358 h-65l-426 1059l-390 -1059h-65l-545 1358q-10 27 -21.5 36t-35.5 13z" />
<glyph unicode="X" horiz-adv-x="1675" d="M41 1393v41h711v-41l-82 -9q-27 -2 -27 -20q0 -14 12 -31l279 -415l336 419q10 14 10 23q0 10 -8 17t-23 9l-90 9v39h361v-41l-78 -7q-35 -2 -50.5 -12t-39.5 -39l-381 -471l516 -766q18 -27 30.5 -37t34.5 -12l82 -8v-41h-710v41l82 8q27 2 26 21q0 16 -12 30l-328 486 l-383 -490q-10 -14 -10 -22q0 -10 8 -17.5t23 -9.5l90 -8v-39h-361v41l78 6q35 2 52.5 14.5t37.5 36.5l430 541l-469 696q-18 27 -30.5 37t-34.5 12z" />
<glyph unicode="Y" horiz-adv-x="1474" d="M8 1393v41h666v-41l-82 -9q-29 -2 -29 -24q0 -12 8 -27l328 -618l365 622q4 13 4 15q0 14 -12.5 23t-28.5 11l-97 9v39h340v-41l-63 -7q-33 -2 -45 -13t-29 -38l-391 -671v-562q0 -23 9.5 -31t39.5 -14l76 -16v-41h-668v41l76 16q31 6 40 14.5t9 30.5v549l-377 684 q-14 25 -26 36t-33 13z" />
<glyph unicode="Z" horiz-adv-x="1560" d="M119 0v53l844 1319h-318q-123 0 -190.5 -34.5t-105.5 -102.5t-81 -201h-51v400h1213v-54l-846 -1319h411q123 0 190.5 36t105.5 104.5t81 206.5h51v-408h-1304z" />
<glyph unicode="[" horiz-adv-x="770" d="M217 -209v1811h459v-62h-187v-1687h187v-62h-459z" />
<glyph unicode="\" horiz-adv-x="614" d="M61 1458h62l430 -1483h-61z" />
<glyph unicode="]" horiz-adv-x="770" d="M94 -147h187v1687h-187v62h459v-1811h-459v62z" />
<glyph unicode="^" horiz-adv-x="1126" d="M102 651l441 807h41l440 -807h-63l-398 731l-397 -731h-64z" />
<glyph unicode="_" horiz-adv-x="1064" d="M0 -160h1065v-57h-1065v57z" />
<glyph unicode="`" horiz-adv-x="901" d="M215 1292q2 57 35 106.5t80 71.5q61 -63 161.5 -140t118.5 -91l78 -57l-10 -23q-102 16 -238.5 54t-224.5 79z" />
<glyph unicode="a" horiz-adv-x="1318" d="M78 227q0 127 74.5 199t218 102.5t381.5 36.5v150q0 115 -45 165t-158 50q-94 0 -175 -25.5t-165 -77.5l-27 39q98 70 236.5 112t310.5 42q231 0 329.5 -91t98.5 -263v-568q0 -23 9.5 -31t39.5 -14l72 -16v-37h-422q-57 0 -80.5 23.5t-23.5 78.5v11q-137 -133 -392 -133 q-133 0 -207.5 60t-74.5 187zM475 256q0 -78 27.5 -112.5t87.5 -34.5h2q87 0 160 69v332q-115 -8 -174.5 -36t-81 -79t-21.5 -139z" />
<glyph unicode="b" d="M49 0v37l72 16q31 6 40 14.5t9 30.5v1237q0 23 -9 31t-40 14l-72 17v37l492 61h39v-577q137 102 352 102q227 0 360 -124t133 -388q0 -274 -134 -403.5t-359 -129.5q-229 0 -357 140v-115h-526zM580 178q47 -51 106 -83t125 -32q74 0 116 46.5t59.5 141.5t17.5 257 q0 227 -45.5 326.5t-157.5 99.5q-127 0 -221 -78v-678z" />
<glyph unicode="c" horiz-adv-x="1302" d="M102 510q0 254 168 382t496 128q256 0 420 -82l-25 -268h-39q-43 152 -113.5 224.5t-205.5 72.5q-150 0 -212.5 -104.5t-62.5 -309.5q0 -170 27 -274.5t96.5 -158.5t196.5 -54q96 0 176 27.5t158 80.5l26 -39q-96 -74 -216 -117t-279 -43q-289 0 -450 133.5t-161 401.5z " />
<glyph unicode="d" d="M102 508q0 264 133.5 388t360.5 124q123 0 206 -28.5t146 -73.5v417q0 23 -9 31t-40 14l-72 17v37l492 61h39v-1397q0 -23 9 -31t40 -14l72 -16v-37h-422q-56 0 -80.5 28.5t-24.5 86.5q-131 -139 -356 -140q-225 0 -359.5 129t-134.5 404zM524 508q0 -162 17.5 -257 t59.5 -141.5t116 -46.5q120 0 231 115v678q-98 78 -221 78q-113 0 -158 -99.5t-45 -326.5z" />
<glyph unicode="e" horiz-adv-x="1347" d="M102 510q0 248 166 379t465 131q170 0 287 -53.5t173 -142.5t56 -197q0 -55 -10 -103h-715q2 -227 73 -346t265 -119q96 0 171 29t155 82l26 -39q-190 -156 -503 -156q-283 0 -446 136.5t-163 398.5zM524 578h344v153q0 125 -29.5 182.5t-117.5 57.5q-113 0 -154 -94.5 t-43 -298.5z" />
<glyph unicode="f" horiz-adv-x="921" d="M41 942v53h133v164q0 170 104.5 253t346.5 83q199 0 325 -61l-24 -269h-43q-41 117 -65.5 169t-64.5 82t-110 30q-61 0 -90 -24.5t-29 -75.5q0 -45 8.5 -81t22.5 -83q10 -31 17.5 -63t7.5 -64v-60h247v-53h-247v-842q0 -23 9 -31t40 -14l76 -18v-37h-652v37l72 16 q31 6 40 14.5t9 30.5v844h-133z" />
<glyph unicode="g" horiz-adv-x="1417" d="M119 -223q0 86 67.5 133t178.5 61q-233 55 -234 219q0 178 217 218q-192 84 -192 276q0 180 140 256t400 76q125 -4 217 -21q59 90 166 148.5t256 58.5l-49 -235h-22l-52 14q-82 23 -143 23q-57 0 -92 -23q260 -74 260 -295q0 -178 -141.5 -257t-399.5 -79 q-145 0 -252 27q-63 -4 -111 -21.5t-48 -46.5q0 -31 26.5 -46t84 -24.5t190.5 -21.5l348 -33q147 -14 234 -46t127 -92t40 -159q0 -131 -95 -216t-244.5 -124t-319.5 -39q-244 0 -400.5 67t-156.5 202zM399 -186q0 -127 61.5 -188.5t229.5 -61.5q197 0 305.5 48t108.5 142 q0 53 -21.5 81t-70.5 43.5t-146 25.5l-288 33q-109 14 -152 22q-27 -57 -27 -145zM532 686q0 -147 34 -216t130 -69q97 0 130.5 69t33.5 216q0 141 -33.5 210t-130.5 69q-96 0 -130 -69t-34 -210z" />
<glyph unicode="h" horiz-adv-x="1536" d="M49 0v37l72 16q31 6 40 14.5t9 30.5v1237q0 23 -9 31t-40 14l-72 17v37l492 61h39v-627q78 63 188.5 107.5t247.5 44.5q190 0 272 -80t82 -240v-602q0 -22 9.5 -30.5t39.5 -14.5l72 -16v-37h-426q-55 0 -79.5 28.5t-24.5 86.5v622q0 92 -30 131t-100 39q-123 0 -251 -102 v-707q0 -23 9 -32t38 -15l69 -14v-37h-647z" />
<glyph unicode="i" horiz-adv-x="757" d="M53 0v37l72 16q31 6 40 14.5t9 30.5v774q0 23 -9 31t-40 15l-72 16v37l492 61h39v-934q0 -23 9 -31t40 -14l72 -16v-37h-652zM168 1323q0 84 57.5 128t153.5 44t153.5 -44t57.5 -128t-57.5 -128t-153.5 -44t-153.5 44t-57.5 128z" />
<glyph unicode="j" horiz-adv-x="794" d="M-109 -385l27 39q37 -33 84 -52.5t96 -19.5q63 0 90 42t27 167v1081q0 23 -9 31t-40 15l-72 16v37l492 61h39v-1095q0 -219 -90.5 -324t-309.5 -105q-217 0 -334 107zM209 1323q0 84 57.5 128t153.5 44t153.5 -44t57.5 -128t-57.5 -128t-153.5 -44t-153.5 44t-57.5 128z " />
<glyph unicode="k" horiz-adv-x="1531" d="M49 0v37l72 16q31 6 40 14.5t9 30.5v1237q0 23 -9 31t-40 14l-72 17v37l492 61h39v-930h118q162 0 225.5 71t63.5 203q0 97 -65 105l-23 2v37q123 37 240 37q121 0 168 -43t47 -125q0 -113 -86 -205t-301 -123q55 -14 92 -42.5t84 -88.5l227 -299q18 -23 30.5 -32 t35.5 -13l63 -12v-37h-393q-55 0 -86 17.5t-53 52.5l-318 442h-69v-414q0 -23 9 -32t38 -15l69 -14v-37h-647z" />
<glyph unicode="l" horiz-adv-x="749" d="M49 0v37l72 16q31 6 40 14.5t9 30.5v1237q0 23 -9 31t-40 14l-72 17v37l492 61h39v-1397q0 -23 9 -31t40 -14l71 -16v-37h-651z" />
<glyph unicode="m" horiz-adv-x="2269" d="M49 0v37l72 16q31 6 40 14.5t9 30.5v774q0 23 -9 31t-40 15l-72 16v37l492 61h34v-143q78 55 182.5 93t229.5 38q254 0 324 -152q78 63 189.5 107.5t248.5 44.5q190 0 272 -80t82 -240v-602q0 -23 9.5 -31t39.5 -14l72 -16v-37h-426q-55 0 -79.5 28.5t-24.5 86.5v622 q0 92 -30 131t-99 39q-111 0 -236 -90q12 -51 12 -117v-602q0 -23 9.5 -31t40.5 -14l71 -16v-37h-426q-55 0 -79.5 28.5t-24.5 86.5v622q0 92 -30 131t-99 39q-109 0 -223 -82v-727q0 -23 9 -32t38 -15l69 -14v-37h-647z" />
<glyph unicode="n" horiz-adv-x="1536" d="M49 0v37l72 16q31 6 40 14.5t9 30.5v774q0 23 -9 31t-40 15l-72 16v37l492 61h34v-166q78 63 191 108.5t250 45.5q190 0 272 -80t82 -240v-602q0 -22 9.5 -30.5t39.5 -14.5l72 -16v-37h-426q-55 0 -79.5 28.5t-24.5 86.5v622q0 92 -30 131t-100 39q-123 0 -251 -102v-707 q0 -23 9 -32t38 -15l69 -14v-37h-647z" />
<glyph unicode="o" horiz-adv-x="1482" d="M102 498q0 264 165 393t474 129t474 -129t165 -393q0 -265 -164.5 -394t-474.5 -129q-309 0 -474 129t-165 394zM528 498q0 -183 17.5 -281t62.5 -143t133 -45t133.5 45t62.5 143t17 281q0 182 -17 280.5t-62.5 143.5t-133.5 45t-133 -45t-62.5 -143.5t-17.5 -280.5z" />
<glyph unicode="p" d="M49 -426l72 16q31 6 40 14.5t9 30.5v1237q0 23 -9 31t-40 15l-72 16v37l492 61h34v-119q137 106 357 107q227 0 360 -123t133 -387q0 -272 -133 -401t-360 -129t-352 133v-478q0 -23 9 -30.5t40 -14.5l71 -16v-37h-651v37zM580 182q47 -51 106 -82.5t125 -31.5 q74 0 116 45t59.5 140t17.5 257q0 227 -45.5 325.5t-157.5 98.5q-127 0 -221 -78v-674z" />
<glyph unicode="q" d="M106 510q0 264 133.5 387t360.5 123q127 0 210 -29.5t146 -77.5v76l371 43h35v-1397q0 -23 9 -30.5t40 -14.5l72 -16v-37h-652v37l72 16q31 6 40 14.5t9 30.5v478q-129 -133 -352 -133q-227 0 -360.5 129t-133.5 401zM528 510q0 -162 17.5 -257t59.5 -140t116 -45h2 q119 0 229 114v674q-98 78 -221 78q-113 0 -158 -98.5t-45 -325.5z" />
<glyph unicode="r" horiz-adv-x="1105" d="M49 0v37l72 16q31 6 40 14.5t9 30.5v774q0 23 -9 31t-40 15l-72 16v37l492 61h34v-201q179 183 363 183q68 0 106 -17l-30 -319h-15l-419 92v-672q0 -23 9 -32t38 -15l69 -14v-37h-647z" />
<glyph unicode="s" horiz-adv-x="1138" d="M98 717q0 154 115 228.5t348 74.5q119 0 233.5 -23.5t178.5 -54.5l-25 -246h-35q-55 137 -133 208t-225 71q-94 0 -145.5 -25.5t-51.5 -93.5q0 -47 24 -75.5t74 -53.5t167 -72q168 -68 254 -117t126.5 -112.5t40.5 -159.5q0 -154 -117.5 -222.5t-353.5 -68.5 q-125 0 -261 24t-203 54l28 279h35q37 -162 131 -234.5t246 -72.5q96 0 142 28.5t46 100.5q0 49 -24.5 79.5t-77.5 55t-170 67.5q-199 72 -283 149t-84 212z" />
<glyph unicode="t" horiz-adv-x="913" d="M45 942v53q63 0 94 10.5t62 36.5l364 328h19v-375h264v-53h-264v-688q0 -98 23.5 -138t80.5 -40q45 0 80 18.5t76 63.5l33 -39q-129 -143 -381 -144q-170 0 -244 72t-74 223v672h-133z" />
<glyph unicode="u" d="M41 934v37l496 61h34v-774q0 -92 30 -131t99 -39q123 0 248 102v682q0 23 -9 31t-40 15l-72 16v37l496 61h35v-934q0 -23 9 -31t40 -14l72 -16v-37h-416q-59 0 -85 25.5t-26 80.5v23q-74 -63 -186.5 -108.5t-249.5 -45.5q-190 0 -272 80t-82 240v577q0 23 -9.5 31 t-39.5 15z" />
<glyph unicode="v" horiz-adv-x="1191" d="M8 965v30h643v-30l-53 -13q-47 -10 -47 -39q0 -12 10 -32l238 -478l223 521q6 12 6 20q0 12 -27 14l-53 7v30h236v-30l-54 -9q-25 -4 -35 -10t-20 -28l-416 -955h-36l-496 946q-10 18 -23.5 26.5t-33.5 12.5z" />
<glyph unicode="w" horiz-adv-x="1892" d="M8 965v30h627v-30l-37 -9q-47 -10 -47 -43q0 -12 10 -32l238 -478l131 308l-103 198q-10 20 -21 29.5t-28 13.5l-49 13v30h623v-30l-54 -13q-47 -10 -47 -39q0 -12 11 -32l237 -478l242 521q2 4 2 12q0 10 -10.5 14t-30.5 8l-53 7v30h235v-30l-53 -9q-25 -4 -35 -10 t-20 -28l-416 -955h-37l-362 690l-302 -690h-36l-496 946q-10 18 -23.5 26.5t-33.5 12.5z" />
<glyph unicode="x" horiz-adv-x="1323" d="M20 965v30h666v-30l-65 -13q-37 -6 -37 -28q0 -14 18 -43l158 -219l235 262q10 10 11 20q0 12 -23 17l-55 4v30h246v-30l-50 -9q-29 -4 -41 -10t-34 -28l-265 -293l390 -539q14 -18 27 -25.5t34 -11.5l68 -18v-31h-666v31l65 12q37 6 37 29q0 16 -18 43l-193 266 l-282 -309q-10 -10 -10 -21q0 -12 22 -16l55 -4v-31h-245v31l49 8q29 4 41 10t35 29l309 340l-352 491q-14 18 -27.5 25.5t-34.5 11.5z" />
<glyph unicode="y" horiz-adv-x="1191" d="M8 965v30h643v-30l-53 -13q-47 -10 -47 -39q0 -12 10 -32l238 -478l223 521q6 12 6 20q0 12 -27 14l-53 7v30h236v-30l-54 -9q-25 -4 -35 -10t-20 -28l-399 -918q-82 -190 -134.5 -279.5t-117 -137.5t-172.5 -75l-111 312q139 6 264 46t216 101l-494 942 q-10 18 -23.5 26.5t-33.5 12.5z" />
<glyph unicode="z" horiz-adv-x="1155" d="M66 0v41l596 903h-226q-94 0 -144 -19.5t-79 -63.5t-57 -134h-41v268h962v-41l-596 -903h279q94 0 144 20.5t79 66.5t57 138h41v-276h-1015z" />
<glyph unicode="{" horiz-adv-x="778" d="M127 670v53l92 14q33 4 45 22.5t12 49.5q0 29 -6 61q-4 27 -10 57.5t-12 65.5q-20 113 -29.5 176.5t-9.5 120.5q0 135 75.5 216t256.5 89l135 7v-58l-129 -8q-51 -2 -70.5 -22.5t-19.5 -57.5q0 -33 30 -178q27 -125 43.5 -221t16.5 -180q0 -80 -39 -124t-154 -57 q115 -12 154 -56t39 -124q0 -84 -16.5 -180t-43.5 -221q-31 -145 -30 -178q0 -37 19.5 -57.5t70.5 -22.5l129 -9v-57l-135 6q-180 8 -256 89t-76 216q0 57 9 121t30 176q6 35 12 66t10 57q6 35 6 62q0 31 -12 49t-45 22z" />
<glyph unicode="|" horiz-adv-x="512" d="M225 -209v1811h62v-1811h-62z" />
<glyph unicode="}" horiz-adv-x="778" d="M102 -152l129 9q51 2 71 22.5t20 57.5q0 33 -31 178q-27 125 -43.5 221t-16.5 180q0 80 39 124t154 56q-115 12 -154 56.5t-39 124.5q0 84 16.5 180t43.5 221q31 145 31 178q0 37 -19.5 57.5t-71.5 22.5l-129 8v58l136 -7q180 -8 255.5 -89t75.5 -216q0 -57 -9 -120.5 t-30 -176.5q-6 -35 -12 -65.5t-10 -57.5q-6 -33 -6 -61q0 -31 12 -49.5t45 -22.5l92 -14v-53l-92 -15q-33 -4 -45 -22.5t-12 -48.5q0 -27 6 -62q4 -27 10 -57.5t12 -65.5q20 -113 29.5 -176t9.5 -121q0 -135 -75.5 -216t-255.5 -89l-136 -6v57z" />
<glyph unicode="~" horiz-adv-x="1167" d="M156 563q23 104 91 186t167 82q37 0 84 -19t116 -56q82 -41 130.5 -60.5t89.5 -19.5q47 0 78.5 38t64.5 109l35 -18q-23 -104 -91.5 -186t-166.5 -82q-37 0 -84 19t-117 56q-82 41 -130 60.5t-89 19.5q-47 0 -79 -38t-65 -109z" />
<glyph unicode="&#xa1;" horiz-adv-x="581" d="M98 -383l160 930h66l159 -930q-23 -35 -73 -53.5t-119 -18.5q-70 0 -120 18.5t-73 53.5zM119 848q0 70 50 119t122 49q71 0 121.5 -49t50.5 -119t-50.5 -119t-121.5 -49q-72 0 -122 49t-50 119z" />
<glyph unicode="&#xa2;" horiz-adv-x="1306" d="M102 510q0 254 168 382t496 128h39v180h61v-184q184 -12 320 -78l-25 -268h-39q-41 133 -97 203.5t-159 87.5v-895q166 6 316 108l26 -39q-154 -119 -342 -147v-193h-61v185q-57 -5 -92 -5q-289 0 -450 133.5t-161 401.5zM528 553q0 -240 58.5 -356.5t218.5 -128.5v899 h-2q-150 0 -212.5 -104.5t-62.5 -309.5z" />
<glyph unicode="&#xa3;" horiz-adv-x="1368" d="M82 754v57h127q-59 137 -59 246q0 203 173 302t457 99q137 0 254 -18.5t189 -55.5l-29 -311h-47q-33 119 -70 187.5t-106.5 106.5t-186.5 38q-145 0 -208.5 -61.5t-63.5 -176.5q0 -78 23.5 -147.5t68.5 -163.5l21 -45h342v-57h-320q45 -106 45 -201q0 -74 -46 -142.5 t-124 -123.5h649q23 0 31 9t15 40l12 51h41v-207q0 -92 -47 -136t-129 -44h-961l-10 47q145 35 225 116t80 183q0 43 -26.5 100.5t-79.5 151.5q-63 109 -86 156h-154z" />
<glyph unicode="&#xa4;" horiz-adv-x="1167" d="M205 307l129 154q-74 90 -74 209q0 121 74 207l-129 155l47 41l127 -151q88 72 205 71q116 1 204 -71l127 151l48 -41l-132 -155q37 -43 56.5 -96.5t19.5 -110.5q0 -117 -76 -209l132 -154l-48 -41l-127 152q-88 -72 -204 -72q-117 0 -205 72l-127 -152zM319 670 q0 -72 35 -133.5t96.5 -97.5t133.5 -36q71 0 132.5 36t96.5 97.5t35 133.5t-35 133t-96.5 97t-132.5 36q-72 0 -133.5 -36t-96.5 -97.5t-35 -132.5z" />
<glyph unicode="&#xa5;" horiz-adv-x="1478" d="M16 1393v41h666v-41l-82 -9q-29 -2 -29 -24q0 -12 9 -27l319 -684l356 688l5 15q0 14 -12.5 23t-28.5 11l-97 9v39h340v-41l-63 -7q-33 -2 -45.5 -13t-28.5 -38l-364 -700h268v-57h-287v-156h287v-57h-287v-263q0 -23 9.5 -31t39.5 -14l76 -16v-41h-668v41l76 16 q31 6 40 14.5t9 30.5v263h-286v57h286v156h-286v57h262l-344 700q-14 25 -26.5 36t-33.5 13z" />
<glyph unicode="&#xa6;" horiz-adv-x="512" d="M225 -209v746h62v-746h-62zM225 856v746h62v-746h-62z" />
<glyph unicode="&#xa7;" horiz-adv-x="1187" d="M111 584q0 113 93 185.5t259 131.5q-123 53 -189.5 96t-96.5 100.5t-30 143.5q0 154 133.5 234.5t378.5 80.5q92 0 190.5 -14t172.5 -35l-29 -258h-30q-31 139 -98.5 198.5t-192.5 59.5q-109 0 -163 -33.5t-54 -107.5q0 -51 22.5 -86t77.5 -66.5t160 -68.5 q131 -47 206.5 -94t111.5 -110.5t36 -158.5q0 -115 -89 -190.5t-245 -134.5q123 -53 190.5 -98.5t99.5 -105.5t32 -153q0 -143 -134.5 -224t-377.5 -81q-96 0 -217 22.5t-187 51.5l29 278h31q74 -303 331 -303q217 0 218 148q0 74 -58.5 122t-214.5 103q-133 49 -211 95 t-116.5 110.5t-38.5 161.5zM371 707q0 -48 24.5 -78.5t76.5 -57t163 -71.5q16 -8 49 -21q125 72 125 172q0 47 -21.5 79t-73.5 60.5t-157 71.5l-47 19q-63 -35 -101 -76t-38 -98z" />
<glyph unicode="&#xa8;" horiz-adv-x="901" d="M49 1323q0 63 44 106.5t114 43.5t114 -43.5t44 -106.5t-44.5 -106t-113.5 -43q-70 0 -114 43t-44 106zM537 1323q0 63 44 106.5t113 43.5q70 0 114 -43.5t44 -106.5t-44 -106t-114 -43q-69 0 -113 43t-44 106z" />
<glyph unicode="&#xa9;" horiz-adv-x="1716" d="M119 717q0 203 96 371.5t265 268t378 99.5t378 -99.5t265 -268t96 -371.5t-96 -372t-265 -268.5t-378 -99.5t-378 99.5t-265 268.5t-96 372zM172 717q0 -187 89 -344.5t247 -249.5t350 -92q193 0 350.5 92t246.5 249.5t89 344.5q0 186 -89 344t-246.5 250t-350.5 92 t-350.5 -92t-246.5 -250t-89 -344zM436 721q0 199 124 303t358 104q179 1 294 -65l-16 -213h-29q-33 123 -79 181.5t-142 58.5q-106 0 -148 -84t-42 -250q0 -135 17.5 -218t65.5 -126t138 -43q68 0 119 23.5t110 68.5l21 -31q-63 -63 -143 -98t-197 -35q-207 0 -329 106.5 t-122 317.5z" />
<glyph unicode="&#xaa;" horiz-adv-x="950" d="M66 899q0 127 116.5 177t364.5 57v104q0 78 -29 109.5t-106 31.5q-63 0 -119.5 -18.5t-116.5 -54.5l-20 34q143 106 370 107q311 0 312 -244v-385q0 -16 7 -21t27 -12l50 -10v-33h-304q-38 0 -54.5 16.5t-16.5 55.5v6q-96 -92 -266 -92q-94 0 -154.5 43t-60.5 129z M356 920q0 -53 19.5 -76t62.5 -23q54 0 109 51v215q-80 -6 -121 -23t-55.5 -51t-14.5 -93z" />
<glyph unicode="&#xab;" horiz-adv-x="995" d="M111 537v61l348 346l33 -29q-147 -174 -148 -348q0 -174 148 -348l-33 -29zM492 537v61l348 346l32 -29q-147 -174 -147 -348t147 -348l-32 -29z" />
<glyph unicode="&#xac;" horiz-adv-x="1167" d="M152 643v57h856v-350h-62v293h-794z" />
<glyph unicode="&#xad;" horiz-adv-x="638" d="M82 541v57h475v-57h-475z" />
<glyph unicode="&#xae;" horiz-adv-x="1257" d="M106 932q0 143 68 263t187.5 189.5t267.5 69.5q147 0 267 -69.5t187.5 -189.5t67.5 -263t-67.5 -263t-187.5 -189.5t-267 -69.5t-267 69.5t-188 189t-68 263.5zM145 932q0 -131 62.5 -242.5t173.5 -176t248 -64.5t247.5 64.5t173 176t62.5 242.5t-62.5 242.5t-173 176 t-247.5 64.5t-248 -64.5t-173.5 -176t-62.5 -242.5zM350 666v20l29 6q18 2 18 21v463q0 18 -18 20l-29 6v21h238q160 0 226.5 -33t66.5 -115q0 -59 -39 -93t-123 -46q72 -4 105.5 -30.5t45.5 -92.5l9 -49q2 -12 6 -33.5t9 -27t15 -5.5q25 0 37 27l21 -16q-29 -51 -115 -52 q-76 0 -108.5 28t-47.5 103l-10 60q-10 49 -21.5 64.5t-50.5 17.5h-36v-217q0 -18 18 -21l29 -6v-20h-275zM578 958h16q68 0 90.5 26t22.5 91q0 68 -22.5 93.5t-90.5 25.5h-16v-236z" />
<glyph unicode="&#xaf;" horiz-adv-x="901" d="M61 1196v49h779v-49h-779z" />
<glyph unicode="&#xb0;" horiz-adv-x="761" d="M98 1176q0 125 78 201.5t205 76.5q129 0 206 -77t77 -201q0 -123 -77 -201t-206 -78q-127 0 -205 78t-78 201zM156 1176q0 -100 61.5 -163t163.5 -63t163.5 62.5t61.5 163.5q0 100 -61.5 162.5t-163.5 62.5t-163.5 -62.5t-61.5 -162.5z" />
<glyph unicode="&#xb1;" horiz-adv-x="1167" d="M152 0v53h864v-53h-864zM152 643v57h401v404h61v-404h402v-57h-402v-403h-61v403h-401z" />
<glyph unicode="&#xb2;" horiz-adv-x="794" d="M29 1030q215 137 303 277.5t88 271.5q0 72 -30 108.5t-95 36.5q-63 0 -113.5 -18t-113.5 -57l-23 37q162 109 354 108q145 0 215 -57.5t70 -155.5q0 -131 -114.5 -226t-286.5 -177h340q16 0 23 6t9 20l9 41h32v-241h-657z" />
<glyph unicode="&#xb3;" horiz-adv-x="770" d="M45 1038l16 193h33q20 -70 40 -110t56.5 -64.5t100.5 -24.5q74 0 111.5 41t37.5 137q0 88 -33.5 135.5t-111.5 47.5h-64v45h66q66 0 95.5 35.5t29.5 115.5q0 141 -137 142q-59 0 -107.5 -15.5t-105.5 -46.5l-25 35q141 90 334 90q139 0 222 -49t83 -141q0 -141 -188 -187 q98 -10 154.5 -57t56.5 -133q0 -129 -97.5 -182.5t-289.5 -53.5q-166 0 -277 47z" />
<glyph unicode="&#xb4;" horiz-adv-x="901" d="M213 1182l78 57q18 14 118.5 91t161.5 140q47 -22 80 -71t35 -107q-88 -41 -224 -78.5t-239 -54.5z" />
<glyph unicode="&#xb5;" horiz-adv-x="1536" d="M49 -426l72 16q31 6 40 14.5t9 30.5v1237q0 23 -9 31t-40 15l-72 16v37l496 61h35v-774q0 -92 29.5 -131t99.5 -39q123 0 247 102v682q0 23 -9 31t-40 15l-71 16v37l495 61h35v-934q0 -23 9 -31t40 -14l72 -16v-37h-416q-59 0 -84.5 25.5t-25.5 80.5v23 q-68 -55 -165.5 -98t-215.5 -54v-342q0 -23 9 -30.5t40 -14.5l71 -16v-37h-651v37z" />
<glyph unicode="&#xb6;" horiz-adv-x="1032" d="M123 971q0 240 114.5 351.5t368.5 111.5h348v-62h-141q-53 0 -73.5 -19.5t-20.5 -70.5v-1325q0 -152 -43 -218.5t-168 -66.5q-84 0 -121 11v61q49 -8 105 -8q92 0 126.5 49t34.5 172v551h-47q-254 0 -368.5 111.5t-114.5 351.5z" />
<glyph unicode="&#xb7;" horiz-adv-x="548" d="M102 569q0 70 50.5 119t121.5 49q72 0 122 -49t50 -119t-50 -119t-122 -49q-71 0 -121.5 49.5t-50.5 118.5z" />
<glyph unicode="&#xb8;" horiz-adv-x="901" d="M319 -385l15 37q57 -27 141 -27q59 0 87 19.5t28 66.5q0 59 -44 89t-126 44l22 156h45l-8 -74q133 -6 208 -50t75 -128q0 -86 -70.5 -130t-177.5 -44q-51 0 -106.5 12.5t-88.5 28.5z" />
<glyph unicode="&#xb9;" horiz-adv-x="634" d="M74 1004v32l92 15q18 4 24.5 10t6.5 22v598h-119v33q195 20 352 80l31 -10v-703q0 -14 6 -21t20 -9l82 -15v-32h-495z" />
<glyph unicode="&#xba;" horiz-adv-x="1044" d="M78 1085q0 188 111.5 274.5t332.5 86.5t333 -86t112 -275q0 -188 -112 -274t-333 -86t-332.5 86t-111.5 274zM387 1085q0 -121 9.5 -186t39 -98t86.5 -33q58 0 87.5 33t38.5 98.5t9 185.5q0 121 -9 186.5t-38.5 98.5t-87.5 33q-57 0 -86.5 -33t-39 -98.5t-9.5 -186.5z " />
<glyph unicode="&#xbb;" horiz-adv-x="995" d="M123 219q147 174 147 348t-147 348l33 29l348 -346v-61l-348 -347zM504 219q147 174 147 348t-147 348l33 29l348 -346v-61l-348 -347z" />
<glyph unicode="&#xbc;" horiz-adv-x="1740" d="M74 655v33l92 14q18 4 24.5 10.5t6.5 22.5v598h-119v33q195 20 352 80l31 -10v-703q0 -14 6 -21t20 -10l82 -14v-33h-495zM479 0l819 1434h62l-819 -1434h-62zM946 217l527 561h114v-557h105v-45h-105v-100q0 -14 6 -21.5t21 -9.5l74 -12v-33h-476v33l80 12q18 4 24.5 10 t6.5 23v98h-369zM1012 221h311v330z" />
<glyph unicode="&#xbd;" horiz-adv-x="1740" d="M74 655v33l92 14q18 4 24.5 10.5t6.5 22.5v598h-119v33q195 20 352 80l31 -10v-703q0 -14 6 -21t20 -10l82 -14v-33h-495zM379 0l819 1434h62l-820 -1434h-61zM975 27q215 137 303 277t88 271q0 72 -29.5 109t-95.5 37q-63 0 -113.5 -18.5t-113.5 -57.5l-23 37 q164 109 355 109q145 0 214.5 -57.5t69.5 -155.5q0 -132 -114.5 -227t-286.5 -177h340q16 0 23 6t10 21l8 41h32v-242h-657z" />
<glyph unicode="&#xbe;" horiz-adv-x="1740" d="M45 690l16 193h33q20 -70 40 -110t56.5 -64.5t100.5 -24.5q74 0 111.5 41t37.5 137q0 88 -33.5 135t-111.5 47h-64v46h66q66 0 95.5 35.5t29.5 115.5q0 141 -137 141q-59 0 -107.5 -15t-105.5 -46l-25 35q141 90 334 90q139 0 222 -49t83 -142q0 -141 -188 -186 q98 -10 154.5 -57t56.5 -133q0 -129 -97.5 -182.5t-289.5 -53.5q-166 0 -277 47zM512 0l819 1434h62l-820 -1434h-61zM946 217l527 561h114v-557h105v-45h-105v-100q0 -14 6 -21.5t21 -9.5l74 -12v-33h-476v33l80 12q18 4 24.5 10t6.5 23v98h-369zM1012 221h311v330z" />
<glyph unicode="&#xbf;" horiz-adv-x="1159" d="M98 -137q0 190 132 285.5t339 130.5l27 268h57l23 -268q-189 -150 -189 -398q0 -238 234 -237q113 0 191.5 28.5t172.5 94.5l25 -39q-125 -90 -254 -138.5t-324 -48.5q-211 0 -322.5 81t-111.5 241zM453 848q0 70 50 119t122 49q71 0 121.5 -49t50.5 -119t-50.5 -119 t-121.5 -49q-72 0 -122 49t-50 119z" />
<glyph unicode="&#xc0;" horiz-adv-x="1572" d="M37 0v41l76 8q25 2 35 12.5t22 36.5l567 1358h66l600 -1358q12 -27 22.5 -37t34.5 -12l76 -8v-41h-676v41l88 8q29 4 29 23q0 10 -6 24l-135 299h-476l-122 -299q-6 -14 -7 -24q0 -18 29 -23l88 -8v-41h-311zM348 1690q2 57 35 106t80 72q61 -64 161.5 -140.5 t118.5 -91.5l78 -57l-10 -23q-102 16 -238.5 54.5t-224.5 79.5zM385 457h424l-221 489z" />
<glyph unicode="&#xc1;" horiz-adv-x="1572" d="M37 0v41l76 8q25 2 35 12.5t22 36.5l567 1358h66l600 -1358q12 -27 22.5 -37t34.5 -12l76 -8v-41h-676v41l88 8q29 4 29 23q0 10 -6 24l-135 299h-476l-122 -299q-6 -14 -7 -24q0 -18 29 -23l88 -8v-41h-311zM385 457h424l-221 489zM731 1579l78 57q18 14 118.5 91 t162.5 141q47 -23 79.5 -72t34.5 -106q-88 -41 -224 -79t-239 -55z" />
<glyph unicode="&#xc2;" horiz-adv-x="1572" d="M37 0v41l76 8q25 2 35 12.5t22 36.5l567 1358h66l600 -1358q12 -27 22.5 -37t34.5 -12l76 -8v-41h-676v41l88 8q29 4 29 23q0 10 -6 24l-135 299h-476l-122 -299q-6 -14 -7 -24q0 -18 29 -23l88 -8v-41h-311zM385 457h424l-221 489zM438 1587q147 121 275 281h106 q121 -152 275 -281l-23 -31q-150 51 -305 142q-156 -90 -305 -142z" />
<glyph unicode="&#xc3;" horiz-adv-x="1572" d="M37 0v41l76 8q25 2 35 12.5t22 36.5l567 1358h66l600 -1358q12 -27 22.5 -37t34.5 -12l76 -8v-41h-676v41l88 8q29 4 29 23q0 10 -6 24l-135 299h-476l-122 -299q-6 -14 -7 -24q0 -18 29 -23l88 -8v-41h-311zM379 1591q31 80 54.5 129t63.5 88t95 39q37 0 91 -18.5 t191 -73.5l74 -29q18 -8 47 -8q25 0 47.5 10.5t36.5 28.5l49 62l25 -11q-31 -80 -54.5 -129t-63.5 -88t-95 -39q-37 0 -91 18.5t-192 74.5l-73 28q-18 8 -47 8q-25 0 -47.5 -10t-36.5 -29l-50 -61zM385 457h424l-221 489z" />
<glyph unicode="&#xc4;" horiz-adv-x="1556" d="M37 0v41l76 8q25 2 35 12.5t22 36.5l567 1358h66l600 -1358q12 -27 22.5 -37t34.5 -12l76 -8v-41h-676v41l88 8q29 4 29 23q0 10 -6 24l-135 299h-476l-122 -299q-6 -14 -7 -24q0 -18 29 -23l88 -8v-41h-311zM375 1720q0 63 44 106.5t113 43.5q70 0 114 -43t44 -107 q0 -63 -44 -106t-114 -43q-69 0 -113 43t-44 106zM385 457h424l-221 489zM862 1720q0 63 44 106.5t114 43.5t114 -43t44 -107q0 -63 -44 -106t-114 -43t-114 43t-44 106z" />
<glyph unicode="&#xc5;" horiz-adv-x="1556" d="M37 0v41l76 8q25 2 35 12.5t22 36.5l539 1309q-82 12 -132.5 59t-50.5 131q0 96 66.5 145.5t167.5 49.5q100 0 166.5 -49t66.5 -146q0 -84 -49 -131t-129 -59l571 -1309q12 -27 22.5 -37t35.5 -12l76 -8v-41h-676v41l88 8q29 4 29 25q0 8 -7 22l-141 320h-448l-132 -320 q-6 -14 -6 -22q0 -20 29 -25l88 -8v-41h-307zM389 477h397l-204 467zM672 1597q0 -80 20.5 -119.5t67.5 -39.5t67.5 40t20.5 119q0 80 -20.5 120t-67.5 40t-67.5 -40t-20.5 -120z" />
<glyph unicode="&#xc6;" horiz-adv-x="2138" d="M33 0v41l80 8q25 2 36 12.5t27 36.5l770 1270l-31 8l-75 17v41h1179v-400h-55q-47 137 -83 203t-102.5 100.5t-187.5 34.5h-209v-608h447v-62h-447v-641h230q121 0 188.5 37t105.5 104.5t85 205.5h57v-408h-1208v41l75 16q31 6 40.5 14.5t9.5 30.5v351h-500l-213 -357 q-10 -16 -10 -28q0 -14 24 -19l86 -8v-41h-319zM502 514h463v766z" />
<glyph unicode="&#xc7;" horiz-adv-x="1544" d="M115 737q0 371 220 546t576 175q143 0 282.5 -26.5t219.5 -65.5l-29 -352h-57q-57 174 -154.5 279.5t-259.5 105.5q-186 0 -267 -152.5t-81 -455.5q0 -358 104.5 -535.5t366.5 -177.5q113 0 204 37t173 102l41 -45q-90 -84 -234.5 -140.5t-318.5 -56.5q-43 0 -63 2 l-4 -51q133 -6 207.5 -50t74.5 -128q0 -86 -70.5 -130t-177.5 -44q-51 0 -106 12.5t-88 28.5l14 37q57 -27 141 -27q59 0 87 19.5t28 66.5q0 59 -44 89t-126 44l19 138q-304 24 -491 205.5t-187 549.5z" />
<glyph unicode="&#xc8;" horiz-adv-x="1474" d="M53 0v41l76 16q31 6 40 14.5t9 30.5v1229q0 23 -9 31t-40 14l-76 17v41h1262v-400h-51q-43 133 -81 201t-105.5 102.5t-190.5 34.5h-291v-608h528v-62h-528v-641h311q121 0 190.5 37t109.5 106.5t83 203.5h53v-408h-1290zM524 1690q2 57 35 106t80 72 q61 -64 161.5 -140.5t119.5 -91.5l77 -57l-10 -23q-102 16 -238.5 54.5t-224.5 79.5z" />
<glyph unicode="&#xc9;" horiz-adv-x="1474" d="M53 0v41l76 16q31 6 40 14.5t9 30.5v1229q0 23 -9 31t-40 14l-76 17v41h1262v-400h-51q-43 133 -81 201t-105.5 102.5t-190.5 34.5h-291v-608h528v-62h-528v-641h311q121 0 190.5 37t109.5 106.5t83 203.5h53v-408h-1290zM539 1579l77 57q18 14 119 91t162 141 q47 -23 80 -72t35 -106q-88 -41 -224.5 -79t-238.5 -55z" />
<glyph unicode="&#xca;" horiz-adv-x="1474" d="M53 0v41l76 16q31 6 40 14.5t9 30.5v1229q0 23 -9 31t-40 14l-76 17v41h1262v-400h-51q-43 133 -81 201t-105.5 102.5t-190.5 34.5h-291v-608h528v-62h-528v-641h311q121 0 190.5 37t109.5 106.5t83 203.5h53v-408h-1290zM451 1587q147 121 274 281h106 q121 -152 275 -281l-23 -31q-150 51 -305 142q-156 -90 -305 -142z" />
<glyph unicode="&#xcb;" horiz-adv-x="1474" d="M53 0v41l76 16q31 6 40 14.5t9 30.5v1229q0 23 -9 31t-40 14l-76 17v41h1262v-400h-51q-43 133 -81 201t-105.5 102.5t-190.5 34.5h-291v-608h528v-62h-528v-641h311q121 0 190.5 37t109.5 106.5t83 203.5h53v-408h-1290zM356 1720q0 63 44 106.5t114 43.5t114 -43 t44 -107q0 -63 -44 -106t-114 -43t-114 43t-44 106zM844 1720q0 63 44 106.5t113 43.5q70 0 114 -43t44 -107q0 -63 -44 -106t-114 -43q-69 0 -113 43t-44 106z" />
<glyph unicode="&#xcc;" horiz-adv-x="790" d="M61 0v41l76 16q31 6 40 14.5t9 30.5v1229q0 23 -9 31t-40 14l-76 17v41h668v-41l-76 -17q-31 -6 -40 -14t-9 -31v-1229q0 -23 9.5 -31t39.5 -14l76 -16v-41h-668zM100 1690q2 57 35 106t80 72q61 -64 161.5 -140.5t119.5 -91.5l77 -57l-10 -23q-102 16 -238.5 54.5 t-224.5 79.5z" />
<glyph unicode="&#xcd;" horiz-adv-x="790" d="M61 0v41l76 16q31 6 40 14.5t9 30.5v1229q0 23 -9 31t-40 14l-76 17v41h668v-41l-76 -17q-31 -6 -40 -14t-9 -31v-1229q0 -23 9.5 -31t39.5 -14l76 -16v-41h-668zM238 1579l77 57q18 14 119 91t162 141q47 -23 80 -72t35 -106q-88 -41 -224.5 -79t-238.5 -55z" />
<glyph unicode="&#xce;" horiz-adv-x="790" d="M61 0v41l76 16q31 6 40 14.5t9 30.5v1229q0 23 -9 31t-40 14l-76 17v41h668v-41l-76 -17q-31 -6 -40 -14t-9 -31v-1229q0 -23 9.5 -31t39.5 -14l76 -16v-41h-668zM68 1587q147 121 274 281h107q120 -152 274 -281l-23 -31q-150 51 -305 142q-156 -90 -305 -142z" />
<glyph unicode="&#xcf;" horiz-adv-x="790" d="M-6 1720q0 63 44 106.5t114 43.5t113.5 -43t43.5 -107q0 -63 -44 -106t-113 -43q-70 0 -114 43t-44 106zM61 0v41l76 16q31 6 40 14.5t9 30.5v1229q0 23 -9 31t-40 14l-76 17v41h668v-41l-76 -17q-31 -6 -40 -14t-9 -31v-1229q0 -23 9.5 -31t39.5 -14l76 -16v-41h-668z M481 1720q0 63 44 106.5t114 43.5t114 -43t44 -107q0 -63 -44 -106t-114 -43t-114 43t-44 106z" />
<glyph unicode="&#xd0;" horiz-adv-x="1675" d="M53 0v41l76 16q31 6 40 14.5t9 30.5v562h-125v57h125v610q0 23 -9 31t-40 14l-76 17v41h627q430 0 655.5 -162t225.5 -555t-225.5 -555t-655.5 -162h-627zM596 61h84q170 0 262 60.5t129 200t37 395.5t-37 395t-129 199.5t-262 60.5h-84v-651h281v-57h-281v-603z" />
<glyph unicode="&#xd1;" horiz-adv-x="1523" d="M53 0v41l76 16q31 6 40 14.5t9 30.5v1229q0 23 -9 31t-40 14l-76 17v41h568l659 -832v731q0 23 -9 30t-38 13l-74 17v41h311v-41l-75 -17q-31 -6 -40 -14t-9 -31v-1331h-74l-1028 1300v-1200q0 -23 9 -30t38 -13l74 -16v-41h-312zM375 1591q31 80 54.5 129t63 88t95.5 39 q37 0 91 -18.5t191 -73.5l74 -29q18 -8 47 -8q25 0 47.5 10.5t36.5 28.5l49 62l25 -11q-31 -80 -54.5 -129t-63.5 -88t-95 -39q-37 0 -91 18.5t-192 74.5l-73 28q-18 8 -48 8q-25 0 -47 -10t-36 -29l-50 -61z" />
<glyph unicode="&#xd2;" horiz-adv-x="1748" d="M115 717q0 389 207.5 565t551.5 176q347 0 553.5 -175t206.5 -566t-206.5 -566.5t-553.5 -175.5q-346 0 -552.5 175.5t-206.5 566.5zM518 1690q2 57 35 106t80 72q61 -64 161.5 -140.5t118.5 -91.5l78 -57l-10 -23q-102 16 -238.5 54.5t-224.5 79.5zM567 717 q0 -256 24.5 -401.5t91.5 -213t191 -67.5q125 0 192 67.5t91.5 213t24.5 401.5t-24.5 401.5t-91.5 213t-192 67.5t-191.5 -67.5t-91 -213t-24.5 -401.5z" />
<glyph unicode="&#xd3;" horiz-adv-x="1748" d="M115 717q0 389 207.5 565t551.5 176q347 0 553.5 -175t206.5 -566t-206.5 -566.5t-553.5 -175.5q-346 0 -552.5 175.5t-206.5 566.5zM567 717q0 -256 24.5 -401.5t91.5 -213t191 -67.5q125 0 192 67.5t91.5 213t24.5 401.5t-24.5 401.5t-91.5 213t-192 67.5t-191.5 -67.5 t-91 -213t-24.5 -401.5zM758 1579l78 57q18 14 118.5 91t161.5 141q47 -23 80 -72t35 -106q-88 -41 -224.5 -79t-238.5 -55z" />
<glyph unicode="&#xd4;" horiz-adv-x="1748" d="M115 717q0 389 207.5 565t551.5 176q347 0 553.5 -175t206.5 -566t-206.5 -566.5t-553.5 -175.5q-346 0 -552.5 175.5t-206.5 566.5zM547 1587q147 121 274 281h107q120 -152 274 -281l-22 -31q-150 51 -306 142q-156 -90 -305 -142zM567 717q0 -256 24.5 -401.5 t91.5 -213t191 -67.5q125 0 192 67.5t91.5 213t24.5 401.5t-24.5 401.5t-91.5 213t-192 67.5t-191.5 -67.5t-91 -213t-24.5 -401.5z" />
<glyph unicode="&#xd5;" horiz-adv-x="1748" d="M115 717q0 389 207.5 565t551.5 176q347 0 553.5 -175t206.5 -566t-206.5 -566.5t-553.5 -175.5q-346 0 -552.5 175.5t-206.5 566.5zM487 1591q31 80 54.5 129t63.5 88t95 39q37 0 91.5 -18.5t191.5 -73.5l74 -29q18 -8 47 -8q25 0 47.5 10.5t36.5 28.5l49 62l25 -11 q-31 -80 -54.5 -129t-63.5 -88t-95 -39q-37 0 -91.5 18.5t-191.5 74.5l-74 28q-18 8 -47 8q-25 0 -47.5 -10t-36.5 -29l-49 -61zM567 717q0 -256 24.5 -401.5t91.5 -213t191 -67.5q125 0 192 67.5t91.5 213t24.5 401.5t-24.5 401.5t-91.5 213t-192 67.5t-191.5 -67.5 t-91 -213t-24.5 -401.5z" />
<glyph unicode="&#xd6;" horiz-adv-x="1748" d="M115 717q0 389 207.5 565t551.5 176q347 0 553.5 -175t206.5 -566t-206.5 -566.5t-553.5 -175.5q-346 0 -552.5 175.5t-206.5 566.5zM473 1720q0 63 44 106.5t114 43.5t113.5 -43t43.5 -107q0 -63 -44 -106t-113 -43q-70 0 -114 43t-44 106zM567 717q0 -256 24.5 -401.5 t91.5 -213t191 -67.5q125 0 192 67.5t91.5 213t24.5 401.5t-24.5 401.5t-91.5 213t-192 67.5t-191.5 -67.5t-91 -213t-24.5 -401.5zM961 1720q0 63 44 106.5t113 43.5q70 0 114 -43t44 -107q0 -63 -44 -106t-114 -43q-69 0 -113 43t-44 106z" />
<glyph unicode="&#xd7;" horiz-adv-x="1167" d="M213 344l328 328l-328 327l43 43l328 -327l327 327l43 -43l-327 -327l327 -328l-43 -43l-327 328l-328 -328z" />
<glyph unicode="&#xd8;" horiz-adv-x="1748" d="M115 717q0 389 207.5 565t551.5 176q211 1 373 -65l90 149l52 -31l-86 -143q332 -172 331 -651q0 -391 -206.5 -566.5t-553.5 -175.5q-211 0 -374 64l-88 -148l-52 31l86 144q-332 172 -331 651zM567 717q0 -275 27 -408l541 897q-33 100 -95.5 146.5t-165.5 46.5 q-125 0 -191.5 -67.5t-91 -213t-24.5 -401.5zM612 227q33 -100 95.5 -146t166.5 -46q125 0 192 67.5t91.5 213t24.5 401.5t-27 407z" />
<glyph unicode="&#xd9;" horiz-adv-x="1544" d="M41 1393v41h664v-41l-74 -17q-29 -6 -38 -13t-9 -30v-829q0 -174 24.5 -270.5t95 -142.5t207.5 -46q197 0 301.5 129t104.5 342v815q0 23 -9.5 31t-39.5 14l-76 17v41h311v-41l-73 -17q-29 -6 -38.5 -13t-9.5 -30v-801q-4 -258 -139 -407.5t-436 -149.5 q-328 0 -484.5 133.5t-156.5 432.5v790q0 23 -9.5 31t-39.5 14zM539 1690q2 57 34.5 106t79.5 72q62 -64 162 -140.5t119 -91.5l78 -57l-11 -23q-102 16 -238 54.5t-224 79.5z" />
<glyph unicode="&#xda;" horiz-adv-x="1544" d="M41 1393v41h664v-41l-74 -17q-29 -6 -38 -13t-9 -30v-829q0 -174 24.5 -270.5t95 -142.5t207.5 -46q197 0 301.5 129t104.5 342v815q0 23 -9.5 31t-39.5 14l-76 17v41h311v-41l-73 -17q-29 -6 -38.5 -13t-9.5 -30v-801q-4 -258 -139 -407.5t-436 -149.5 q-328 0 -484.5 133.5t-156.5 432.5v790q0 23 -9.5 31t-39.5 14zM819 1579l78 57q18 14 118.5 91t162.5 141q47 -23 79.5 -72t34.5 -106q-88 -41 -224 -79t-239 -55z" />
<glyph unicode="&#xdb;" horiz-adv-x="1544" d="M41 1393v41h664v-41l-74 -17q-29 -6 -38 -13t-9 -30v-829q0 -174 24.5 -270.5t95 -142.5t207.5 -46q197 0 301.5 129t104.5 342v815q0 23 -9.5 31t-39.5 14l-76 17v41h311v-41l-73 -17q-29 -6 -38.5 -13t-9.5 -30v-801q-4 -258 -139 -407.5t-436 -149.5 q-328 0 -484.5 133.5t-156.5 432.5v790q0 23 -9.5 31t-39.5 14zM588 1587q147 121 274 281h107q120 -152 274 -281l-22 -31q-150 51 -306 142q-156 -90 -305 -142z" />
<glyph unicode="&#xdc;" horiz-adv-x="1531" d="M41 1393v41h664v-41l-74 -17q-29 -6 -38 -13t-9 -30v-829q0 -174 24.5 -270.5t95 -142.5t207.5 -46q197 0 301.5 129t104.5 342v815q0 23 -9.5 31t-39.5 14l-76 17v41h311v-41l-73 -17q-29 -6 -38.5 -13t-9.5 -30v-801q-4 -258 -139 -407.5t-436 -149.5 q-328 0 -484.5 133.5t-156.5 432.5v790q0 23 -9.5 31t-39.5 14zM487 1720q0 63 44 106.5t114 43.5t114 -43t44 -107q0 -63 -44 -106t-114 -43t-114 43t-44 106zM975 1720q0 63 44 106.5t114 43.5t113.5 -43t43.5 -107q0 -63 -44 -106t-113 -43q-70 0 -114 43t-44 106z" />
<glyph unicode="&#xdd;" horiz-adv-x="1474" d="M8 1393v41h666v-41l-82 -9q-29 -2 -29 -24q0 -12 8 -27l328 -618l365 622q4 13 4 15q0 14 -12.5 23t-28.5 11l-97 9v39h340v-41l-63 -7q-33 -2 -45 -13t-29 -38l-391 -671v-562q0 -23 9.5 -31t39.5 -14l76 -16v-41h-668v41l76 16q31 6 40 14.5t9 30.5v549l-377 684 q-14 25 -26 36t-33 13zM766 1579l78 57q18 14 118.5 91t161.5 141q47 -23 80 -72t35 -106q-88 -41 -224 -79t-239 -55z" />
<glyph unicode="&#xde;" horiz-adv-x="1507" d="M53 0v41l76 16q31 6 40 14.5t9 30.5v1229q0 23 -9 31t-40 14l-76 17v41h680v-41l-88 -19q-31 -6 -40 -14t-9 -31v-190h45q279 0 443.5 -36t242.5 -123t78 -245t-78 -245t-242.5 -122.5t-443.5 -35.5h-45v-228q0 -23 9 -30.5t40 -14.5l88 -18v-41h-680zM596 393h63 q121 0 188.5 33t97.5 106.5t30 202.5t-30 203t-97.5 106.5t-188.5 32.5h-63v-684z" />
<glyph unicode="&#xdf;" horiz-adv-x="1579" d="M41 942v53h133v123q0 184 165 280.5t437 96.5q252 0 416 -71.5t164 -215.5q0 -115 -101.5 -179t-281.5 -105q516 -229 516 -582q0 -125 -63.5 -206t-164 -118.5t-214.5 -37.5q-217 0 -334 106l26 39q82 -63 191 -64q109 0 152.5 42t43.5 149q0 160 -93 283.5t-277 269.5 v47q166 92 224 198.5t58 200.5q0 199 -219 199q-98 0 -150.5 -35t-70.5 -99.5t-18 -168.5v-1147h-527v37l72 16q31 6 40 14.5t9 30.5v844h-133z" />
<glyph unicode="&#xe0;" horiz-adv-x="1318" d="M78 227q0 127 74.5 199t218 102.5t381.5 36.5v150q0 115 -45 165t-158 50q-94 0 -175 -25.5t-165 -77.5l-27 39q98 70 236.5 112t310.5 42q231 0 329.5 -91t98.5 -263v-568q0 -23 9.5 -31t39.5 -14l72 -16v-37h-422q-57 0 -80.5 23.5t-23.5 78.5v11q-137 -133 -392 -133 q-133 0 -207.5 60t-74.5 187zM426 1292q2 57 35 106.5t80 71.5q61 -63 161.5 -140t118.5 -91l78 -57l-10 -23q-102 16 -238.5 54t-224.5 79zM475 256q0 -78 27.5 -112.5t87.5 -34.5q88 -1 162 69v332q-115 -8 -174.5 -36t-81 -79t-21.5 -139z" />
<glyph unicode="&#xe1;" horiz-adv-x="1318" d="M78 227q0 127 74.5 199t218 102.5t381.5 36.5v150q0 115 -45 165t-158 50q-94 0 -175 -25.5t-165 -77.5l-27 39q98 70 236.5 112t310.5 42q231 0 329.5 -91t98.5 -263v-568q0 -23 9.5 -31t39.5 -14l72 -16v-37h-422q-57 0 -80.5 23.5t-23.5 78.5v11q-137 -133 -392 -133 q-133 0 -207.5 60t-74.5 187zM420 1182l78 57q18 14 118.5 91t161.5 140q47 -22 80 -71t35 -107q-88 -41 -224.5 -78.5t-238.5 -54.5zM475 256q0 -78 27.5 -112.5t87.5 -34.5q88 -1 162 69v332q-115 -8 -174.5 -36t-81 -79t-21.5 -139z" />
<glyph unicode="&#xe2;" horiz-adv-x="1318" d="M78 227q0 127 74.5 199t218 102.5t381.5 36.5v150q0 115 -45 165t-158 50q-94 0 -175 -25.5t-165 -77.5l-27 39q98 70 236.5 112t310.5 42q231 0 329.5 -91t98.5 -263v-568q0 -23 9.5 -31t39.5 -14l72 -16v-37h-422q-57 0 -80.5 23.5t-23.5 78.5v11q-137 -133 -392 -133 q-133 0 -207.5 60t-74.5 187zM332 1190q147 121 274 280h107q120 -151 274 -280l-22 -31q-150 51 -306 141q-156 -90 -305 -141zM475 256q0 -78 27.5 -112.5t87.5 -34.5q88 -1 162 69v332q-115 -8 -174.5 -36t-81 -79t-21.5 -139z" />
<glyph unicode="&#xe3;" horiz-adv-x="1318" d="M78 227q0 127 74.5 199t218 102.5t381.5 36.5v150q0 115 -45 165t-158 50q-94 0 -175 -25.5t-165 -77.5l-27 39q98 70 236.5 112t310.5 42q231 0 329.5 -91t98.5 -263v-568q0 -23 9.5 -31t39.5 -14l72 -16v-37h-422q-57 0 -80.5 23.5t-23.5 78.5v11q-137 -133 -392 -133 q-133 0 -207.5 60t-74.5 187zM293 1194q31 80 54.5 129t63.5 88t95 39q37 0 91 -18.5t191 -73.5l74 -29q18 -8 47 -8q25 0 47.5 10t36.5 29l49 61l25 -10q-31 -80 -54.5 -129t-63.5 -88t-95 -39q-37 0 -91 18.5t-192 73.5l-73 29q-18 8 -47 8q-25 0 -47.5 -10t-36.5 -29 l-50 -61zM475 256q0 -78 27.5 -112.5t87.5 -34.5q88 -1 162 69v332q-115 -8 -174.5 -36t-81 -79t-21.5 -139z" />
<glyph unicode="&#xe4;" horiz-adv-x="1318" d="M78 227q0 127 74.5 199t218 102.5t381.5 36.5v150q0 115 -45 165t-158 50q-94 0 -175 -25.5t-165 -77.5l-27 39q98 70 236.5 112t310.5 42q231 0 329.5 -91t98.5 -263v-568q0 -23 9.5 -31t39.5 -14l72 -16v-37h-422q-57 0 -80.5 23.5t-23.5 78.5v11q-137 -133 -392 -133 q-133 0 -207.5 60t-74.5 187zM279 1323q0 63 44 106.5t113 43.5q70 0 114 -43.5t44 -106.5t-44 -106t-114 -43q-69 0 -113 43t-44 106zM475 256q0 -78 27.5 -112.5t87.5 -34.5q88 -1 162 69v332q-115 -8 -174.5 -36t-81 -79t-21.5 -139zM766 1323q0 63 44 106.5t114 43.5 t113.5 -43.5t43.5 -106.5t-44 -106t-113 -43q-70 0 -114 43t-44 106z" />
<glyph unicode="&#xe5;" horiz-adv-x="1318" d="M78 227q0 127 74.5 199t218 102.5t381.5 36.5v150q0 115 -45 165t-158 50q-94 0 -175 -25.5t-165 -77.5l-27 39q98 70 236.5 112t310.5 42q231 0 329.5 -91t98.5 -263v-568q0 -23 9.5 -31t39.5 -14l72 -16v-37h-422q-57 0 -80.5 23.5t-23.5 78.5v11q-137 -133 -392 -133 q-133 0 -207.5 60t-74.5 187zM446 1354q0 96 67 145t167 49t166.5 -49t66.5 -145t-66.5 -145.5t-166.5 -49.5t-167 49t-67 146zM475 256q0 -78 27.5 -112.5t87.5 -34.5q88 -1 162 69v332q-115 -8 -174.5 -36t-81 -79t-21.5 -139zM592 1354q0 -80 20.5 -120t67.5 -40t67.5 40 t20.5 120t-20.5 119.5t-67.5 39.5t-67.5 -39.5t-20.5 -119.5z" />
<glyph unicode="&#xe6;" horiz-adv-x="1974" d="M78 227q0 127 77.5 199t226 102.5t386.5 36.5v150q0 115 -49 165t-162 50q-180 0 -348 -103l-27 39q96 68 238.5 111t308.5 43q186 0 293 -72q139 72 350 72q162 0 275.5 -53.5t171 -142.5t57.5 -197q0 -55 -10 -103h-690q2 -225 70.5 -345t254.5 -120q86 0 160 29 t154 82l26 -39q-190 -156 -491 -156q-154 0 -271.5 48.5t-193.5 138.5q-293 -182 -516 -182q-135 0 -213 61t-78 186zM475 256q0 -76 31 -111.5t92 -35.5q88 0 170 61v340q-117 -8 -179.5 -36t-88 -80t-25.5 -138zM1176 578h319v153q0 121 -29.5 180.5t-105.5 59.5 q-100 0 -141 -96.5t-43 -296.5z" />
<glyph unicode="&#xe7;" horiz-adv-x="1302" d="M102 510q0 254 168 382t496 128q256 0 420 -82l-25 -268h-39q-43 152 -113.5 224.5t-205.5 72.5q-150 0 -212.5 -104.5t-62.5 -309.5q0 -170 27 -274.5t96.5 -158.5t196.5 -54q96 0 176 27.5t158 80.5l26 -39q-96 -74 -216 -117t-279 -43q-39 0 -58 2l-4 -51 q133 -6 208 -50t75 -128q0 -86 -70.5 -130t-177.5 -44q-51 0 -106.5 12.5t-87.5 28.5l14 37q57 -27 141 -27q59 0 87 19.5t28 66.5q0 59 -44 89t-126 44l18 138q-241 20 -374.5 152t-133.5 376z" />
<glyph unicode="&#xe8;" horiz-adv-x="1347" d="M102 510q0 248 166 379t465 131q170 0 287 -53.5t173 -142.5t56 -197q0 -55 -10 -103h-715q2 -227 73 -346t265 -119q96 0 171 29t155 82l26 -39q-190 -156 -503 -156q-283 0 -446 136.5t-163 398.5zM481 1292q2 57 35 106.5t80 71.5q61 -63 161.5 -140t119.5 -91l77 -57 l-10 -23q-102 16 -238.5 54t-224.5 79zM524 578h344v153q0 125 -29.5 182.5t-117.5 57.5q-113 0 -154 -94.5t-43 -298.5z" />
<glyph unicode="&#xe9;" horiz-adv-x="1347" d="M102 510q0 248 166 379t465 131q170 0 287 -53.5t173 -142.5t56 -197q0 -55 -10 -103h-715q2 -227 73 -346t265 -119q96 0 171 29t155 82l26 -39q-190 -156 -503 -156q-283 0 -446 136.5t-163 398.5zM475 1182l78 57q18 14 118.5 91t162.5 140q47 -22 79.5 -71t34.5 -107 q-88 -41 -224 -78.5t-239 -54.5zM524 578h344v153q0 125 -29.5 182.5t-117.5 57.5q-113 0 -154 -94.5t-43 -298.5z" />
<glyph unicode="&#xea;" horiz-adv-x="1347" d="M102 510q0 248 166 379t465 131q170 0 287 -53.5t173 -142.5t56 -197q0 -55 -10 -103h-715q2 -227 73 -346t265 -119q96 0 171 29t155 82l26 -39q-190 -156 -503 -156q-283 0 -446 136.5t-163 398.5zM387 1190q147 121 275 280h106q120 -151 274 -280l-22 -31 q-150 51 -305 141q-156 -90 -305 -141zM524 578h344v153q0 125 -29.5 182.5t-117.5 57.5q-113 0 -154 -94.5t-43 -298.5z" />
<glyph unicode="&#xeb;" horiz-adv-x="1347" d="M102 510q0 248 166 379t465 131q170 0 287 -53.5t173 -142.5t56 -197q0 -55 -10 -103h-715q2 -227 73 -346t265 -119q96 0 171 29t155 82l26 -39q-190 -156 -503 -156q-283 0 -446 136.5t-163 398.5zM313 1323q0 63 44 106.5t114 43.5t114 -43.5t44 -106.5t-44 -106 t-114 -43t-114 43t-44 106zM524 578h344v153q0 125 -29.5 182.5t-117.5 57.5q-113 0 -154 -94.5t-43 -298.5zM801 1323q0 63 44 106.5t113 43.5q70 0 114 -43.5t44 -106.5t-44 -106t-114 -43q-69 0 -113 43t-44 106z" />
<glyph unicode="&#xec;" horiz-adv-x="757" d="M53 0v37l72 16q31 6 40 14.5t9 30.5v774q0 23 -9 31t-40 15l-72 16v37l492 61h39v-934q0 -23 9 -31t40 -14l72 -16v-37h-652zM63 1292q2 57 35 106.5t80 71.5q62 -63 162 -140t119 -91l78 -57l-11 -23q-102 16 -238 54t-225 79z" />
<glyph unicode="&#xed;" horiz-adv-x="757" d="M53 0v37l72 16q31 6 40 14.5t9 30.5v774q0 23 -9 31t-40 15l-72 16v37l492 61h39v-934q0 -23 9 -31t40 -14l72 -16v-37h-652zM221 1182l78 57q18 14 118.5 91t162.5 140q47 -22 79.5 -71t34.5 -107q-88 -41 -224 -78.5t-239 -54.5z" />
<glyph unicode="&#xee;" horiz-adv-x="757" d="M51 1190q147 121 275 280h106q121 -151 275 -280l-23 -31q-150 51 -305 141q-156 -90 -305 -141zM53 0v37l72 16q31 6 40 14.5t9 30.5v774q0 23 -9 31t-40 15l-72 16v37l492 61h39v-934q0 -23 9 -31t40 -14l72 -16v-37h-652z" />
<glyph unicode="&#xef;" horiz-adv-x="757" d="M-23 1323q0 63 44.5 106.5t113.5 43.5q70 0 114 -43.5t44 -106.5t-44 -106t-114 -43q-69 0 -113.5 43t-44.5 106zM53 0v37l72 16q31 6 40 14.5t9 30.5v774q0 23 -9 31t-40 15l-72 16v37l492 61h39v-934q0 -23 9 -31t40 -14l72 -16v-37h-652zM465 1323q0 63 44 106.5 t114 43.5t113.5 -43.5t43.5 -106.5t-44 -106t-113 -43q-70 0 -114 43t-44 106z" />
<glyph unicode="&#xf0;" horiz-adv-x="1239" d="M102 498q0 264 165 393t474 129q78 0 154 -16q-43 119 -129 210l-170 -98l-29 49l158 90q-111 102 -270 168l12 31q205 -37 381 -127l213 123l29 -49l-183 -107q219 -127 346 -329.5t127 -466.5t-164.5 -393.5t-474.5 -129.5q-309 0 -474 129t-165 394zM528 498 q0 -183 17.5 -281t62.5 -143t133 -45t133.5 45t62.5 143t17 281q0 182 -17 280.5t-62.5 143.5t-133.5 45t-133 -45t-62.5 -143.5t-17.5 -280.5z" />
<glyph unicode="&#xf1;" horiz-adv-x="1536" d="M49 0v37l72 16q31 6 40 14.5t9 30.5v774q0 23 -9 31t-40 15l-72 16v37l492 61h34v-166q78 63 191 108.5t250 45.5q190 0 272 -80t82 -240v-602q0 -22 9.5 -30.5t39.5 -14.5l72 -16v-37h-426q-55 0 -79.5 28.5t-24.5 86.5v622q0 92 -30 131t-100 39q-123 0 -251 -102v-707 q0 -23 9 -32t38 -15l69 -14v-37h-647zM381 1194q31 80 54.5 129t63.5 88t95 39q37 0 91 -18.5t192 -73.5l73 -29q18 -8 47 -8q25 0 47.5 10t36.5 29l49 61l25 -10q-31 -80 -54.5 -129t-63.5 -88t-95 -39q-37 0 -91 18.5t-192 73.5l-73 29q-18 8 -47 8q-25 0 -47.5 -10 t-36.5 -29l-49 -61z" />
<glyph unicode="&#xf2;" horiz-adv-x="1482" d="M102 498q0 264 165 393t474 129t474 -129t165 -393q0 -265 -164.5 -394t-474.5 -129q-309 0 -474 129t-165 394zM385 1292q2 57 35 106.5t80 71.5q61 -63 161.5 -140t118.5 -91l78 -57l-10 -23q-102 16 -238.5 54t-224.5 79zM528 498q0 -183 17.5 -281t62.5 -143t133 -45 t133.5 45t62.5 143t17 281q0 182 -17 280.5t-62.5 143.5t-133.5 45t-133 -45t-62.5 -143.5t-17.5 -280.5z" />
<glyph unicode="&#xf3;" horiz-adv-x="1482" d="M102 498q0 264 165 393t474 129t474 -129t165 -393q0 -265 -164.5 -394t-474.5 -129q-309 0 -474 129t-165 394zM528 498q0 -183 17.5 -281t62.5 -143t133 -45t133.5 45t62.5 143t17 281q0 182 -17 280.5t-62.5 143.5t-133.5 45t-133 -45t-62.5 -143.5t-17.5 -280.5z M625 1182l77 57q18 14 119 91t162 140q47 -22 80 -71t35 -107q-88 -41 -224.5 -78.5t-238.5 -54.5z" />
<glyph unicode="&#xf4;" horiz-adv-x="1482" d="M102 498q0 264 165 393t474 129t474 -129t165 -393q0 -265 -164.5 -394t-474.5 -129q-309 0 -474 129t-165 394zM414 1190q147 121 274 280h107q120 -151 274 -280l-22 -31q-150 51 -306 141q-156 -90 -305 -141zM528 498q0 -183 17.5 -281t62.5 -143t133 -45t133.5 45 t62.5 143t17 281q0 182 -17 280.5t-62.5 143.5t-133.5 45t-133 -45t-62.5 -143.5t-17.5 -280.5z" />
<glyph unicode="&#xf5;" horiz-adv-x="1482" d="M102 498q0 264 165 393t474 129t474 -129t165 -393q0 -265 -164.5 -394t-474.5 -129q-309 0 -474 129t-165 394zM354 1194q31 80 54.5 129t63.5 88t95 39q37 0 91.5 -18.5t191.5 -73.5l74 -29q18 -8 47 -8q25 0 47 10t37 29l49 61l24 -10q-31 -80 -54 -129t-63 -88 t-96 -39q-36 0 -90.5 18.5t-191.5 73.5l-74 29q-18 8 -47 8q-25 0 -47.5 -10t-36.5 -29l-49 -61zM528 498q0 -183 17.5 -281t62.5 -143t133 -45t133.5 45t62.5 143t17 281q0 182 -17 280.5t-62.5 143.5t-133.5 45t-133 -45t-62.5 -143.5t-17.5 -280.5z" />
<glyph unicode="&#xf6;" horiz-adv-x="1482" d="M102 498q0 264 165 393t474 129t474 -129t165 -393q0 -265 -164.5 -394t-474.5 -129q-309 0 -474 129t-165 394zM340 1323q0 63 44 106.5t114 43.5t113.5 -43.5t43.5 -106.5t-44 -106t-113 -43q-70 0 -114 43t-44 106zM528 498q0 -183 17.5 -281t62.5 -143t133 -45 t133.5 45t62.5 143t17 281q0 182 -17 280.5t-62.5 143.5t-133.5 45t-133 -45t-62.5 -143.5t-17.5 -280.5zM827 1323q0 63 44 106.5t114 43.5t114 -43.5t44 -106.5t-44 -106t-114 -43t-114 43t-44 106z" />
<glyph unicode="&#xf7;" horiz-adv-x="1171" d="M152 643v57h864v-57h-864zM414 319q0 70 50 119t122 49q71 0 121.5 -49t50.5 -119t-50.5 -118.5t-121.5 -48.5q-72 0 -122 49t-50 118zM414 1024q0 70 50 119t122 49t122 -49t50 -119t-50.5 -119t-121.5 -49q-72 0 -122 49t-50 119z" />
<glyph unicode="&#xf8;" horiz-adv-x="1482" d="M102 498q0 264 165 393t474 129q170 0 293 -39l78 115l47 -33l-67 -100q289 -117 288 -465q0 -265 -164.5 -394t-474.5 -129q-168 0 -295 37l-75 -112l-47 32l67 101q-289 117 -289 465zM528 498q1 -164 11 -246l389 571q-23 76 -67 110t-120 34q-88 0 -133 -45 t-62.5 -143.5t-17.5 -280.5zM555 172q20 -76 64.5 -109.5t121.5 -33.5q88 0 133.5 45t62.5 143t17 281q0 147 -12 245z" />
<glyph unicode="&#xf9;" d="M41 934v37l496 61h34v-774q0 -92 30 -131t99 -39q123 0 248 102v682q0 23 -9 31t-40 15l-72 16v37l496 61h35v-934q0 -23 9 -31t40 -14l72 -16v-37h-416q-59 0 -85 25.5t-26 80.5v23q-74 -63 -186.5 -108.5t-249.5 -45.5q-190 0 -272 80t-82 240v577q0 23 -9.5 31 t-39.5 15zM362 1292q2 57 35 106.5t80 71.5q62 -63 162 -140t119 -91l78 -57l-11 -23q-102 16 -238 54t-225 79z" />
<glyph unicode="&#xfa;" d="M41 934v37l496 61h34v-774q0 -92 30 -131t99 -39q123 0 248 102v682q0 23 -9 31t-40 15l-72 16v37l496 61h35v-934q0 -23 9 -31t40 -14l72 -16v-37h-416q-59 0 -85 25.5t-26 80.5v23q-74 -63 -186.5 -108.5t-249.5 -45.5q-190 0 -272 80t-82 240v577q0 23 -9.5 31 t-39.5 15zM586 1182l78 57q18 14 118.5 91t161.5 140q47 -22 80 -71t35 -107q-88 -41 -224.5 -78.5t-238.5 -54.5z" />
<glyph unicode="&#xfb;" d="M41 934v37l496 61h34v-774q0 -92 30 -131t99 -39q123 0 248 102v682q0 23 -9 31t-40 15l-72 16v37l496 61h35v-934q0 -23 9 -31t40 -14l72 -16v-37h-416q-59 0 -85 25.5t-26 80.5v23q-74 -63 -186.5 -108.5t-249.5 -45.5q-190 0 -272 80t-82 240v577q0 23 -9.5 31 t-39.5 15zM436 1190q147 121 275 280h106q121 -151 275 -280l-23 -31q-150 51 -305 141q-156 -90 -305 -141z" />
<glyph unicode="&#xfc;" d="M41 934v37l496 61h34v-774q0 -92 30 -131t99 -39q123 0 248 102v682q0 23 -9 31t-40 15l-72 16v37l496 61h35v-934q0 -23 9 -31t40 -14l72 -16v-37h-416q-59 0 -85 25.5t-26 80.5v23q-74 -63 -186.5 -108.5t-249.5 -45.5q-190 0 -272 80t-82 240v577q0 23 -9.5 31 t-39.5 15zM362 1323q0 63 44.5 106.5t113.5 43.5q70 0 114 -43.5t44 -106.5t-44 -106t-114 -43q-69 0 -113.5 43t-44.5 106zM850 1323q0 63 44 106.5t114 43.5t113.5 -43.5t43.5 -106.5t-44 -106t-113 -43q-70 0 -114 43t-44 106z" />
<glyph unicode="&#xfd;" horiz-adv-x="1191" d="M8 965v30h643v-30l-53 -13q-47 -10 -47 -39q0 -12 10 -32l238 -478l223 521q6 12 6 20q0 12 -27 14l-53 7v30h236v-30l-54 -9q-25 -4 -35 -10t-20 -28l-399 -918q-82 -190 -134.5 -279.5t-117 -137.5t-172.5 -75l-111 312q139 6 264 46t216 101l-494 942 q-10 18 -23.5 26.5t-33.5 12.5zM645 1182l78 57q18 14 118.5 91t162.5 140q47 -22 79.5 -71t34.5 -107q-88 -41 -224 -78.5t-239 -54.5z" />
<glyph unicode="&#xfe;" d="M49 -426l72 16q31 6 40 14.5t9 30.5v1700q0 23 -9 31t-40 14l-72 17v37l492 61h39v-577q137 102 352 102q227 0 360 -123t133 -387q0 -272 -133 -401t-360 -129t-352 133v-478q0 -23 9 -30.5t40 -14.5l71 -16v-37h-651v37zM580 182q47 -51 106 -82.5t125 -31.5 q74 0 116 45t59.5 140t17.5 257q0 227 -45.5 325.5t-157.5 98.5q-127 0 -221 -78v-674z" />
<glyph unicode="&#xff;" horiz-adv-x="1191" d="M8 965v30h643v-30l-53 -13q-47 -10 -47 -39q0 -12 10 -32l238 -478l223 521q6 12 6 20q0 12 -27 14l-53 7v30h236v-30l-54 -9q-25 -4 -35 -10t-20 -28l-399 -918q-82 -190 -134.5 -279.5t-117 -137.5t-172.5 -75l-111 312q139 6 264 46t216 101l-494 942 q-10 18 -23.5 26.5t-33.5 12.5zM276 1323q0 63 44.5 106.5t113.5 43.5q70 0 114 -43.5t44 -106.5t-44 -106t-114 -43q-69 0 -113.5 43t-44.5 106zM764 1323q0 63 44 106.5t114 43.5t113.5 -43.5t43.5 -106.5t-44 -106t-113 -43q-70 0 -114 43t-44 106z" />
<glyph unicode="&#x152;" horiz-adv-x="2387" d="M115 717q0 393 225 555t655 162h1233v-400h-55q-47 137 -83 203t-102.5 100.5t-187.5 34.5h-225v-608h463v-62h-463v-641h246q121 0 188.5 37t105 104.5t85.5 205.5h57v-408h-1262q-430 0 -655 162t-225 555zM567 717q0 -256 37 -395.5t129 -200t262 -60.5h123 q39 0 39 41v1229q0 41 -39 41h-123q-170 0 -262 -60.5t-129 -199.5t-37 -395z" />
<glyph unicode="&#x153;" horiz-adv-x="2187" d="M102 498q0 264 165 393t474 129q256 0 416 -109q160 109 416 109q170 0 286.5 -53.5t173 -142.5t56.5 -197q0 -55 -10 -103h-715q2 -227 72.5 -346t265.5 -119q96 0 171 29t155 82l26 -39q-190 -156 -504 -156q-242 0 -391 109q-160 -109 -418 -109q-309 0 -474 129 t-165 394zM528 498q0 -183 17.5 -281t62.5 -143t133 -45t133.5 45t62.5 143t17 281q0 182 -17 280.5t-62.5 143.5t-133.5 45t-133 -45t-62.5 -143.5t-17.5 -280.5zM1364 578h344v153q0 125 -29.5 182.5t-117.5 57.5q-113 0 -154 -94.5t-43 -298.5z" />
<glyph unicode="&#x178;" horiz-adv-x="1474" d="M8 1393v41h666v-41l-82 -9q-29 -2 -29 -24q0 -12 8 -27l328 -618l365 622q4 13 4 15q0 14 -12.5 23t-28.5 11l-97 9v39h340v-41l-63 -7q-33 -2 -45 -13t-29 -38l-391 -671v-562q0 -23 9.5 -31t39.5 -14l76 -16v-41h-668v41l76 16q31 6 40 14.5t9 30.5v549l-377 684 q-14 25 -26 36t-33 13zM438 1720q0 63 44 106.5t114 43.5t114 -43t44 -107q0 -63 -44 -106t-114 -43t-114 43t-44 106zM926 1720q0 63 44 106.5t113 43.5q70 0 114 -43t44 -107q0 -63 -44 -106t-114 -43q-69 0 -113 43t-44 106z" />
<glyph unicode="&#x2c6;" horiz-adv-x="901" d="M123 1190q147 121 274 280h107q120 -151 274 -280l-22 -31q-150 51 -305 141q-156 -90 -306 -141z" />
<glyph unicode="&#x2dc;" horiz-adv-x="901" d="M63 1194q31 80 54.5 129t63.5 88t95 39q37 0 91.5 -18.5t191.5 -73.5l74 -29q18 -8 47 -8q25 0 47.5 10t36.5 29l49 61l25 -10q-31 -80 -54.5 -129t-63.5 -88t-95 -39q-37 0 -91.5 18.5t-191.5 73.5l-74 29q-18 8 -47 8q-25 0 -47 -10t-37 -29l-49 -61z" />
<glyph unicode="&#x2000;" horiz-adv-x="935" />
<glyph unicode="&#x2001;" horiz-adv-x="1870" />
<glyph unicode="&#x2002;" horiz-adv-x="935" />
<glyph unicode="&#x2003;" horiz-adv-x="1870" />
<glyph unicode="&#x2004;" horiz-adv-x="623" />
<glyph unicode="&#x2005;" horiz-adv-x="467" />
<glyph unicode="&#x2006;" horiz-adv-x="311" />
<glyph unicode="&#x2007;" horiz-adv-x="311" />
<glyph unicode="&#x2008;" horiz-adv-x="233" />
<glyph unicode="&#x2009;" horiz-adv-x="374" />
<glyph unicode="&#x200a;" horiz-adv-x="103" />
<glyph unicode="&#x2010;" horiz-adv-x="638" d="M82 541v57h475v-57h-475z" />
<glyph unicode="&#x2011;" horiz-adv-x="638" d="M82 541v57h475v-57h-475z" />
<glyph unicode="&#x2012;" horiz-adv-x="638" d="M82 541v57h475v-57h-475z" />
<glyph unicode="&#x2013;" horiz-adv-x="1089" d="M82 541v57h926v-57h-926z" />
<glyph unicode="&#x2014;" horiz-adv-x="1458" d="M82 541v57h1294v-57h-1294z" />
<glyph unicode="&#x2018;" horiz-adv-x="606" d="M135 1014q0 119 72 240.5t176 203.5l41 -43q-133 -141 -133 -266q14 2 39 2q78 0 117.5 -44t39.5 -110q0 -70 -46 -116.5t-126 -46.5q-82 0 -131 46t-49 134z" />
<glyph unicode="&#x2019;" horiz-adv-x="606" d="M119 1286q0 70 46 117t126 47q82 0 131 -46t49 -134q0 -119 -71.5 -241t-176.5 -204l-41 43q133 141 133 267q-14 -2 -39 -2q-78 0 -117.5 44t-39.5 109z" />
<glyph unicode="&#x201a;" horiz-adv-x="606" d="M119 156q0 70 46 116.5t126 46.5q82 0 131 -46t49 -134q0 -119 -71.5 -240.5t-176.5 -203.5l-41 43q133 141 133 266q-14 -2 -39 -2q-78 0 -117.5 44t-39.5 110z" />
<glyph unicode="&#x201c;" horiz-adv-x="1085" d="M135 1014q0 119 72 240.5t176 203.5l41 -43q-133 -141 -133 -266q14 2 39 2q78 0 117.5 -44t39.5 -110q0 -70 -46 -116.5t-126 -46.5q-82 0 -131 46t-49 134zM614 1014q0 119 72 240.5t176 203.5l41 -43q-133 -141 -133 -266q14 2 39 2q78 0 118 -44t40 -110 q0 -70 -46.5 -116.5t-125.5 -46.5q-82 0 -131.5 46t-49.5 134z" />
<glyph unicode="&#x201d;" horiz-adv-x="1085" d="M119 1286q0 70 46 117t126 47q82 0 131 -46t49 -134q0 -119 -71.5 -241t-176.5 -204l-41 43q133 141 133 267q-14 -2 -39 -2q-78 0 -117.5 44t-39.5 109zM598 1286q0 70 46 117t126 47q82 0 131 -46t49 -134q0 -119 -71.5 -241t-176.5 -204l-40 43q133 141 133 267 q-14 -2 -39 -2q-78 0 -118 44t-40 109z" />
<glyph unicode="&#x201e;" horiz-adv-x="1085" d="M119 156q0 70 46 116.5t126 46.5q82 0 131 -46t49 -134q0 -119 -71.5 -240.5t-176.5 -203.5l-41 43q133 141 133 266q-14 -2 -39 -2q-78 0 -117.5 44t-39.5 110zM598 156q0 70 46 116.5t126 46.5q82 0 131 -46t49 -134q0 -119 -71.5 -240.5t-176.5 -203.5l-40 43 q133 141 133 266q-14 -2 -39 -2q-78 0 -118 44t-40 110z" />
<glyph unicode="&#x2022;" horiz-adv-x="790" d="M123 569q0 74 37 134.5t99.5 96.5t135.5 36q74 0 136.5 -36t99.5 -96.5t37 -134.5t-37 -134t-99.5 -96t-136.5 -36q-73 0 -135.5 36t-99.5 96.5t-37 133.5z" />
<glyph unicode="&#x2026;" horiz-adv-x="1646" d="M102 152q0 70 50.5 118.5t121.5 48.5q72 0 122 -49t50 -118q0 -70 -50 -119t-122 -49q-71 0 -121.5 49t-50.5 119zM651 152q0 70 50.5 118.5t121.5 48.5q72 0 122 -49t50 -118q0 -70 -50 -119t-122 -49q-71 0 -121.5 49t-50.5 119zM1200 152q0 70 50 118.5t122 48.5 t122 -49t50 -118q0 -70 -50 -119t-122 -49t-122 49t-50 119z" />
<glyph unicode="&#x202f;" horiz-adv-x="374" />
<glyph unicode="&#x2039;" horiz-adv-x="614" d="M111 537v61l348 346l33 -29q-147 -174 -148 -348q0 -174 148 -348l-33 -29z" />
<glyph unicode="&#x203a;" horiz-adv-x="614" d="M123 219q147 174 147 348t-147 348l33 29l348 -346v-61l-348 -347z" />
<glyph unicode="&#x205f;" horiz-adv-x="467" />
<glyph unicode="&#x20ac;" horiz-adv-x="1519" d="M33 545v57h141q-6 55 -6 115q0 59 6 114h-141v58h147q49 293 256 431t510 138q147 0 255 -25.5t196 -70.5l-29 -348h-53q-59 180 -141 282.5t-226 102.5q-154 0 -231.5 -124t-93.5 -386h458v-58h-460q-2 -37 -3 -114q0 -78 3 -115h460v-57h-458q16 -262 94 -386t233 -124 q143 0 228.5 104.5t144.5 280.5h53l29 -348q-193 -96 -457 -97q-303 0 -511 137.5t-257 432.5h-147z" />
<glyph unicode="&#x2122;" horiz-adv-x="1982" d="M61 1212v222h746v-222h-27q-20 70 -39.5 107t-56.5 58.5t-100 21.5h-25v-641q0 -12 5 -16.5t22 -8.5l43 -8v-29h-389v29l43 8q16 4 20 7t4 18v641h-22q-63 0 -100.5 -21.5t-56.5 -58.5t-40 -107h-27zM893 696v29l43 8q16 4 20.5 7t4.5 18v614q0 14 -4.5 17.5t-20.5 7.5 l-43 8v29h293l203 -441l188 441h319v-29l-43 -8q-16 -4 -21 -8.5t-5 -16.5v-614q0 -12 5 -16.5t21 -8.5l43 -8v-29h-389v29l43 8q16 4 20.5 7t4.5 18v569l-266 -631h-33l-275 604v-542q0 -12 5.5 -16.5t21.5 -8.5l43 -8v-29h-178z" />
<glyph unicode="&#x25fc;" horiz-adv-x="993" d="M0 0v993h993v-993h-993z" />
</font>
</defs>
</svg>
