<svg xmlns="http://www.w3.org/2000/svg" width="16" height="16" fill="#ffffff" class="bi bi-at" viewBox="0 0 11.128 11.41">
<path d="m11.128 5.032c0-2.967-2.249-5.032-5.482-5.032-3.35 0-5.646 2.318-5.646 5.702 0 3.493 2.235 5.708 5.762 5.708 0.862 0 1.689-0.123 2.304-0.335v-0.862c-0.43 0.199-1.354 0.328-2.29 0.328-2.926 0-4.813-1.88-4.813-4.798 0-2.844 1.921-4.881 4.594-4.881 2.735 0 4.608 1.688 4.608 4.156 0 1.682-0.554 2.769-1.416 2.769-0.492 0-0.772-0.28-0.772-0.76v-4.011h-1.032v0.834h-0.11c-0.266-0.595-0.881-0.964-1.6-0.964-1.4 0-2.378 1.162-2.378 2.823 0 1.737 0.957 2.906 2.379 2.906 0.8 0 1.415-0.39 1.709-1.087h0.11c0.081 0.67 0.703 1.148 1.503 1.148 1.572 0 2.57-1.415 2.57-3.643zm-7.177 0.704c0-1.197 0.54-1.907 1.456-1.907 0.93 0 1.524 0.738 1.524 1.907s-0.601 1.914-1.538 1.914c-0.895 0-1.442-0.725-1.442-1.914z"/>
</svg>
