<?xml version="1.0" encoding="UTF-8" standalone="no"?>
<svg
   xmlns:dc="http://purl.org/dc/elements/1.1/"
   xmlns:cc="http://creativecommons.org/ns#"
   xmlns:rdf="http://www.w3.org/1999/02/22-rdf-syntax-ns#"
   xmlns:svg="http://www.w3.org/2000/svg"
   xmlns="http://www.w3.org/2000/svg"
   xmlns:sodipodi="http://sodipodi.sourceforge.net/DTD/sodipodi-0.dtd"
   xmlns:inkscape="http://www.inkscape.org/namespaces/inkscape"
   width="16mm"
   height="10.274985mm"
   viewBox="0 0 16 10.274985"
   version="1.1"
   id="svg55"
   inkscape:version="1.0.2 (e86c870879, 2021-01-15, custom)"
   sodipodi:docname="circular_arrow_2.svg">
  <defs
     id="defs49">
    <inkscape:path-effect
       effect="spiro"
       id="path-effect1002"
       is_visible="true"
       lpeversion="1" />
    <inkscape:path-effect
       effect="spiro"
       id="path-effect75"
       is_visible="true"
       lpeversion="1" />
    <inkscape:path-effect
       effect="spiro"
       id="path-effect71"
       is_visible="true"
       lpeversion="1" />
    <inkscape:path-effect
       effect="spiro"
       id="path-effect67"
       is_visible="true"
       lpeversion="1" />
    <inkscape:path-effect
       effect="spiro"
       id="path-effect63"
       is_visible="true"
       lpeversion="1" />
    <inkscape:path-effect
       effect="spiro"
       id="path-effect59"
       is_visible="true"
       lpeversion="1" />
  </defs>
  <sodipodi:namedview
     id="base"
     pagecolor="#ffffff"
     bordercolor="#666666"
     borderopacity="1.0"
     inkscape:pageopacity="0.0"
     inkscape:pageshadow="2"
     inkscape:zoom="0.49497475"
     inkscape:cx="324.72904"
     inkscape:cy="76.900862"
     inkscape:document-units="mm"
     inkscape:current-layer="layer1"
     inkscape:document-rotation="0"
     showgrid="false"
     inkscape:snap-others="true"
     inkscape:object-nodes="false"
     inkscape:window-width="1920"
     inkscape:window-height="1001"
     inkscape:window-x="-9"
     inkscape:window-y="-9"
     inkscape:window-maximized="1" />
  <metadata
     id="metadata52">
    <rdf:RDF>
      <cc:Work
         rdf:about="">
        <dc:format>image/svg+xml</dc:format>
        <dc:type
           rdf:resource="http://purl.org/dc/dcmitype/StillImage" />
        <dc:title></dc:title>
      </cc:Work>
    </rdf:RDF>
  </metadata>
  <g
     inkscape:label="Layer 1"
     inkscape:groupmode="layer"
     id="layer1"
     transform="translate(-6.0000003,-115.58808)">
    <g
       id="g1019"
       transform="matrix(0.07372396,0,0,0.07372396,5.5576565,107.06647)">
      <g
         id="g973">
        <path
           style="fill:none;stroke:#000000;stroke-width:4;stroke-linecap:butt;stroke-linejoin:miter;stroke-miterlimit:4;stroke-dasharray:8, 4;stroke-dashoffset:0;stroke-opacity:1"
           d="m 10.016368,200.32738 c 6.112036,-4.9516 14.483531,-6.99186 22.188441,-5.40768 7.70491,1.58419 14.592358,6.7618 18.25501,13.72314 2.050751,3.89772 3.118727,8.26431 5.291669,12.09525 3.829601,6.75166 11.150867,11.37842 18.888805,11.99084 7.737938,0.61242 15.674269,-2.78702 20.609705,-8.77803 2.394592,-2.90674 4.086032,-6.32907 5.480652,-9.82739 1.74851,-4.38602 3.0777,-9.14439 2.26786,-13.79613 -0.68379,-3.9277 -2.91098,-7.53376 -6.00225,-10.05138 -3.091273,-2.51763 -7.007835,-3.95879 -10.985001,-4.23548 -3.977167,-0.2767 -8.003214,0.58714 -11.604074,2.29835 -3.600859,1.7112 -6.781449,4.25344 -9.395281,7.2638 -6.831651,7.86805 -9.606078,19.03351 -7.443869,29.22677 2.162209,10.19326 9.151057,19.21174 18.391931,24.02671 9.240874,4.81497 20.544121,5.39535 30.301814,1.73952 9.75769,-3.65583 17.8493,-11.44425 22.06113,-20.97515 3.98128,-9.0092 4.52981,-19.095 5.29167,-28.91517 0.67835,-8.7437 1.57933,-17.51586 3.83726,-25.99019 2.25792,-8.47433 5.9357,-16.69133 11.65976,-23.3357 3.60448,-4.184 7.96395,-7.68084 12.66221,-10.58333 9.5915,-5.92543 20.68147,-9.40335 31.93899,-10.01638"
           id="path73"
           inkscape:path-effect="#path-effect75"
           inkscape:original-d="m 10.016368,200.32738 c 9.330648,-6.12988 36.418125,29.15558 40.443451,8.31546 0.994918,-5.15094 1.896157,10.34604 5.291669,12.09525 13.279466,6.84093 26.695777,10.24176 39.49851,3.21281 2.747793,-1.5086 3.633086,-7.34473 5.480652,-9.82739 2.36997,-3.18463 2.17839,-9.94907 2.26786,-13.79613 0.83441,-35.87961 -37.986606,-26.482 -37.986606,-4.72471 0,23.10178 45.157386,44.00235 63.311006,34.01785 9.38805,-5.16342 3.86744,-20.13241 5.29167,-28.91517 2.16066,-13.32403 8.80364,-38.17024 15.49702,-49.32589 3.26508,-5.44179 7.01545,-8.01662 12.66221,-10.58333 10.62715,-4.83053 23.21853,-3.04001 31.93899,-10.01638"
           sodipodi:nodetypes="cssssssssssc" />
        <path
           d="m 223.02578,126.89295 -35.75627,20.73612 12.84352,-18.20222 -18.48252,-13.19259 z"
           fill="#ffffff"
           id="path4-7"
           style="fill:#000000;fill-opacity:1;stroke-width:0.701211;stroke-miterlimit:4;stroke-dasharray:none"
           inkscape:transform-center-x="-2.214509"
           inkscape:transform-center-y="2.5636364" />
      </g>
      <g
         id="g1011"
         transform="translate(-20.500599,127.75483)">
        <path
           style="fill:none;stroke:#ffffff;stroke-width:4;stroke-linecap:butt;stroke-linejoin:miter;stroke-miterlimit:4;stroke-dasharray:8, 4;stroke-dashoffset:0;stroke-opacity:1"
           d="m 27.759516,71.92637 c 6.112036,-4.951595 14.483531,-6.991862 22.188441,-5.407678 7.70491,1.584184 14.592358,6.761798 18.25501,13.723138 2.050751,3.897716 3.118727,8.264311 5.291669,12.09525 3.829601,6.75166 11.150868,11.37842 18.888807,11.99084 7.737937,0.61242 15.674267,-2.78702 20.609707,-8.77803 2.39459,-2.906739 4.08603,-6.329071 5.48065,-9.82739 1.74851,-4.386025 3.0777,-9.144395 2.26786,-13.79613 -0.68379,-3.927702 -2.91098,-7.533758 -6.00225,-10.051385 -3.09127,-2.517628 -7.00784,-3.958783 -10.985,-4.235478 -3.977169,-0.276695 -8.003217,0.587141 -11.604076,2.298348 -3.60086,1.711207 -6.78145,4.25344 -9.395282,7.263805 -6.831651,7.86805 -9.606078,19.033509 -7.443868,29.226767 2.162209,10.193263 9.151058,19.211743 18.391932,24.026713 9.240874,4.81497 20.544124,5.39535 30.301814,1.73952 9.75769,-3.65583 17.8493,-11.44425 22.06113,-20.97515 3.98128,-9.009196 4.52981,-19.094997 5.29167,-28.91517 0.67835,-8.743702 1.57933,-17.515865 3.83726,-25.990194 2.25792,-8.474329 5.9357,-16.691326 11.65976,-23.335696 3.60448,-4.184004 7.96395,-7.68084 12.66221,-10.58333 9.5915,-5.9254258 20.68147,-9.4033517 31.93899,-10.01638"
           id="path73-2"
           inkscape:path-effect="#path-effect1002"
           inkscape:original-d="m 27.759516,71.92637 c 9.330648,-6.12988 36.418125,29.15558 40.443451,8.31546 0.994918,-5.15094 1.896157,10.34604 5.291669,12.09525 13.279466,6.84093 26.695774,10.24176 39.498514,3.21281 2.74779,-1.5086 3.63308,-7.34473 5.48065,-9.82739 2.36997,-3.18463 2.17839,-9.94907 2.26786,-13.79613 0.83441,-35.87961 -37.986608,-26.482 -37.986608,-4.72471 0,23.10178 45.157388,44.00235 63.311008,34.01785 9.38805,-5.16342 3.86744,-20.13241 5.29167,-28.91517 2.16066,-13.32403 8.80364,-38.17024 15.49702,-49.32589 3.26508,-5.44179 7.01545,-8.01662 12.66221,-10.58333 10.62715,-4.83053 23.21853,-3.04001 31.93899,-10.01638"
           sodipodi:nodetypes="cssssssssssc" />
        <path
           d="M 240.76893,-1.50806 205.01266,19.22806 217.85618,1.02584 199.37366,-12.16675 Z"
           fill="#ffffff"
           id="path4-7-1"
           style="fill:#ffffff;fill-opacity:1;stroke-width:0.701211;stroke-miterlimit:4;stroke-dasharray:none"
           inkscape:transform-center-x="-2.214509"
           inkscape:transform-center-y="2.5636364" />
      </g>
    </g>
  </g>
</svg>
