<?xml version="1.0" encoding="UTF-8" standalone="no"?>
<svg
   xmlns:dc="http://purl.org/dc/elements/1.1/"
   xmlns:cc="http://creativecommons.org/ns#"
   xmlns:rdf="http://www.w3.org/1999/02/22-rdf-syntax-ns#"
   xmlns:svg="http://www.w3.org/2000/svg"
   xmlns="http://www.w3.org/2000/svg"
   xmlns:sodipodi="http://sodipodi.sourceforge.net/DTD/sodipodi-0.dtd"
   xmlns:inkscape="http://www.inkscape.org/namespaces/inkscape"
   width="16"
   height="12.480121"
   viewBox="0 0 4.2333364 3.302032"
   version="1.1"
   id="svg8"
   sodipodi:docname="circular_arrow.svg"
   inkscape:version="1.0.2 (e86c870879, 2021-01-15, custom)">
  <metadata
     id="metadata14">
    <rdf:RDF>
      <cc:Work
         rdf:about="">
        <dc:format>image/svg+xml</dc:format>
        <dc:type
           rdf:resource="http://purl.org/dc/dcmitype/StillImage" />
        <dc:title></dc:title>
      </cc:Work>
    </rdf:RDF>
  </metadata>
  <defs
     id="defs12" />
  <sodipodi:namedview
     pagecolor="#ffffff"
     bordercolor="#666666"
     borderopacity="1"
     objecttolerance="10"
     gridtolerance="10"
     guidetolerance="10"
     inkscape:pageopacity="0"
     inkscape:pageshadow="2"
     inkscape:window-width="1920"
     inkscape:window-height="1001"
     id="namedview10"
     showgrid="false"
     inkscape:pagecheckerboard="true"
     inkscape:snap-to-guides="false"
     inkscape:snap-others="false"
     inkscape:object-nodes="false"
     inkscape:snap-nodes="false"
     inkscape:snap-global="false"
     inkscape:zoom="1"
     inkscape:cx="487.1843"
     inkscape:cy="128.78906"
     inkscape:window-x="-9"
     inkscape:window-y="-9"
     inkscape:window-maximized="1"
     inkscape:current-layer="svg8" />
  <g
     id="g879"
     transform="matrix(0.03136866,0,0,0.03136866,0.06639742,-0.02074943)">
    <g
       id="g871">
      <path
         d="m 131.59077,82.980793 c -2.448,1.968 -5.911,4.247 -11.225,8.018 -4.465,3.169 -5.851,4.725 -10.958,7.751 -34.101001,20.207997 -41.589001,-24.687 -27.261001,-32.874 16.965,-9.694 19.671001,15.027 9.354,24.054 -3.879,3.394 -9.078,5.076 -13.631,6.414 -6.287,1.849 -12.185,3.788997 -18.976,2.94 -10.999,-1.375 -20.336,-28.452 -8.285,-34.478 17.047,-8.524 31.936,29.083 -5.345,29.934 -30.42601,0.695 -57.46001,-42.722 -20.045,-67.085"
         fill="none"
         stroke="#ffffff"
         stroke-width="4"
         stroke-dasharray="8, 4"
         id="path2-3"
         style="stroke:#000000;stroke-opacity:1" />
      <path
         d="m 61.636769,1.736793 -39.814,53.523 9.479,-31.926 -31.302,-0.574 z"
         fill="#ffffff"
         id="path4-7"
         style="fill:#000000;fill-opacity:1" />
    </g>
    <g
       transform="matrix(-1,0,0,1,131.34532,-37.29653)"
       id="g6"
       style="display:inline">
      <path
         d="m 1.871,119.202 c 2.448,1.968 5.911,4.247 11.225,8.018 4.465,3.169 5.851,4.725 10.958,7.751 34.101,20.208 41.589,-24.687 27.261,-32.874 -16.965,-9.694 -19.671,15.027 -9.354,24.054 3.879,3.394 9.078,5.076 13.631,6.414 6.287,1.849 12.185,3.789 18.976,2.94 10.999,-1.375 20.336,-28.452 8.285,-34.478 -17.047,-8.524 -31.936,29.083 5.345,29.934 30.426,0.695 57.46,-42.722 20.045,-67.085"
         fill="none"
         stroke="#ffffff"
         stroke-width="4"
         stroke-dasharray="8, 4"
         id="path2" />
      <path
         d="m 71.825,37.958 39.814,53.523 -9.479,-31.926 31.302,-0.574 z"
         fill="#ffffff"
         id="path4" />
    </g>
  </g>
</svg>
