<svg xmlns="http://www.w3.org/2000/svg" xmlns:xlink="http://www.w3.org/1999/xlink" width="60.472" height="38.835" viewBox="0 0 16 10.275" xmlns:v="https://vecta.io/nano"><g transform="matrix(.073724 0 0 .073724 -.442344 -8.52161)"><use xlink:href="#B" fill="none" stroke="#000" stroke-width="4" stroke-dasharray="8, 4"/><path d="M223.026 126.893l-35.756 20.736 12.844-18.202-18.483-13.193z"/><use xlink:href="#B" x="-2.757" y="-0.646" fill="none" stroke="#fff" stroke-width="4" stroke-dasharray="8, 4"/><path d="M220.268 126.247l-35.756 20.736 12.844-18.202-18.483-13.193z" fill="#fff"/></g><defs ><path id="B" d="M10.016 200.327c6.112-4.952 14.484-6.992 22.188-5.408s14.592 6.762 18.255 13.723c2.051 3.898 3.119 8.264 5.292 12.095 3.83 6.752 11.151 11.378 18.889 11.991s15.674-2.787 20.61-8.778c2.395-2.907 4.086-6.329 5.481-9.827 1.749-4.386 3.078-9.144 2.268-13.796-.684-3.928-2.911-7.534-6.002-10.051s-7.008-3.959-10.985-4.235-8.003.587-11.604 2.298-6.781 4.253-9.395 7.264c-6.832 7.868-9.606 19.034-7.444 29.227s9.151 19.212 18.392 24.027 20.544 5.395 30.302 1.74 17.849-11.444 22.061-20.975c3.981-9.009 4.53-19.095 5.292-28.915.678-8.744 1.579-17.516 3.837-25.99s5.936-16.691 11.66-23.336c3.604-4.184 7.964-7.681 12.662-10.583 9.591-5.925 20.681-9.403 31.939-10.016"/></defs></svg>