<svg xmlns="http://www.w3.org/2000/svg" width="499.536" height="400.354" viewBox="0 0 132.169 105.927" xmlns:v="https://vecta.io/nano"><g transform="matrix(-1 0 0 1 133.461769 -36.221207)"><path d="M1.871 119.202c2.448 1.968 5.911 4.247 11.225 8.018 4.465 3.169 5.851 4.725 10.958 7.751 34.101 20.208 41.589-24.687 27.261-32.874-16.965-9.694-19.671 15.027-9.354 24.054 3.879 3.394 9.078 5.076 13.631 6.414 6.287 1.849 12.185 3.789 18.976 2.94 10.999-1.375 20.336-28.452 8.285-34.478-17.047-8.524-31.936 29.083 5.345 29.934 30.426.695 57.46-42.722 20.045-67.085" fill="none" stroke="#fff" stroke-width="4" stroke-dasharray="8, 4"/><path d="M71.825 37.958l39.814 53.523-9.479-31.926 31.302-.574z" fill="#fff"/></g></svg>