<?xml version="1.0" encoding="UTF-8"?>
<svg width="16" height="16" preserveAspectRatio="xMidYMid" version="1.1" viewBox="0 0 16 16" xmlns="http://www.w3.org/2000/svg" xmlns:osb="http://www.openswatchbook.org/uri/2009/osb">
 <path d="m16.082 5.443c-0.0037-0.019392-0.0069-0.038784-0.01207-0.057745-0.0032-0.011419-0.0071-0.022193-0.01077-0.033398-0.0054-0.016806-0.01099-0.033613-0.01767-0.049988-0.0047-0.011419-0.01012-0.022409-0.01529-0.033398-0.0073-0.015514-0.01486-0.030812-0.02348-0.045679-6e-3 -0.010989-0.01293-0.021331-0.01961-0.031889-0.0093-0.014221-0.01875-0.028226-0.02909-0.041801-0.0075-0.010127-0.01529-0.019823-0.02348-0.029519-0.01077-0.012927-0.02241-0.02521-0.03404-0.037276-9e-3 -0.00905-0.0181-0.018099-0.02758-0.026933-0.0125-0.011419-0.02542-0.022193-0.039-0.032536-0.01035-0.00797-0.02047-0.016159-0.03124-0.023486-0.0039-0.0028-0.0073-0.00603-0.01143-0.00862l-7.312-4.8752c-0.23076-0.15406-0.53177-0.15406-0.76253 0l-7.3124 4.8749c-0.004094 0.00259-0.007325 0.00582-0.011419 0.00862-0.010774 0.00754-0.0209 0.015514-0.031242 0.023486-0.013359 0.010557-0.026502 0.021331-0.038999 0.03232-0.00948 0.00862-0.01853 0.017668-0.027364 0.026933-0.012066 0.012066-0.02327 0.024348-0.034259 0.037276-0.008187 0.0097-0.015944 0.019392-0.023486 0.030165-0.010342 0.013574-0.019823 0.027364-0.029088 0.041801-0.006679 0.010557-0.013359 0.0209-0.019607 0.031889-0.008619 0.014868-0.016159 0.030165-0.02327 0.045248-0.005172 0.010989-0.010774 0.022193-0.015298 0.033398-0.006679 0.016376-0.012497 0.033182-0.017884 0.049988-0.003664 0.011204-0.007542 0.022193-0.010557 0.03232-0.004955 0.018961-0.008619 0.038138-0.012066 0.057745-0.001938 0.00991-0.004309 0.019607-0.005602 0.029734-0.0038785 0.029734-0.0060337 0.059469-0.0060337 0.08985v4.876c0 0.03017 0.0021551 0.06033 0.0064637 0.08985 0.001508 0.01077 0.00431 0.01939 0.006464 0.02974 0.003447 0.01939 0.006464 0.03878 0.012927 0.05818 0.003017 0.01077 0.006464 0.02155 0.010774 0.0334 0.005387 0.01724 0.010774 0.03448 0.017238 0.0502 0.004525 0.01077 0.010774 0.02155 0.015082 0.03232 0.00711 0.01508 0.015082 0.03017 0.023701 0.04589 0.006034 0.01077 0.012927 0.02155 0.019392 0.03146 0.009266 0.01508 0.019392 0.02801 0.030165 0.04094 0.00754 0.01077 0.015082 0.01939 0.023701 0.02973 0.010989 0.01293 0.021546 0.02586 0.034474 0.03728 0.008834 0.0086 0.017238 0.01939 0.02801 0.02586 0.012497 0.01077 0.025856 0.02155 0.038784 0.03275 0.010342 0.0086 0.021546 0.01508 0.030165 0.02349 0.004094 0.0022 0.006464 0.0065 0.010774 0.0084l7.3105 4.8775c0.11549 0.07757 0.24779 0.11635 0.38137 0.11571 0.13359-6.41e-4 0.26588-0.03878 0.38137-0.11571l7.3125-4.8749c0.0041-0.0026 0.0075-0.0056 0.01143-0.0084 0.01077-0.0075 0.0209-0.01551 0.03125-0.02349 0.01337-0.01056 0.0265-0.02155 0.039-0.03275 0.0095-0.0084 0.01853-0.01767 0.02758-0.02672 0.01184-0.01206 0.02327-0.02435 0.03404-0.03727 0.0082-0.0097 0.01595-0.01939 0.02348-0.02974 0.01035-0.01357 0.01982-0.02758 0.02909-0.0418 0.0067-0.01034 0.01335-0.0209 0.01961-0.03146 0.0086-0.01508 0.01616-0.03038 0.02348-0.04589 0.0052-0.01099 0.01056-0.02198 0.01529-0.03318 0.0067-0.01659 0.01228-0.0334 0.01767-0.0502 0.0037-0.0112 0.0075-0.02219 0.01077-0.0334 5e-3 -0.01896 0.0084-0.03835 0.01207-0.05775 0.0017-0.0099 0.0043-0.01961 0.0054-0.02973 0.0039-0.02975 6e-3 -0.05948 6e-3 -0.08986v-4.8752c0-0.030381-0.0024-0.060115-6e-3 -0.08985-0.0017-0.010557-5e-3 -0.019177-0.0071-0.029734h0.0011zm-7.9881 4.1835-2.4315-1.6263 2.4315-1.6266 2.4317 1.6266zm-0.68733-4.4472-2.9807 1.9937-2.4061-1.6095 5.3868-3.5912zm-4.2173 2.8207-1.7198 1.1504v-2.3008zm1.2366 0.82782 2.9807 1.9935v3.207l-5.3868-3.5916 2.4061-1.6093v4.335e-4zm4.3556 1.9931 2.9807-1.9935 2.4063 1.6093-5.3871 3.5912zm4.2173-2.8205 1.7201-1.1506v2.301l-1.7201-1.1508v4.334e-4zm-1.2366-0.82739-2.9807-1.9935v-3.2072l5.3871 3.5912z" fill="#fff" stroke-width=".17338"/>
</svg>
