<svg xmlns="http://www.w3.org/2000/svg" width="16" height="16" preserveAspectRatio="xMidYMid" xmlns:v="https://vecta.io/nano"><path d="M16.082 5.443l-.012-.058-.011-.033-.018-.05-.015-.033-.023-.046c-.006-.011-.013-.021-.02-.032l-.029-.042-.023-.03-.034-.037-.028-.027-.039-.033-.031-.023L8.475.116c-.231-.154-.532-.154-.763 0L.4 4.99l-.043.032-.039.032-.027.027-.034.037-.023.03-.029.042-.02.032a.6.6 0 0 0-.023.045l-.015.033-.018.05-.011.032-.012.058-.006.03a.69.69 0 0 0-.006.09v4.876c0 .03.002.06.006.09.002.011.004.019.006.03.003.019.006.039.013.058l.011.033.017.05.015.032.024.046.019.031c.009.015.019.028.03.041s.015.019.024.03.022.026.034.037.017.019.028.026l.039.033c.01.009.022.015.03.023l7.321 4.886c.115.078.248.116.381.116a.69.69 0 0 0 .381-.116l7.313-4.875.043-.032.039-.033.028-.027.034-.037.023-.03.029-.042.02-.031.023-.046.015-.033.018-.05.011-.033c.005-.019.008-.038.012-.058l.005-.03a.69.69 0 0 0 .006-.09V5.562c0-.03-.002-.06-.006-.09-.002-.011-.005-.019-.007-.03h.001zM8.094 9.627L5.662 8l2.432-1.627L10.526 8zm-.687-4.447L4.426 7.173 2.02 5.564l5.387-3.591zM3.189 8l-1.72 1.15V6.85zm1.237.828l2.981 1.994v3.207L2.02 10.437l2.406-1.609h0zm4.356 1.993l2.981-1.993 2.406 1.609-5.387 3.591zM12.999 8l1.72-1.151v2.301L12.999 8h0zm-1.237-.827L8.781 5.18V1.972l5.387 3.591z" fill="#fff"/></svg>