<svg width="20" height="34.681" version="1.1" viewBox="0 0 5.2916 9.1759" xmlns="http://www.w3.org/2000/svg">
 <g transform="translate(4.4579 .91906)">
  <rect x="-4.458" y="-.91906" width="5.2917" height="9.1759" fill-rule="evenodd" stroke-width=".47543"/>
  <path d="m0.077383 7.9757q-0.292 0-0.438-0.07-0.128-0.07-0.128-0.233v-1.525q-0.237-0.105-0.894-0.186-0.657-0.082-1.241-0.105-0.201 0.245-0.292 0.594l-0.073 0.233q-0.018 0.082-0.109 0.361t-0.201 0.489q-0.109 0.198-0.219 0.314-0.693 0-0.803-0.233 0.201-0.186 0.456-1.095l0.602-2.131q0.401-1.514 0.73-2.585 0.347-1.071 0.73-1.793 0.42-0.803 0.803-0.803 0.383 0 0.584 0.093 0 0.466 0.347 2.247 0.365 1.747 0.365 2.387 0 0.617 0.201 1.77 0.182 1.176 0.182 1.875 0 0.396-0.602 0.396zm-0.949-2.503q0.146 0 0.365-0.035-0.055-0.512-0.182-1.269-0.42-2.631-0.42-3.225v-0.093q-0.182 0.116-0.511 1.06-0.31 0.931-0.584 2.003-0.274 1.071-0.292 1.421 0.766 0.14 1.624 0.14z" fill="#fff"/>
 </g>
</svg>
