<svg xmlns="http://www.w3.org/2000/svg" width="18.898" height="33.139" viewBox="0 0 5 8.768" xmlns:v="https://vecta.io/nano"><path d="M4.398 8.768q-.292 0-.438-.07-.128-.07-.128-.233V6.94q-.237-.105-.894-.186-.657-.082-1.241-.105-.201.245-.292.594l-.073.233q-.018.082-.109.361-.091.279-.201.489-.109.198-.219.314-.693 0-.803-.233.201-.186.456-1.095l.602-2.131q.401-1.514.73-2.585.347-1.071.73-1.793Q2.938 0 3.321 0q.383 0 .584.093 0 .466.347 2.247.365 1.747.365 2.387 0 .617.201 1.77Q5 7.673 5 8.372q0 .396-.602.396zm-.949-2.503q.146 0 .365-.035-.055-.512-.182-1.269-.42-2.631-.42-3.225v-.093q-.182.116-.511 1.06-.31.931-.584 2.003-.274 1.071-.292 1.421.766.14 1.624.14z" fill="#fff"/></svg>