<?xml version="1.0" encoding="UTF-8" standalone="no"?>
<svg
   xmlns:dc="http://purl.org/dc/elements/1.1/"
   xmlns:cc="http://creativecommons.org/ns#"
   xmlns:rdf="http://www.w3.org/1999/02/22-rdf-syntax-ns#"
   xmlns:svg="http://www.w3.org/2000/svg"
   xmlns="http://www.w3.org/2000/svg"
   xmlns:sodipodi="http://sodipodi.sourceforge.net/DTD/sodipodi-0.dtd"
   xmlns:inkscape="http://www.inkscape.org/namespaces/inkscape"
   width="18.898"
   height="33.139"
   viewBox="0 0 5 8.768"
   version="1.1"
   id="svg4"
   sodipodi:docname="favicon.svg"
   inkscape:version="1.0.2 (e86c870879, 2021-01-15, custom)">
  <metadata
     id="metadata10">
    <rdf:RDF>
      <cc:Work
         rdf:about="">
        <dc:format>image/svg+xml</dc:format>
        <dc:type
           rdf:resource="http://purl.org/dc/dcmitype/StillImage" />
        <dc:title></dc:title>
      </cc:Work>
    </rdf:RDF>
  </metadata>
  <defs
     id="defs8" />
  <sodipodi:namedview
     pagecolor="#000000"
     bordercolor="#666666"
     borderopacity="1"
     objecttolerance="10"
     gridtolerance="10"
     guidetolerance="10"
     inkscape:pageopacity="1"
     inkscape:pageshadow="2"
     inkscape:window-width="1920"
     inkscape:window-height="1001"
     id="namedview6"
     showgrid="false"
     inkscape:zoom="25.046018"
     inkscape:cx="9.4490004"
     inkscape:cy="16.5695"
     inkscape:window-x="-9"
     inkscape:window-y="-9"
     inkscape:window-maximized="1"
     inkscape:current-layer="svg4" />
  <path
     d="M4.398 8.768q-.292 0-.438-.07-.128-.07-.128-.233V6.94q-.237-.105-.894-.186-.657-.082-1.241-.105-.201.245-.292.594l-.073.233q-.018.082-.109.361-.091.279-.201.489-.109.198-.219.314-.693 0-.803-.233.201-.186.456-1.095l.602-2.131q.401-1.514.73-2.585.347-1.071.73-1.793Q2.938 0 3.321 0q.383 0 .584.093 0 .466.347 2.247.365 1.747.365 2.387 0 .617.201 1.77Q5 7.673 5 8.372q0 .396-.602.396zm-.949-2.503q.146 0 .365-.035-.055-.512-.182-1.269-.42-2.631-.42-3.225v-.093q-.182.116-.511 1.06-.31.931-.584 2.003-.274 1.071-.292 1.421.766.14 1.624.14z"
     fill="#fff"
     id="path2" />
</svg>
