<?xml version="1.0" encoding="UTF-8" standalone="no"?>
<svg
   xmlns:dc="http://purl.org/dc/elements/1.1/"
   xmlns:cc="http://creativecommons.org/ns#"
   xmlns:rdf="http://www.w3.org/1999/02/22-rdf-syntax-ns#"
   xmlns:svg="http://www.w3.org/2000/svg"
   xmlns="http://www.w3.org/2000/svg"
   xmlns:sodipodi="http://sodipodi.sourceforge.net/DTD/sodipodi-0.dtd"
   xmlns:inkscape="http://www.inkscape.org/namespaces/inkscape"
   version="1.1"
   id="Layer_1"
   x="0px"
   y="0px"
   viewBox="0 0 23.518164 16"
   xml:space="preserve"
   sodipodi:docname="freeCodeCampLogo.svg"
   inkscape:version="1.0.2 (e86c870879, 2021-01-15, custom)"
   width="23.518164"
   height="16"><metadata
   id="metadata11"><rdf:RDF><cc:Work
       rdf:about=""><dc:format>image/svg+xml</dc:format><dc:type
         rdf:resource="http://purl.org/dc/dcmitype/StillImage" /></cc:Work></rdf:RDF></metadata><defs
   id="defs9" /><sodipodi:namedview
   pagecolor="#ffffff"
   bordercolor="#666666"
   borderopacity="1"
   objecttolerance="10"
   gridtolerance="10"
   guidetolerance="10"
   inkscape:pageopacity="0"
   inkscape:pageshadow="2"
   inkscape:window-width="1920"
   inkscape:window-height="1001"
   id="namedview7"
   showgrid="false"
   inkscape:zoom="2.7852349"
   inkscape:cx="162.99723"
   inkscape:cy="76.814135"
   inkscape:window-x="-9"
   inkscape:window-y="-9"
   inkscape:window-maximized="1"
   inkscape:current-layer="Layer_1" />

    
    
    <g
   id="g17"
   style="fill:white;fill-opacity:1"
   transform="matrix(0.10988256,0,0,0.10988256,-0.2318522,-0.10988256)"><path
     id="path29_1_"
     class="st0"
     d="M 2.11,70.96 C 2.11,48.32 9.77,28.35 25.33,10.68 30.96,4.15 35.5,1 38.62,1 c 1.08,0 2.27,0.24 3.11,1.09 0.84,0.85 1.44,1.69 1.44,2.91 0,1.69 -2.03,4.24 -5.99,8.23 -16.16,15.74 -24.3,35.1 -24.3,58.34 0,25.78 8.5,46.6 25.14,62.58 3.35,3.15 5.15,5.69 5.15,7.75 0,1.09 -0.6,2.3 -1.44,3.15 -0.84,0.85 -2.03,1.45 -3.11,1.45 -3.95,0 -9.34,-4.6 -16.4,-13.68 C 8.57,115.87 2.11,95.29 2.11,70.96 Z"
     style="fill:white;fill-opacity:1" /><path
     id="path31_1_"
     class="st0"
     d="m 216.14,76.65 c 0,22.64 -7.66,42.61 -23.22,60.28 -5.63,6.54 -10.18,9.68 -13.29,9.68 -1.08,0 -2.27,-0.24 -3.11,-1.09 -0.84,-0.85 -1.44,-2.06 -1.44,-3.15 0,-1.69 2.04,-4.24 5.99,-7.99 16.16,-15.74 24.3,-35.1 24.3,-58.34 0,-25.78 -8.5,-46.6 -25.14,-62.58 -3.35,-3.15 -5.15,-5.69 -5.15,-7.75 0,-1.09 0.6,-2.3 1.44,-3.15 0.84,-0.85 2.04,-1.45 3.11,-1.45 3.71,0 9.34,4.6 16.4,13.68 13.29,17.32 20.11,37.9 20.11,61.86 z"
     style="fill:white;fill-opacity:1" /><path
     id="path37_1_"
     class="st0"
     d="M 157.86,141.73 H 59.91 c -3,0 -5.99,-2.42 -5.99,-6.06 0,-3.33 2.4,-6.06 5.99,-6.06 h 97.95 c 3,0 5.99,2.42 5.99,6.06 0.01,3.63 -2.39,6.06 -5.99,6.06 z"
     style="fill:white;fill-opacity:1" /><path
     id="Shape"
     class="st0"
     d="m 88.41,13.23 c 0,0 8.14,5.69 8.14,15.98 0,17.79 -23.94,37.65 -23.94,56.04 0,19.97 15.08,33.05 29.69,36.92 2.03,0.48 2.99,-1.94 0.36,-2.54 -5.87,-1.45 -12.57,-9.32 -12.57,-21.67 0,-11.38 10.77,-15.61 15.2,-21.18 4.43,-5.69 3.35,-12.83 0.84,-14.89 -2.63,-2.06 -0.84,-4.84 3.83,-1.57 4.67,3.27 8.62,9.44 7.18,15.37 -1.8,7.5 0.6,11.86 4.43,12.35 3.83,0.48 8.14,-1.45 7.78,-5.08 -0.48,-3.63 -2.63,-7.5 -1.32,-7.5 2.75,0 8.62,6.9 8.62,17.79 0,10.89 -8.98,18.52 -11.61,21.42 -1.68,1.69 0.48,3.99 2.75,2.91 1.08,-0.48 3.47,-1.94 5.03,-3.03 7.06,-5.08 18.08,-15.37 18.08,-34.5 0,-19.97 -7.54,-28.93 -15.08,-36.31 -7.54,-7.5 -9.46,-5.57 -7.3,-1.94 6.46,11.14 2.51,14.89 -2.15,14.89 -5.51,0 -5.87,-12.59 -8.02,-22.27 C 113.55,12.98 94.4,9.35 90.81,9.11 c -3.47,0.12 -6.7,2.3 -2.4,4.12 z"
     style="fill:white;fill-opacity:1" /></g>
</svg>
