<svg xmlns="http://www.w3.org/2000/svg" width="23.518" height="16" fill="#fff" xmlns:v="https://vecta.io/nano"><path d="M0 7.687C0 5.2.842 3.005 2.551 1.064 3.17.346 3.669 0 4.012 0c.119 0 .249.026.342.12s.158.186.158.32c0 .186-.223.466-.658.904-1.776 1.73-2.67 3.857-2.67 6.411 0 2.833.934 5.121 2.762 6.876.368.346.566.625.566.852 0 .12-.066.253-.158.346s-.223.159-.342.159c-.434 0-1.026-.505-1.802-1.503C.71 12.622 0 10.361 0 7.687zm23.518.626c0 2.488-.842 4.682-2.551 6.624-.619.719-1.119 1.064-1.46 1.064-.119 0-.249-.026-.342-.12s-.158-.226-.158-.346c0-.186.224-.466.658-.878 1.776-1.73 2.67-3.857 2.67-6.411 0-2.833-.934-5.121-2.762-6.876-.368-.346-.566-.625-.566-.852 0-.12.066-.253.158-.346s.224-.159.342-.159c.408 0 1.026.505 1.802 1.503 1.46 1.903 2.21 4.165 2.21 6.797zm-6.404 7.151H6.351c-.33 0-.658-.266-.658-.666 0-.366.264-.666.658-.666h10.763c.33 0 .658.266.658.666a.62.62 0 0 1-.658.666zM9.483 1.344s.894.625.894 1.756c0 1.955-2.631 4.137-2.631 6.158 0 2.194 1.657 3.632 3.262 4.057.223.053.329-.213.04-.279-.645-.159-1.381-1.024-1.381-2.381 0-1.25 1.183-1.715 1.67-2.327.487-.625.368-1.41.092-1.636-.289-.226-.092-.532.421-.173s.947 1.037.789 1.689c-.198.824.066 1.303.487 1.357s.894-.159.855-.558c-.053-.399-.289-.824-.145-.824.302 0 .947.758.947 1.955s-.987 2.035-1.276 2.354c-.185.186.053.438.302.32.119-.053.381-.213.553-.333.776-.558 1.987-1.689 1.987-3.791 0-2.194-.829-3.179-1.657-3.99-.829-.824-1.039-.612-.802-.213.71 1.224.276 1.636-.236 1.636-.605 0-.645-1.383-.881-2.447C12.245 1.316 10.141.918 9.747.891c-.381.013-.736.253-.264.453z"/></svg>